M48
;GenerationSoftware,Autodesk,EAGLE,9.6.2*%
;CreationDate,2020-12-17T01:15:17Z*%
FMAT,2
ICI,OFF
METRIC,TZ,000.000
T3C0.305
T2C0.889
T1C1.000
%
G90
M71
T1
X25400Y5080
X22860Y86360
X20320Y86360
X25400Y86360
X27940Y86360
X30480Y86360
X15240Y5080
X17780Y5080
X20320Y5080
X22860Y5080
T2
X21150Y70130
X33850Y67590
X23690Y70130
X23690Y67590
X26230Y70130
X26230Y67590
X28770Y70130
X28770Y67590
X31310Y70130
X31310Y67590
X33850Y70130
X36390Y70130
X36390Y67590
X38930Y70130
X38930Y67590
X41470Y70130
X41470Y67590
X44010Y70130
X44010Y67590
X46550Y70130
X46550Y67590
X49090Y70130
X49090Y67590
X51630Y70130
X51630Y67590
X54170Y70130
X54170Y67590
X56710Y70130
X56710Y67590
X13530Y44730
X13530Y42190
X16070Y44730
X16070Y42190
X18610Y44730
X18610Y42190
X21150Y44730
X21150Y42190
X23690Y44730
X23690Y42190
X26230Y44730
X26230Y42190
X28770Y44730
X28770Y42190
X31310Y44730
X31310Y42190
X33850Y44730
X33850Y42190
X36390Y44730
X36390Y42190
X38930Y44730
X38930Y42190
X41470Y44730
X41470Y42190
X44010Y44730
X46550Y44730
X46550Y42190
X49090Y44730
X49090Y42190
X51630Y44730
X51630Y42190
X54170Y44730
X54170Y42190
X56710Y44730
X44010Y42190
X21150Y67590
X13530Y70130
X13530Y67590
X16070Y70130
X16070Y67590
X18610Y70130
X18610Y67590
X56710Y42190
T3
X66841Y31148
X45839Y39370
X35560Y52070
M30