G04 EAGLE Gerber RS-274X export*
G75*
%MOMM*%
%FSLAX34Y34*%
%LPD*%
%INTop Copper*%
%IPPOS*%
%AMOC8*
5,1,8,0,0,1.08239X$1,22.5*%
G01*
%ADD10R,1.524000X1.524000*%
%ADD11P,1.649562X8X22.500000*%
%ADD12C,1.778000*%
%ADD13R,0.600000X1.050000*%
%ADD14R,5.000000X5.000000*%
%ADD15C,0.609600*%
%ADD16C,0.254000*%


D10*
X135300Y701300D03*
D11*
X135300Y675900D03*
X160700Y701300D03*
X160700Y675900D03*
X186100Y701300D03*
X186100Y675900D03*
X211500Y701300D03*
X211500Y675900D03*
X236900Y701300D03*
X236900Y675900D03*
X262300Y701300D03*
X262300Y675900D03*
X287700Y701300D03*
X287700Y675900D03*
X313100Y701300D03*
X313100Y675900D03*
X338500Y701300D03*
X338500Y675900D03*
X363900Y701300D03*
X363900Y675900D03*
X389300Y701300D03*
X389300Y675900D03*
X414700Y701300D03*
X414700Y675900D03*
X440100Y701300D03*
X440100Y675900D03*
X465500Y701300D03*
X465500Y675900D03*
X490900Y701300D03*
X490900Y675900D03*
X516300Y701300D03*
X516300Y675900D03*
X541700Y701300D03*
X541700Y675900D03*
X567100Y701300D03*
X567100Y675900D03*
D10*
X135300Y447300D03*
D11*
X135300Y421900D03*
X160700Y447300D03*
X160700Y421900D03*
X186100Y447300D03*
X186100Y421900D03*
X211500Y447300D03*
X211500Y421900D03*
X236900Y447300D03*
X236900Y421900D03*
X262300Y447300D03*
X262300Y421900D03*
X287700Y447300D03*
X287700Y421900D03*
X313100Y447300D03*
X313100Y421900D03*
X338500Y447300D03*
X338500Y421900D03*
X363900Y447300D03*
X363900Y421900D03*
X389300Y447300D03*
X389300Y421900D03*
X414700Y447300D03*
X414700Y421900D03*
X440100Y447300D03*
X440100Y421900D03*
X465500Y447300D03*
X465500Y421900D03*
X490900Y447300D03*
X490900Y421900D03*
X516300Y447300D03*
X516300Y421900D03*
X541700Y447300D03*
X541700Y421900D03*
X567100Y447300D03*
X567100Y421900D03*
D12*
X203200Y863600D03*
X228600Y863600D03*
X254000Y863600D03*
X279400Y863600D03*
X304800Y863600D03*
X152400Y50800D03*
X177800Y50800D03*
X203200Y50800D03*
X228600Y50800D03*
X254000Y50800D03*
D13*
X498500Y735800D03*
X508000Y735800D03*
X517500Y735800D03*
X517500Y762800D03*
X498500Y762800D03*
D14*
X68600Y845800D03*
X68600Y525800D03*
X388600Y525800D03*
X388600Y845800D03*
X55900Y363200D03*
X55900Y43200D03*
X375900Y43200D03*
X375900Y363200D03*
D15*
X458388Y393700D03*
D16*
X559988Y292100D01*
X673100Y292100D01*
X673100Y290822D01*
X39790Y819222D02*
X39790Y872378D01*
X39790Y819222D02*
X42022Y816990D01*
X155966Y687330D02*
X149270Y680635D01*
X149270Y671166D01*
X271961Y863600D02*
X279400Y863600D01*
X271961Y863600D02*
X259261Y876300D01*
X86575Y816990D02*
X42022Y816990D01*
X236900Y583536D02*
X236900Y447300D01*
X236900Y583536D02*
X149270Y671166D01*
X197530Y706035D02*
X86575Y816990D01*
X197530Y706035D02*
X197530Y696566D01*
X188295Y687330D01*
X155966Y687330D01*
X259261Y876300D02*
X43712Y876300D01*
X39790Y872378D01*
X130566Y687330D02*
X123870Y680635D01*
X123870Y671166D01*
X225470Y442566D02*
X232166Y435870D01*
X241635Y435870D01*
X34710Y874482D02*
X41608Y881380D01*
X34710Y874482D02*
X34710Y817118D01*
X39918Y811910D01*
X297361Y863600D02*
X304800Y863600D01*
X141958Y687330D02*
X130566Y687330D01*
X123870Y671166D02*
X225470Y569566D01*
X225470Y442566D01*
X297361Y863600D02*
X279581Y881380D01*
X41608Y881380D01*
X253065Y447300D02*
X241635Y435870D01*
X253065Y447300D02*
X262300Y447300D01*
X45318Y811910D02*
X39918Y811910D01*
X45318Y811910D02*
X146730Y710498D01*
X146730Y692102D01*
X141958Y687330D01*
X394035Y458730D02*
X400730Y452035D01*
X377870Y458730D02*
X160700Y675900D01*
X377870Y458730D02*
X394035Y458730D01*
X400730Y452035D02*
X400730Y445106D01*
X426130Y381606D02*
X541036Y266700D01*
X698500Y266700D01*
X412506Y433330D02*
X400730Y445106D01*
X412506Y433330D02*
X419435Y433330D01*
X426130Y426635D01*
X426130Y381606D01*
X698500Y292100D02*
X698500Y266700D01*
D15*
X668415Y311478D03*
D16*
X359790Y502210D02*
X186100Y675900D01*
X359790Y502210D02*
X359790Y499222D01*
X362022Y496990D01*
X444835Y433330D02*
X451530Y426635D01*
X426130Y445106D02*
X426130Y452035D01*
X426130Y445106D02*
X437906Y433330D01*
X444835Y433330D01*
X451530Y426635D02*
X451530Y381606D01*
X561356Y271780D01*
X673100Y271780D01*
X381175Y496990D02*
X362022Y496990D01*
X381175Y496990D02*
X426130Y452035D01*
X287700Y675900D02*
X288500Y676700D01*
X301670Y689870D01*
X527510Y745810D02*
X527510Y786600D01*
X527510Y745810D02*
X517500Y735800D01*
X301670Y706035D02*
X301670Y689870D01*
X301670Y706035D02*
X382236Y786600D01*
X527510Y786600D01*
X415178Y874610D02*
X362022Y874610D01*
X415178Y874610D02*
X417410Y872378D01*
X417410Y819222D01*
X415178Y816990D01*
X288500Y685936D02*
X288500Y676700D01*
X288500Y685936D02*
X299130Y696566D01*
X412626Y816990D02*
X415178Y816990D01*
X412626Y816990D02*
X299130Y703495D01*
X299130Y696566D01*
X215900Y850900D02*
X203200Y863600D01*
X215900Y850900D02*
X338312Y850900D01*
X362022Y874610D01*
X135300Y447300D02*
X76200Y388200D01*
X76200Y368300D01*
X222930Y661006D02*
X222930Y706035D01*
X567100Y675900D02*
X567100Y647036D01*
X528655Y608590D01*
X275346Y608590D01*
X222930Y661006D01*
X222930Y706035D02*
X103465Y825500D01*
X88900Y825500D01*
D15*
X355600Y520700D03*
D16*
X360700Y525800D01*
X388600Y525800D01*
X343235Y689870D02*
X349930Y696566D01*
X324530Y671166D02*
X305135Y651770D01*
X295666Y651770D02*
X276270Y671166D01*
X389300Y675900D02*
X389300Y685136D01*
X377870Y696566D01*
X377870Y703495D01*
X343235Y689870D02*
X336306Y689870D01*
X324530Y678095D01*
X324530Y671166D01*
X368635Y712730D02*
X377870Y703495D01*
X276270Y720770D02*
X393700Y838200D01*
X368635Y712730D02*
X359166Y712730D01*
X349930Y703495D01*
X349930Y696566D01*
X305135Y651770D02*
X295666Y651770D01*
X276270Y671166D02*
X276270Y720770D01*
X349930Y389170D02*
X375900Y363200D01*
X327070Y433330D02*
X313100Y447300D01*
X327070Y433330D02*
X343235Y433330D01*
X349930Y426635D01*
X349930Y389170D01*
X384566Y435870D02*
X377870Y442566D01*
X384566Y435870D02*
X391495Y435870D01*
X377870Y442566D02*
X377870Y449495D01*
X355935Y471430D01*
X267035Y435870D02*
X248330Y435870D01*
X88900Y520700D02*
X63500Y520700D01*
X391495Y435870D02*
X403270Y424095D01*
X558816Y236220D02*
X741680Y236220D01*
X558816Y236220D02*
X473718Y321318D01*
X390916Y404120D01*
X324294Y321318D02*
X473718Y321318D01*
X324294Y321318D02*
X303756Y341856D01*
X299130Y346482D01*
X248330Y417166D02*
X248330Y435870D01*
X248330Y417166D02*
X241635Y410470D01*
X235142Y410470D01*
X403270Y416475D02*
X403270Y424095D01*
X403270Y416475D02*
X390916Y404120D01*
X741680Y348920D02*
X741680Y236220D01*
X555670Y680635D02*
X562366Y687330D01*
X571835Y687330D01*
X578530Y680635D01*
X426130Y664470D02*
X414700Y675900D01*
X578530Y512070D02*
X741680Y348920D01*
X578530Y512070D02*
X578530Y680635D01*
X546435Y664470D02*
X426130Y664470D01*
X546435Y664470D02*
X555670Y673706D01*
X555670Y680635D01*
X273730Y449495D02*
X273730Y442566D01*
X273730Y449495D02*
X295666Y471430D01*
X355935Y471430D01*
X273730Y442566D02*
X267035Y435870D01*
X235142Y410470D02*
X299130Y346482D01*
X235142Y410470D02*
X232166Y410470D01*
X225470Y417166D01*
X206766Y435870D02*
X200070Y442566D01*
X206766Y435870D02*
X213695Y435870D01*
X128865Y520700D02*
X88900Y520700D01*
X225470Y424095D02*
X225470Y417166D01*
X200070Y442566D02*
X200070Y449495D01*
X213695Y435870D02*
X225470Y424095D01*
X200070Y449495D02*
X128865Y520700D01*
X368300Y723100D02*
X508000Y723100D01*
X508000Y735800D01*
X368300Y723100D02*
X351600Y739800D01*
X325800Y714000D01*
X325800Y688600D01*
X313100Y675900D01*
M02*
