G04 EAGLE Gerber RS-274X export*
G75*
%MOMM*%
%FSLAX34Y34*%
%LPD*%
%INCopper Layer 15*%
%IPPOS*%
%AMOC8*
5,1,8,0,0,1.08239X$1,22.5*%
G01*
%ADD10C,1.244600*%
%ADD11C,1.400000*%
%ADD12C,0.254000*%
%ADD13C,0.609600*%

G36*
X1012518Y2544D02*
X1012518Y2544D01*
X1012537Y2542D01*
X1012639Y2564D01*
X1012741Y2580D01*
X1012758Y2590D01*
X1012778Y2594D01*
X1012867Y2647D01*
X1012958Y2696D01*
X1012972Y2710D01*
X1012989Y2720D01*
X1013056Y2799D01*
X1013128Y2874D01*
X1013136Y2892D01*
X1013149Y2907D01*
X1013188Y3003D01*
X1013231Y3097D01*
X1013233Y3117D01*
X1013241Y3135D01*
X1013259Y3302D01*
X1013259Y882398D01*
X1013256Y882418D01*
X1013258Y882437D01*
X1013236Y882539D01*
X1013220Y882641D01*
X1013210Y882658D01*
X1013206Y882678D01*
X1013153Y882767D01*
X1013104Y882858D01*
X1013090Y882872D01*
X1013080Y882889D01*
X1013001Y882956D01*
X1012926Y883028D01*
X1012908Y883036D01*
X1012893Y883049D01*
X1012797Y883088D01*
X1012703Y883131D01*
X1012683Y883133D01*
X1012665Y883141D01*
X1012498Y883159D01*
X3302Y883159D01*
X3282Y883156D01*
X3263Y883158D01*
X3161Y883136D01*
X3059Y883120D01*
X3042Y883110D01*
X3022Y883106D01*
X2933Y883053D01*
X2842Y883004D01*
X2828Y882990D01*
X2811Y882980D01*
X2744Y882901D01*
X2672Y882826D01*
X2664Y882808D01*
X2651Y882793D01*
X2612Y882697D01*
X2569Y882603D01*
X2567Y882583D01*
X2559Y882565D01*
X2541Y882398D01*
X2541Y3302D01*
X2544Y3282D01*
X2542Y3263D01*
X2564Y3161D01*
X2580Y3059D01*
X2590Y3042D01*
X2594Y3022D01*
X2647Y2933D01*
X2696Y2842D01*
X2710Y2828D01*
X2720Y2811D01*
X2799Y2744D01*
X2874Y2672D01*
X2892Y2664D01*
X2907Y2651D01*
X3003Y2612D01*
X3097Y2569D01*
X3117Y2567D01*
X3135Y2559D01*
X3302Y2541D01*
X1012498Y2541D01*
X1012518Y2544D01*
G37*
%LPC*%
G36*
X575935Y239095D02*
X575935Y239095D01*
X573703Y241328D01*
X573703Y333392D01*
X573688Y333482D01*
X573681Y333573D01*
X573669Y333603D01*
X573663Y333635D01*
X573621Y333716D01*
X573585Y333800D01*
X573559Y333832D01*
X573548Y333852D01*
X573525Y333875D01*
X573480Y333931D01*
X497122Y410289D01*
X497122Y413891D01*
X497111Y413961D01*
X497109Y414033D01*
X497091Y414082D01*
X497083Y414133D01*
X497049Y414197D01*
X497024Y414264D01*
X496992Y414305D01*
X496967Y414351D01*
X496916Y414400D01*
X496871Y414456D01*
X496827Y414484D01*
X496789Y414520D01*
X496724Y414550D01*
X496664Y414589D01*
X496613Y414602D01*
X496566Y414624D01*
X496495Y414632D01*
X496425Y414649D01*
X496373Y414645D01*
X496322Y414651D01*
X496251Y414636D01*
X496180Y414630D01*
X496132Y414610D01*
X496081Y414599D01*
X496020Y414562D01*
X495954Y414534D01*
X495898Y414489D01*
X495872Y414474D01*
X492643Y413136D01*
X489157Y413136D01*
X485936Y414470D01*
X483470Y416936D01*
X482136Y420157D01*
X482136Y423643D01*
X483470Y426864D01*
X485936Y429330D01*
X487257Y429877D01*
X487296Y429901D01*
X487339Y429917D01*
X487400Y429965D01*
X487466Y430006D01*
X487495Y430042D01*
X487531Y430070D01*
X487573Y430136D01*
X487623Y430196D01*
X487639Y430239D01*
X487664Y430277D01*
X487683Y430353D01*
X487711Y430425D01*
X487713Y430471D01*
X487724Y430516D01*
X487718Y430593D01*
X487721Y430671D01*
X487708Y430715D01*
X487705Y430761D01*
X487674Y430833D01*
X487653Y430907D01*
X487626Y430945D01*
X487609Y430987D01*
X487523Y431094D01*
X487512Y431109D01*
X487508Y431112D01*
X487504Y431118D01*
X474718Y443904D01*
X474681Y443930D01*
X474650Y443964D01*
X474582Y444002D01*
X474519Y444047D01*
X474475Y444061D01*
X474434Y444083D01*
X474358Y444097D01*
X474283Y444120D01*
X474238Y444118D01*
X474192Y444127D01*
X474115Y444115D01*
X474038Y444113D01*
X473994Y444097D01*
X473949Y444091D01*
X473880Y444056D01*
X473807Y444029D01*
X473771Y444000D01*
X473730Y443979D01*
X473675Y443924D01*
X473615Y443875D01*
X473590Y443836D01*
X473558Y443804D01*
X473492Y443684D01*
X473482Y443668D01*
X473480Y443663D01*
X473477Y443657D01*
X472930Y442336D01*
X470464Y439870D01*
X467243Y438536D01*
X463757Y438536D01*
X460536Y439870D01*
X458070Y442336D01*
X456736Y445557D01*
X456736Y449043D01*
X458082Y452293D01*
X458120Y452333D01*
X458142Y452380D01*
X458172Y452422D01*
X458194Y452491D01*
X458224Y452556D01*
X458230Y452608D01*
X458245Y452657D01*
X458243Y452729D01*
X458251Y452800D01*
X458240Y452851D01*
X458239Y452903D01*
X458214Y452971D01*
X458199Y453041D01*
X458172Y453086D01*
X458154Y453134D01*
X458109Y453190D01*
X458072Y453252D01*
X458033Y453286D01*
X458000Y453326D01*
X457940Y453365D01*
X457886Y453412D01*
X457837Y453431D01*
X457794Y453459D01*
X457724Y453477D01*
X457657Y453504D01*
X457586Y453512D01*
X457555Y453520D01*
X457532Y453518D01*
X457491Y453522D01*
X453889Y453522D01*
X451433Y455977D01*
X240156Y667254D01*
X240062Y667322D01*
X239968Y667392D01*
X239962Y667394D01*
X239957Y667398D01*
X239845Y667432D01*
X239734Y667469D01*
X239728Y667468D01*
X239722Y667470D01*
X239605Y667467D01*
X239488Y667466D01*
X239481Y667464D01*
X239476Y667464D01*
X239458Y667458D01*
X239327Y667419D01*
X238614Y667124D01*
X238559Y667123D01*
X238511Y667105D01*
X238459Y667097D01*
X238396Y667063D01*
X238328Y667038D01*
X238288Y667006D01*
X238242Y666981D01*
X238192Y666929D01*
X238136Y666885D01*
X238108Y666841D01*
X238072Y666803D01*
X238042Y666738D01*
X238003Y666678D01*
X237991Y666627D01*
X237969Y666580D01*
X237961Y666509D01*
X237943Y666439D01*
X237947Y666387D01*
X237942Y666336D01*
X237957Y666265D01*
X237963Y666194D01*
X237983Y666146D01*
X237994Y666095D01*
X238031Y666034D01*
X238059Y665968D01*
X238104Y665912D01*
X238120Y665884D01*
X238138Y665869D01*
X238142Y665863D01*
X238144Y665860D01*
X238147Y665858D01*
X238164Y665837D01*
X320511Y583490D01*
X320511Y569122D01*
X318278Y566889D01*
X316638Y566889D01*
X316567Y566878D01*
X316495Y566876D01*
X316446Y566858D01*
X316395Y566850D01*
X316332Y566816D01*
X316264Y566791D01*
X316224Y566759D01*
X316178Y566734D01*
X316128Y566683D01*
X316072Y566638D01*
X316044Y566594D01*
X316008Y566556D01*
X315978Y566491D01*
X315939Y566431D01*
X315927Y566380D01*
X315905Y566333D01*
X315897Y566262D01*
X315879Y566192D01*
X315883Y566140D01*
X315878Y566089D01*
X315893Y566018D01*
X315898Y565947D01*
X315919Y565899D01*
X315930Y565848D01*
X315967Y565787D01*
X315995Y565721D01*
X316039Y565665D01*
X316056Y565637D01*
X316074Y565622D01*
X316099Y565590D01*
X355177Y526512D01*
X355251Y526459D01*
X355321Y526399D01*
X355351Y526387D01*
X355377Y526368D01*
X355464Y526341D01*
X355549Y526307D01*
X355590Y526303D01*
X355612Y526296D01*
X355644Y526297D01*
X355716Y526289D01*
X356712Y526289D01*
X358766Y525438D01*
X360338Y523866D01*
X361189Y521812D01*
X361189Y519588D01*
X360338Y517534D01*
X358766Y515962D01*
X356712Y515111D01*
X354488Y515111D01*
X352434Y515962D01*
X350862Y517534D01*
X350011Y519588D01*
X350011Y520584D01*
X349997Y520674D01*
X349989Y520765D01*
X349977Y520795D01*
X349972Y520827D01*
X349929Y520908D01*
X349893Y520992D01*
X349867Y521024D01*
X349856Y521044D01*
X349833Y521067D01*
X349788Y521123D01*
X209077Y661833D01*
X209004Y661886D01*
X208934Y661946D01*
X208904Y661958D01*
X208878Y661977D01*
X208791Y662004D01*
X208706Y662038D01*
X208665Y662042D01*
X208643Y662049D01*
X208610Y662048D01*
X208539Y662056D01*
X205766Y662056D01*
X203311Y664511D01*
X203310Y664512D01*
X200112Y667710D01*
X200111Y667711D01*
X197656Y670166D01*
X197656Y681634D01*
X200111Y684089D01*
X200112Y684090D01*
X208104Y692082D01*
X208130Y692119D01*
X208164Y692150D01*
X208202Y692218D01*
X208247Y692281D01*
X208261Y692325D01*
X208283Y692366D01*
X208297Y692442D01*
X208320Y692517D01*
X208318Y692562D01*
X208327Y692608D01*
X208315Y692685D01*
X208313Y692762D01*
X208297Y692806D01*
X208291Y692851D01*
X208256Y692920D01*
X208229Y692993D01*
X208200Y693029D01*
X208179Y693070D01*
X208124Y693125D01*
X208075Y693185D01*
X208036Y693210D01*
X208004Y693242D01*
X207884Y693308D01*
X207868Y693318D01*
X207863Y693320D01*
X207857Y693323D01*
X206536Y693870D01*
X204070Y696336D01*
X202736Y699557D01*
X202736Y703043D01*
X204070Y706264D01*
X206536Y708730D01*
X209757Y710064D01*
X213243Y710064D01*
X216464Y708730D01*
X218930Y706264D01*
X220264Y703043D01*
X220264Y699557D01*
X218930Y696336D01*
X218717Y696123D01*
X218675Y696065D01*
X218626Y696013D01*
X218604Y695966D01*
X218574Y695924D01*
X218552Y695855D01*
X218522Y695790D01*
X218516Y695738D01*
X218501Y695688D01*
X218503Y695617D01*
X218495Y695546D01*
X218506Y695495D01*
X218508Y695443D01*
X218532Y695375D01*
X218547Y695305D01*
X218574Y695260D01*
X218592Y695212D01*
X218637Y695156D01*
X218674Y695094D01*
X218713Y695060D01*
X218746Y695020D01*
X218806Y694981D01*
X218860Y694934D01*
X218909Y694915D01*
X218953Y694887D01*
X219022Y694869D01*
X219089Y694842D01*
X219160Y694834D01*
X219191Y694826D01*
X219214Y694828D01*
X219255Y694824D01*
X229145Y694824D01*
X229215Y694835D01*
X229287Y694837D01*
X229336Y694855D01*
X229387Y694863D01*
X229451Y694897D01*
X229518Y694922D01*
X229559Y694954D01*
X229605Y694979D01*
X229654Y695030D01*
X229710Y695075D01*
X229738Y695119D01*
X229774Y695157D01*
X229804Y695222D01*
X229843Y695282D01*
X229856Y695333D01*
X229878Y695380D01*
X229886Y695451D01*
X229903Y695521D01*
X229899Y695573D01*
X229905Y695624D01*
X229890Y695695D01*
X229884Y695766D01*
X229864Y695814D01*
X229853Y695865D01*
X229816Y695926D01*
X229788Y695992D01*
X229743Y696048D01*
X229726Y696076D01*
X229709Y696091D01*
X229683Y696123D01*
X229470Y696336D01*
X228136Y699557D01*
X228136Y703043D01*
X229470Y706264D01*
X231936Y708730D01*
X235157Y710064D01*
X238643Y710064D01*
X241864Y708730D01*
X244330Y706264D01*
X245664Y703043D01*
X245664Y699557D01*
X244330Y696336D01*
X244117Y696123D01*
X244075Y696065D01*
X244026Y696013D01*
X244004Y695966D01*
X243974Y695924D01*
X243952Y695855D01*
X243922Y695790D01*
X243916Y695738D01*
X243901Y695688D01*
X243903Y695617D01*
X243895Y695546D01*
X243906Y695495D01*
X243908Y695443D01*
X243932Y695375D01*
X243947Y695305D01*
X243974Y695260D01*
X243992Y695212D01*
X244037Y695156D01*
X244074Y695094D01*
X244113Y695060D01*
X244146Y695020D01*
X244206Y694981D01*
X244260Y694934D01*
X244309Y694915D01*
X244353Y694887D01*
X244422Y694869D01*
X244489Y694842D01*
X244560Y694834D01*
X244591Y694826D01*
X244614Y694828D01*
X244655Y694824D01*
X254545Y694824D01*
X254615Y694835D01*
X254687Y694837D01*
X254736Y694855D01*
X254787Y694863D01*
X254851Y694897D01*
X254918Y694922D01*
X254959Y694954D01*
X255005Y694979D01*
X255054Y695030D01*
X255110Y695075D01*
X255138Y695119D01*
X255174Y695157D01*
X255204Y695222D01*
X255243Y695282D01*
X255256Y695333D01*
X255278Y695380D01*
X255286Y695451D01*
X255303Y695521D01*
X255299Y695573D01*
X255305Y695624D01*
X255290Y695695D01*
X255284Y695766D01*
X255264Y695814D01*
X255253Y695865D01*
X255216Y695926D01*
X255188Y695992D01*
X255143Y696048D01*
X255126Y696076D01*
X255109Y696091D01*
X255083Y696123D01*
X254870Y696336D01*
X253536Y699557D01*
X253536Y703043D01*
X254870Y706264D01*
X257336Y708730D01*
X260557Y710064D01*
X264043Y710064D01*
X267264Y708730D01*
X269730Y706264D01*
X271064Y703043D01*
X271064Y699557D01*
X269730Y696336D01*
X267264Y693870D01*
X265943Y693323D01*
X265904Y693299D01*
X265861Y693283D01*
X265800Y693235D01*
X265734Y693194D01*
X265705Y693158D01*
X265669Y693130D01*
X265627Y693064D01*
X265577Y693004D01*
X265561Y692961D01*
X265536Y692923D01*
X265517Y692847D01*
X265489Y692775D01*
X265487Y692729D01*
X265476Y692684D01*
X265482Y692607D01*
X265479Y692529D01*
X265492Y692485D01*
X265495Y692439D01*
X265526Y692367D01*
X265547Y692293D01*
X265574Y692255D01*
X265591Y692213D01*
X265677Y692106D01*
X265688Y692091D01*
X265692Y692088D01*
X265696Y692082D01*
X276144Y681634D01*
X276144Y678972D01*
X276158Y678882D01*
X276166Y678791D01*
X276178Y678761D01*
X276183Y678729D01*
X276226Y678649D01*
X276262Y678565D01*
X276288Y678532D01*
X276299Y678512D01*
X276322Y678490D01*
X276367Y678434D01*
X277780Y677020D01*
X277876Y676951D01*
X277974Y676880D01*
X277977Y676879D01*
X277980Y676877D01*
X278094Y676842D01*
X278209Y676805D01*
X278212Y676805D01*
X278215Y676804D01*
X278336Y676808D01*
X278455Y676810D01*
X278458Y676811D01*
X278461Y676811D01*
X278574Y676852D01*
X278686Y676892D01*
X278689Y676894D01*
X278692Y676895D01*
X278784Y676969D01*
X278880Y677044D01*
X278881Y677047D01*
X278884Y677049D01*
X278949Y677150D01*
X279014Y677250D01*
X279015Y677254D01*
X279017Y677256D01*
X279020Y677267D01*
X279065Y677410D01*
X279273Y678456D01*
X279934Y680051D01*
X280893Y681487D01*
X282113Y682707D01*
X283549Y683666D01*
X285144Y684327D01*
X286177Y684532D01*
X286177Y676662D01*
X286180Y676642D01*
X286178Y676623D01*
X286200Y676521D01*
X286217Y676419D01*
X286226Y676402D01*
X286230Y676382D01*
X286283Y676293D01*
X286332Y676202D01*
X286346Y676188D01*
X286356Y676171D01*
X286435Y676104D01*
X286510Y676033D01*
X286528Y676024D01*
X286543Y676011D01*
X286639Y675973D01*
X286733Y675929D01*
X286753Y675927D01*
X286771Y675919D01*
X286938Y675901D01*
X287701Y675901D01*
X287701Y675138D01*
X287704Y675118D01*
X287702Y675099D01*
X287724Y674997D01*
X287741Y674895D01*
X287750Y674878D01*
X287754Y674858D01*
X287807Y674769D01*
X287856Y674678D01*
X287870Y674664D01*
X287880Y674647D01*
X287959Y674580D01*
X288034Y674509D01*
X288052Y674500D01*
X288067Y674487D01*
X288163Y674448D01*
X288257Y674405D01*
X288277Y674403D01*
X288295Y674395D01*
X288462Y674377D01*
X296332Y674377D01*
X296127Y673344D01*
X295466Y671749D01*
X294874Y670862D01*
X294824Y670753D01*
X294774Y670644D01*
X294773Y670641D01*
X294772Y670638D01*
X294760Y670518D01*
X294746Y670400D01*
X294747Y670396D01*
X294747Y670393D01*
X294773Y670277D01*
X294799Y670159D01*
X294800Y670156D01*
X294801Y670153D01*
X294863Y670051D01*
X294925Y669948D01*
X294927Y669946D01*
X294929Y669943D01*
X295021Y669866D01*
X295112Y669788D01*
X295115Y669787D01*
X295117Y669785D01*
X295227Y669742D01*
X295340Y669696D01*
X295344Y669696D01*
X295346Y669695D01*
X295357Y669694D01*
X295507Y669678D01*
X305091Y669678D01*
X305161Y669689D01*
X305233Y669691D01*
X305282Y669709D01*
X305333Y669717D01*
X305397Y669751D01*
X305464Y669776D01*
X305505Y669808D01*
X305551Y669833D01*
X305600Y669884D01*
X305656Y669929D01*
X305684Y669973D01*
X305720Y670011D01*
X305750Y670076D01*
X305789Y670136D01*
X305802Y670187D01*
X305824Y670234D01*
X305832Y670305D01*
X305849Y670375D01*
X305845Y670427D01*
X305851Y670478D01*
X305836Y670549D01*
X305830Y670620D01*
X305810Y670668D01*
X305799Y670719D01*
X305762Y670780D01*
X305734Y670846D01*
X305689Y670902D01*
X305674Y670928D01*
X304336Y674157D01*
X304336Y677643D01*
X305670Y680864D01*
X308136Y683330D01*
X311357Y684664D01*
X314843Y684664D01*
X318064Y683330D01*
X320530Y680864D01*
X321864Y677643D01*
X321864Y674157D01*
X320518Y670907D01*
X320480Y670867D01*
X320458Y670820D01*
X320428Y670778D01*
X320406Y670709D01*
X320376Y670644D01*
X320370Y670592D01*
X320355Y670543D01*
X320357Y670471D01*
X320349Y670400D01*
X320360Y670349D01*
X320361Y670297D01*
X320386Y670229D01*
X320401Y670159D01*
X320428Y670114D01*
X320446Y670066D01*
X320491Y670010D01*
X320528Y669948D01*
X320567Y669914D01*
X320600Y669874D01*
X320660Y669835D01*
X320714Y669788D01*
X320763Y669769D01*
X320806Y669741D01*
X320876Y669723D01*
X320943Y669696D01*
X321014Y669688D01*
X321045Y669680D01*
X321068Y669682D01*
X321109Y669678D01*
X330491Y669678D01*
X330561Y669689D01*
X330633Y669691D01*
X330682Y669709D01*
X330733Y669717D01*
X330797Y669751D01*
X330864Y669776D01*
X330905Y669808D01*
X330951Y669833D01*
X331000Y669884D01*
X331056Y669929D01*
X331084Y669973D01*
X331120Y670011D01*
X331150Y670076D01*
X331189Y670136D01*
X331202Y670187D01*
X331224Y670234D01*
X331232Y670305D01*
X331249Y670375D01*
X331245Y670427D01*
X331251Y670478D01*
X331236Y670549D01*
X331230Y670620D01*
X331210Y670668D01*
X331199Y670719D01*
X331162Y670780D01*
X331134Y670846D01*
X331089Y670902D01*
X331074Y670928D01*
X329736Y674157D01*
X329736Y677643D01*
X331070Y680864D01*
X333536Y683330D01*
X336757Y684664D01*
X340243Y684664D01*
X343464Y683330D01*
X345930Y680864D01*
X347264Y677643D01*
X347264Y674157D01*
X345918Y670907D01*
X345880Y670867D01*
X345858Y670820D01*
X345828Y670778D01*
X345806Y670709D01*
X345776Y670644D01*
X345770Y670592D01*
X345755Y670543D01*
X345757Y670471D01*
X345749Y670400D01*
X345760Y670349D01*
X345761Y670297D01*
X345786Y670229D01*
X345801Y670159D01*
X345828Y670114D01*
X345846Y670066D01*
X345891Y670010D01*
X345928Y669948D01*
X345967Y669914D01*
X346000Y669874D01*
X346060Y669835D01*
X346114Y669788D01*
X346163Y669769D01*
X346206Y669741D01*
X346276Y669723D01*
X346343Y669696D01*
X346414Y669688D01*
X346445Y669680D01*
X346468Y669682D01*
X346509Y669678D01*
X355891Y669678D01*
X355961Y669689D01*
X356033Y669691D01*
X356082Y669709D01*
X356133Y669717D01*
X356197Y669751D01*
X356264Y669776D01*
X356305Y669808D01*
X356351Y669833D01*
X356400Y669884D01*
X356456Y669929D01*
X356484Y669973D01*
X356520Y670011D01*
X356550Y670076D01*
X356589Y670136D01*
X356602Y670187D01*
X356624Y670234D01*
X356632Y670305D01*
X356649Y670375D01*
X356645Y670427D01*
X356651Y670478D01*
X356636Y670549D01*
X356630Y670620D01*
X356610Y670668D01*
X356599Y670719D01*
X356562Y670780D01*
X356534Y670846D01*
X356489Y670902D01*
X356474Y670928D01*
X355136Y674157D01*
X355136Y677643D01*
X356470Y680864D01*
X358936Y683330D01*
X362157Y684664D01*
X365643Y684664D01*
X368864Y683330D01*
X371330Y680864D01*
X372664Y677643D01*
X372664Y674157D01*
X371318Y670907D01*
X371280Y670867D01*
X371258Y670820D01*
X371228Y670778D01*
X371206Y670709D01*
X371176Y670644D01*
X371170Y670592D01*
X371155Y670543D01*
X371157Y670471D01*
X371149Y670400D01*
X371160Y670349D01*
X371161Y670297D01*
X371186Y670229D01*
X371201Y670159D01*
X371228Y670114D01*
X371246Y670066D01*
X371291Y670010D01*
X371328Y669948D01*
X371367Y669914D01*
X371400Y669874D01*
X371460Y669835D01*
X371514Y669788D01*
X371563Y669769D01*
X371606Y669741D01*
X371676Y669723D01*
X371743Y669696D01*
X371814Y669688D01*
X371845Y669680D01*
X371868Y669682D01*
X371909Y669678D01*
X381291Y669678D01*
X381361Y669689D01*
X381433Y669691D01*
X381482Y669709D01*
X381533Y669717D01*
X381597Y669751D01*
X381664Y669776D01*
X381705Y669808D01*
X381751Y669833D01*
X381800Y669884D01*
X381856Y669929D01*
X381884Y669973D01*
X381920Y670011D01*
X381950Y670076D01*
X381989Y670136D01*
X382002Y670187D01*
X382024Y670234D01*
X382032Y670305D01*
X382049Y670375D01*
X382045Y670427D01*
X382051Y670478D01*
X382036Y670549D01*
X382030Y670620D01*
X382010Y670668D01*
X381999Y670719D01*
X381962Y670780D01*
X381934Y670846D01*
X381889Y670902D01*
X381874Y670928D01*
X380536Y674157D01*
X380536Y677643D01*
X381870Y680864D01*
X384336Y683330D01*
X387557Y684664D01*
X391043Y684664D01*
X394264Y683330D01*
X396730Y680864D01*
X398064Y677643D01*
X398064Y674157D01*
X396718Y670907D01*
X396680Y670867D01*
X396658Y670820D01*
X396628Y670778D01*
X396606Y670709D01*
X396576Y670644D01*
X396570Y670592D01*
X396555Y670543D01*
X396557Y670471D01*
X396549Y670400D01*
X396560Y670349D01*
X396561Y670297D01*
X396586Y670229D01*
X396601Y670159D01*
X396628Y670114D01*
X396646Y670066D01*
X396691Y670010D01*
X396728Y669948D01*
X396767Y669914D01*
X396800Y669874D01*
X396860Y669835D01*
X396914Y669788D01*
X396963Y669769D01*
X397006Y669741D01*
X397076Y669723D01*
X397143Y669696D01*
X397214Y669688D01*
X397245Y669680D01*
X397268Y669682D01*
X397309Y669678D01*
X406691Y669678D01*
X406761Y669689D01*
X406833Y669691D01*
X406882Y669709D01*
X406933Y669717D01*
X406997Y669751D01*
X407064Y669776D01*
X407105Y669808D01*
X407151Y669833D01*
X407200Y669884D01*
X407256Y669929D01*
X407284Y669973D01*
X407320Y670011D01*
X407350Y670076D01*
X407389Y670136D01*
X407402Y670187D01*
X407424Y670234D01*
X407432Y670305D01*
X407449Y670375D01*
X407445Y670427D01*
X407451Y670478D01*
X407436Y670549D01*
X407430Y670620D01*
X407410Y670668D01*
X407399Y670719D01*
X407362Y670780D01*
X407334Y670846D01*
X407289Y670902D01*
X407274Y670928D01*
X405936Y674157D01*
X405936Y677643D01*
X407270Y680864D01*
X409736Y683330D01*
X412957Y684664D01*
X416443Y684664D01*
X419664Y683330D01*
X422130Y680864D01*
X423464Y677643D01*
X423464Y674157D01*
X422118Y670907D01*
X422080Y670867D01*
X422058Y670820D01*
X422028Y670778D01*
X422006Y670709D01*
X421976Y670644D01*
X421970Y670592D01*
X421955Y670543D01*
X421957Y670471D01*
X421949Y670400D01*
X421960Y670349D01*
X421961Y670297D01*
X421986Y670229D01*
X422001Y670159D01*
X422028Y670114D01*
X422046Y670066D01*
X422091Y670010D01*
X422128Y669948D01*
X422167Y669914D01*
X422200Y669874D01*
X422260Y669835D01*
X422314Y669788D01*
X422363Y669769D01*
X422406Y669741D01*
X422476Y669723D01*
X422543Y669696D01*
X422614Y669688D01*
X422645Y669680D01*
X422668Y669682D01*
X422709Y669678D01*
X432091Y669678D01*
X432161Y669689D01*
X432233Y669691D01*
X432282Y669709D01*
X432333Y669717D01*
X432397Y669751D01*
X432464Y669776D01*
X432505Y669808D01*
X432551Y669833D01*
X432600Y669884D01*
X432656Y669929D01*
X432684Y669973D01*
X432720Y670011D01*
X432750Y670076D01*
X432789Y670136D01*
X432802Y670187D01*
X432824Y670234D01*
X432832Y670305D01*
X432849Y670375D01*
X432845Y670427D01*
X432851Y670478D01*
X432836Y670549D01*
X432830Y670620D01*
X432810Y670668D01*
X432799Y670719D01*
X432762Y670780D01*
X432734Y670846D01*
X432689Y670902D01*
X432674Y670928D01*
X431336Y674157D01*
X431336Y677643D01*
X432670Y680864D01*
X435136Y683330D01*
X438357Y684664D01*
X441843Y684664D01*
X445064Y683330D01*
X447530Y680864D01*
X448864Y677643D01*
X448864Y674157D01*
X447518Y670907D01*
X447480Y670867D01*
X447458Y670820D01*
X447428Y670778D01*
X447406Y670709D01*
X447376Y670644D01*
X447370Y670592D01*
X447355Y670543D01*
X447357Y670471D01*
X447349Y670400D01*
X447360Y670349D01*
X447361Y670297D01*
X447386Y670229D01*
X447401Y670159D01*
X447428Y670114D01*
X447446Y670066D01*
X447491Y670010D01*
X447528Y669948D01*
X447567Y669914D01*
X447600Y669874D01*
X447660Y669835D01*
X447714Y669788D01*
X447763Y669769D01*
X447806Y669741D01*
X447876Y669723D01*
X447943Y669696D01*
X448014Y669688D01*
X448045Y669680D01*
X448068Y669682D01*
X448109Y669678D01*
X457491Y669678D01*
X457561Y669689D01*
X457633Y669691D01*
X457682Y669709D01*
X457733Y669717D01*
X457797Y669751D01*
X457864Y669776D01*
X457905Y669808D01*
X457951Y669833D01*
X458000Y669884D01*
X458056Y669929D01*
X458084Y669973D01*
X458120Y670011D01*
X458150Y670076D01*
X458189Y670136D01*
X458202Y670187D01*
X458224Y670234D01*
X458232Y670305D01*
X458249Y670375D01*
X458245Y670427D01*
X458251Y670478D01*
X458236Y670549D01*
X458230Y670620D01*
X458210Y670668D01*
X458199Y670719D01*
X458162Y670780D01*
X458134Y670846D01*
X458089Y670902D01*
X458074Y670928D01*
X456736Y674157D01*
X456736Y677643D01*
X458070Y680864D01*
X460536Y683330D01*
X463757Y684664D01*
X467243Y684664D01*
X470464Y683330D01*
X472930Y680864D01*
X474264Y677643D01*
X474264Y674157D01*
X472918Y670907D01*
X472880Y670867D01*
X472858Y670820D01*
X472828Y670778D01*
X472806Y670709D01*
X472776Y670644D01*
X472770Y670592D01*
X472755Y670543D01*
X472757Y670471D01*
X472749Y670400D01*
X472760Y670349D01*
X472761Y670297D01*
X472786Y670229D01*
X472801Y670159D01*
X472828Y670114D01*
X472846Y670066D01*
X472891Y670010D01*
X472928Y669948D01*
X472967Y669914D01*
X473000Y669874D01*
X473060Y669835D01*
X473114Y669788D01*
X473163Y669769D01*
X473206Y669741D01*
X473276Y669723D01*
X473343Y669696D01*
X473414Y669688D01*
X473445Y669680D01*
X473468Y669682D01*
X473509Y669678D01*
X482891Y669678D01*
X482961Y669689D01*
X483033Y669691D01*
X483082Y669709D01*
X483133Y669717D01*
X483197Y669751D01*
X483264Y669776D01*
X483305Y669808D01*
X483351Y669833D01*
X483400Y669884D01*
X483456Y669929D01*
X483484Y669973D01*
X483520Y670011D01*
X483550Y670076D01*
X483589Y670136D01*
X483602Y670187D01*
X483624Y670234D01*
X483632Y670305D01*
X483649Y670375D01*
X483645Y670427D01*
X483651Y670478D01*
X483636Y670549D01*
X483630Y670620D01*
X483610Y670668D01*
X483599Y670719D01*
X483562Y670780D01*
X483534Y670846D01*
X483489Y670902D01*
X483474Y670928D01*
X482136Y674157D01*
X482136Y677643D01*
X483470Y680864D01*
X485936Y683330D01*
X489157Y684664D01*
X492643Y684664D01*
X495864Y683330D01*
X498330Y680864D01*
X499664Y677643D01*
X499664Y674157D01*
X498318Y670907D01*
X498280Y670867D01*
X498258Y670820D01*
X498228Y670778D01*
X498206Y670709D01*
X498176Y670644D01*
X498170Y670592D01*
X498155Y670543D01*
X498157Y670471D01*
X498149Y670400D01*
X498160Y670349D01*
X498161Y670297D01*
X498186Y670229D01*
X498201Y670159D01*
X498228Y670114D01*
X498246Y670066D01*
X498291Y670010D01*
X498328Y669948D01*
X498367Y669914D01*
X498400Y669874D01*
X498460Y669835D01*
X498514Y669788D01*
X498563Y669769D01*
X498606Y669741D01*
X498676Y669723D01*
X498743Y669696D01*
X498814Y669688D01*
X498845Y669680D01*
X498868Y669682D01*
X498909Y669678D01*
X508291Y669678D01*
X508361Y669689D01*
X508433Y669691D01*
X508482Y669709D01*
X508533Y669717D01*
X508597Y669751D01*
X508664Y669776D01*
X508705Y669808D01*
X508751Y669833D01*
X508800Y669884D01*
X508856Y669929D01*
X508884Y669973D01*
X508920Y670011D01*
X508950Y670076D01*
X508989Y670136D01*
X509002Y670187D01*
X509024Y670234D01*
X509032Y670305D01*
X509049Y670375D01*
X509045Y670427D01*
X509051Y670478D01*
X509036Y670549D01*
X509030Y670620D01*
X509010Y670668D01*
X508999Y670719D01*
X508962Y670780D01*
X508934Y670846D01*
X508889Y670902D01*
X508874Y670928D01*
X507536Y674157D01*
X507536Y677643D01*
X508870Y680864D01*
X511336Y683330D01*
X514557Y684664D01*
X518043Y684664D01*
X521293Y683318D01*
X521333Y683280D01*
X521380Y683258D01*
X521422Y683228D01*
X521491Y683206D01*
X521556Y683176D01*
X521608Y683170D01*
X521657Y683155D01*
X521729Y683157D01*
X521800Y683149D01*
X521851Y683160D01*
X521903Y683161D01*
X521971Y683186D01*
X522041Y683201D01*
X522086Y683228D01*
X522134Y683246D01*
X522190Y683291D01*
X522252Y683328D01*
X522286Y683367D01*
X522326Y683400D01*
X522365Y683460D01*
X522412Y683514D01*
X522431Y683563D01*
X522459Y683606D01*
X522477Y683676D01*
X522504Y683743D01*
X522512Y683814D01*
X522520Y683845D01*
X522518Y683868D01*
X522522Y683909D01*
X522522Y687511D01*
X524977Y689967D01*
X524978Y689967D01*
X533054Y698044D01*
X533122Y698138D01*
X533192Y698232D01*
X533194Y698238D01*
X533198Y698243D01*
X533232Y698355D01*
X533269Y698466D01*
X533268Y698472D01*
X533270Y698478D01*
X533267Y698594D01*
X533266Y698712D01*
X533264Y698719D01*
X533264Y698724D01*
X533258Y698742D01*
X533219Y698873D01*
X532936Y699557D01*
X532936Y703043D01*
X534270Y706264D01*
X536736Y708730D01*
X539957Y710064D01*
X543443Y710064D01*
X546664Y708730D01*
X549130Y706264D01*
X550464Y703043D01*
X550464Y699557D01*
X549130Y696336D01*
X546664Y693870D01*
X543443Y692536D01*
X539957Y692536D01*
X539273Y692819D01*
X539160Y692846D01*
X539046Y692875D01*
X539040Y692874D01*
X539034Y692876D01*
X538917Y692865D01*
X538801Y692856D01*
X538795Y692853D01*
X538789Y692853D01*
X538681Y692805D01*
X538575Y692759D01*
X538569Y692755D01*
X538564Y692753D01*
X538550Y692740D01*
X538444Y692654D01*
X530367Y684578D01*
X530314Y684504D01*
X530254Y684434D01*
X530242Y684404D01*
X530223Y684378D01*
X530196Y684291D01*
X530162Y684206D01*
X530158Y684165D01*
X530151Y684143D01*
X530152Y684111D01*
X530144Y684039D01*
X530144Y670166D01*
X522034Y662056D01*
X281966Y662056D01*
X271518Y672504D01*
X271481Y672530D01*
X271450Y672564D01*
X271382Y672602D01*
X271319Y672647D01*
X271275Y672661D01*
X271234Y672683D01*
X271158Y672697D01*
X271083Y672720D01*
X271038Y672718D01*
X270992Y672727D01*
X270915Y672715D01*
X270838Y672713D01*
X270794Y672697D01*
X270749Y672691D01*
X270680Y672656D01*
X270607Y672629D01*
X270571Y672600D01*
X270530Y672579D01*
X270475Y672524D01*
X270415Y672475D01*
X270390Y672436D01*
X270358Y672404D01*
X270292Y672284D01*
X270282Y672268D01*
X270280Y672263D01*
X270277Y672257D01*
X269730Y670936D01*
X267264Y668470D01*
X264014Y667124D01*
X263959Y667123D01*
X263911Y667105D01*
X263859Y667097D01*
X263796Y667063D01*
X263728Y667038D01*
X263688Y667006D01*
X263642Y666981D01*
X263592Y666929D01*
X263536Y666885D01*
X263508Y666841D01*
X263472Y666803D01*
X263442Y666738D01*
X263403Y666678D01*
X263391Y666627D01*
X263369Y666580D01*
X263361Y666509D01*
X263343Y666439D01*
X263347Y666387D01*
X263342Y666336D01*
X263357Y666265D01*
X263363Y666194D01*
X263383Y666146D01*
X263394Y666095D01*
X263431Y666034D01*
X263459Y665968D01*
X263504Y665912D01*
X263520Y665884D01*
X263538Y665869D01*
X263542Y665863D01*
X263544Y665860D01*
X263547Y665858D01*
X263564Y665837D01*
X303867Y625534D01*
X303941Y625481D01*
X304010Y625421D01*
X304040Y625409D01*
X304066Y625390D01*
X304153Y625363D01*
X304238Y625329D01*
X304279Y625325D01*
X304302Y625318D01*
X304334Y625319D01*
X304405Y625311D01*
X357867Y625311D01*
X532482Y450696D01*
X532519Y450670D01*
X532550Y450636D01*
X532618Y450598D01*
X532681Y450553D01*
X532725Y450539D01*
X532766Y450517D01*
X532842Y450503D01*
X532917Y450480D01*
X532962Y450482D01*
X533008Y450473D01*
X533085Y450485D01*
X533162Y450487D01*
X533206Y450503D01*
X533251Y450509D01*
X533320Y450544D01*
X533393Y450571D01*
X533429Y450600D01*
X533470Y450621D01*
X533525Y450676D01*
X533585Y450725D01*
X533610Y450764D01*
X533642Y450796D01*
X533708Y450916D01*
X533718Y450932D01*
X533720Y450937D01*
X533723Y450943D01*
X534270Y452264D01*
X536736Y454730D01*
X539957Y456064D01*
X543443Y456064D01*
X546664Y454730D01*
X549130Y452264D01*
X550464Y449043D01*
X550464Y445557D01*
X549130Y442336D01*
X546664Y439870D01*
X543414Y438524D01*
X543359Y438523D01*
X543310Y438505D01*
X543259Y438497D01*
X543196Y438463D01*
X543128Y438438D01*
X543088Y438406D01*
X543042Y438381D01*
X542992Y438330D01*
X542936Y438285D01*
X542908Y438241D01*
X542872Y438203D01*
X542842Y438138D01*
X542803Y438078D01*
X542791Y438027D01*
X542769Y437980D01*
X542761Y437909D01*
X542743Y437839D01*
X542747Y437787D01*
X542742Y437736D01*
X542757Y437665D01*
X542763Y437594D01*
X542783Y437546D01*
X542794Y437495D01*
X542831Y437434D01*
X542859Y437368D01*
X542904Y437312D01*
X542920Y437284D01*
X542938Y437269D01*
X542964Y437237D01*
X557037Y423164D01*
X557095Y423122D01*
X557147Y423072D01*
X557194Y423050D01*
X557236Y423020D01*
X557305Y422999D01*
X557370Y422969D01*
X557422Y422963D01*
X557472Y422948D01*
X557543Y422950D01*
X557614Y422942D01*
X557665Y422953D01*
X557717Y422954D01*
X557785Y422979D01*
X557855Y422994D01*
X557899Y423021D01*
X557948Y423039D01*
X558004Y423083D01*
X558066Y423120D01*
X558100Y423160D01*
X558140Y423192D01*
X558179Y423253D01*
X558226Y423307D01*
X558245Y423355D01*
X558273Y423399D01*
X558291Y423469D01*
X558318Y423535D01*
X558326Y423607D01*
X558333Y423635D01*
X559670Y426864D01*
X562136Y429330D01*
X565357Y430664D01*
X568843Y430664D01*
X572064Y429330D01*
X574530Y426864D01*
X575864Y423643D01*
X575864Y420157D01*
X574530Y416936D01*
X572064Y414470D01*
X568814Y413124D01*
X568759Y413123D01*
X568711Y413105D01*
X568659Y413097D01*
X568596Y413063D01*
X568528Y413038D01*
X568488Y413006D01*
X568442Y412981D01*
X568392Y412929D01*
X568336Y412885D01*
X568308Y412841D01*
X568272Y412803D01*
X568242Y412738D01*
X568203Y412678D01*
X568191Y412627D01*
X568169Y412580D01*
X568161Y412509D01*
X568143Y412439D01*
X568147Y412387D01*
X568142Y412336D01*
X568157Y412265D01*
X568163Y412194D01*
X568183Y412146D01*
X568194Y412095D01*
X568231Y412034D01*
X568259Y411968D01*
X568304Y411912D01*
X568320Y411884D01*
X568338Y411869D01*
X568364Y411837D01*
X654966Y325234D01*
X655040Y325181D01*
X655110Y325122D01*
X655140Y325110D01*
X655166Y325091D01*
X655253Y325064D01*
X655338Y325030D01*
X655379Y325025D01*
X655401Y325018D01*
X655433Y325019D01*
X655504Y325011D01*
X660271Y325011D01*
X667992Y317290D01*
X668066Y317237D01*
X668136Y317177D01*
X668166Y317165D01*
X668192Y317146D01*
X668279Y317120D01*
X668364Y317085D01*
X668405Y317081D01*
X668427Y317074D01*
X668459Y317075D01*
X668531Y317067D01*
X669527Y317067D01*
X671581Y316216D01*
X673153Y314644D01*
X674004Y312590D01*
X674004Y310367D01*
X673153Y308312D01*
X671581Y306740D01*
X669527Y305889D01*
X667303Y305889D01*
X665249Y306740D01*
X663677Y308312D01*
X662826Y310367D01*
X662826Y311362D01*
X662811Y311453D01*
X662804Y311543D01*
X662792Y311573D01*
X662786Y311605D01*
X662744Y311686D01*
X662708Y311770D01*
X662682Y311802D01*
X662671Y311823D01*
X662648Y311845D01*
X662603Y311901D01*
X657337Y317167D01*
X657263Y317220D01*
X657194Y317279D01*
X657163Y317292D01*
X657137Y317310D01*
X657050Y317337D01*
X656965Y317371D01*
X656924Y317376D01*
X656902Y317383D01*
X656870Y317382D01*
X656799Y317390D01*
X652032Y317390D01*
X550918Y418504D01*
X550881Y418530D01*
X550850Y418564D01*
X550782Y418602D01*
X550719Y418647D01*
X550675Y418661D01*
X550634Y418683D01*
X550558Y418697D01*
X550483Y418720D01*
X550438Y418718D01*
X550392Y418727D01*
X550315Y418715D01*
X550238Y418713D01*
X550194Y418697D01*
X550149Y418691D01*
X550080Y418656D01*
X550007Y418629D01*
X549971Y418600D01*
X549930Y418579D01*
X549875Y418524D01*
X549815Y418475D01*
X549790Y418436D01*
X549758Y418404D01*
X549692Y418284D01*
X549682Y418268D01*
X549680Y418263D01*
X549677Y418257D01*
X549130Y416936D01*
X546664Y414470D01*
X543443Y413136D01*
X539957Y413136D01*
X536736Y414470D01*
X534270Y416936D01*
X532936Y420157D01*
X532936Y423643D01*
X534270Y426864D01*
X536736Y429330D01*
X538057Y429877D01*
X538096Y429901D01*
X538139Y429917D01*
X538200Y429965D01*
X538266Y430006D01*
X538295Y430042D01*
X538331Y430070D01*
X538373Y430136D01*
X538423Y430196D01*
X538439Y430239D01*
X538464Y430277D01*
X538483Y430353D01*
X538511Y430425D01*
X538513Y430471D01*
X538524Y430516D01*
X538518Y430593D01*
X538521Y430671D01*
X538508Y430715D01*
X538505Y430761D01*
X538474Y430833D01*
X538453Y430907D01*
X538426Y430945D01*
X538409Y430987D01*
X538323Y431094D01*
X538312Y431109D01*
X538308Y431112D01*
X538304Y431118D01*
X527856Y441566D01*
X527856Y444228D01*
X527842Y444318D01*
X527834Y444409D01*
X527822Y444439D01*
X527817Y444471D01*
X527774Y444551D01*
X527738Y444635D01*
X527712Y444668D01*
X527701Y444688D01*
X527678Y444710D01*
X527633Y444766D01*
X526363Y446036D01*
X526305Y446078D01*
X526253Y446128D01*
X526206Y446150D01*
X526164Y446180D01*
X526095Y446201D01*
X526030Y446231D01*
X525978Y446237D01*
X525928Y446252D01*
X525857Y446250D01*
X525786Y446258D01*
X525735Y446247D01*
X525683Y446246D01*
X525615Y446221D01*
X525545Y446206D01*
X525500Y446179D01*
X525452Y446161D01*
X525396Y446117D01*
X525334Y446080D01*
X525300Y446040D01*
X525260Y446008D01*
X525221Y445947D01*
X525174Y445893D01*
X525155Y445845D01*
X525127Y445801D01*
X525109Y445731D01*
X525082Y445665D01*
X525074Y445594D01*
X525067Y445565D01*
X523730Y442336D01*
X521264Y439870D01*
X518043Y438536D01*
X514557Y438536D01*
X511336Y439870D01*
X508870Y442336D01*
X507536Y445557D01*
X507536Y449043D01*
X508870Y452264D01*
X511336Y454730D01*
X514586Y456076D01*
X514641Y456077D01*
X514689Y456095D01*
X514741Y456103D01*
X514804Y456137D01*
X514872Y456162D01*
X514912Y456194D01*
X514958Y456219D01*
X515008Y456271D01*
X515064Y456315D01*
X515092Y456359D01*
X515128Y456397D01*
X515158Y456462D01*
X515197Y456522D01*
X515209Y456573D01*
X515231Y456620D01*
X515239Y456691D01*
X515257Y456761D01*
X515253Y456813D01*
X515258Y456864D01*
X515243Y456935D01*
X515237Y457006D01*
X515217Y457054D01*
X515206Y457105D01*
X515169Y457166D01*
X515141Y457232D01*
X515096Y457288D01*
X515080Y457316D01*
X515062Y457331D01*
X515036Y457363D01*
X354933Y617466D01*
X354859Y617519D01*
X354790Y617579D01*
X354760Y617591D01*
X354734Y617610D01*
X354647Y617637D01*
X354562Y617671D01*
X354521Y617675D01*
X354498Y617682D01*
X354466Y617681D01*
X354395Y617689D01*
X302338Y617689D01*
X302267Y617678D01*
X302195Y617676D01*
X302146Y617658D01*
X302095Y617650D01*
X302032Y617616D01*
X301964Y617591D01*
X301924Y617559D01*
X301878Y617534D01*
X301828Y617482D01*
X301772Y617438D01*
X301744Y617394D01*
X301708Y617356D01*
X301678Y617291D01*
X301639Y617231D01*
X301627Y617180D01*
X301605Y617133D01*
X301597Y617062D01*
X301579Y616992D01*
X301583Y616940D01*
X301578Y616889D01*
X301593Y616818D01*
X301598Y616747D01*
X301619Y616699D01*
X301630Y616648D01*
X301667Y616587D01*
X301695Y616521D01*
X301739Y616465D01*
X301756Y616437D01*
X301774Y616422D01*
X301799Y616390D01*
X456823Y461367D01*
X456896Y461314D01*
X456966Y461254D01*
X456996Y461242D01*
X457022Y461223D01*
X457109Y461196D01*
X457194Y461162D01*
X457235Y461158D01*
X457257Y461151D01*
X457290Y461152D01*
X457361Y461144D01*
X471234Y461144D01*
X479344Y453034D01*
X479344Y450372D01*
X479358Y450282D01*
X479366Y450191D01*
X479378Y450161D01*
X479383Y450129D01*
X479426Y450049D01*
X479462Y449965D01*
X479488Y449932D01*
X479499Y449912D01*
X479522Y449890D01*
X479567Y449834D01*
X480837Y448564D01*
X480895Y448522D01*
X480947Y448472D01*
X480994Y448450D01*
X481036Y448420D01*
X481105Y448399D01*
X481170Y448369D01*
X481222Y448363D01*
X481272Y448348D01*
X481343Y448350D01*
X481414Y448342D01*
X481465Y448353D01*
X481517Y448354D01*
X481585Y448379D01*
X481655Y448394D01*
X481700Y448421D01*
X481748Y448439D01*
X481804Y448483D01*
X481866Y448520D01*
X481900Y448560D01*
X481940Y448592D01*
X481979Y448653D01*
X482026Y448707D01*
X482045Y448755D01*
X482073Y448799D01*
X482091Y448869D01*
X482118Y448935D01*
X482126Y449006D01*
X482133Y449035D01*
X483470Y452264D01*
X485936Y454730D01*
X489157Y456064D01*
X492643Y456064D01*
X495864Y454730D01*
X498330Y452264D01*
X499664Y449043D01*
X499664Y445557D01*
X498330Y442336D01*
X495864Y439870D01*
X492614Y438524D01*
X492559Y438523D01*
X492511Y438505D01*
X492459Y438497D01*
X492396Y438463D01*
X492328Y438438D01*
X492288Y438406D01*
X492242Y438381D01*
X492192Y438329D01*
X492136Y438285D01*
X492108Y438241D01*
X492072Y438203D01*
X492042Y438138D01*
X492003Y438078D01*
X491991Y438027D01*
X491969Y437980D01*
X491961Y437909D01*
X491943Y437839D01*
X491947Y437787D01*
X491942Y437736D01*
X491957Y437665D01*
X491963Y437594D01*
X491983Y437546D01*
X491994Y437495D01*
X492031Y437434D01*
X492059Y437368D01*
X492104Y437312D01*
X492120Y437284D01*
X492138Y437269D01*
X492164Y437237D01*
X493434Y435967D01*
X493508Y435914D01*
X493577Y435854D01*
X493607Y435842D01*
X493633Y435823D01*
X493721Y435796D01*
X493805Y435762D01*
X493846Y435758D01*
X493869Y435751D01*
X493901Y435752D01*
X493972Y435744D01*
X496634Y435744D01*
X504744Y427634D01*
X504744Y413761D01*
X504759Y413671D01*
X504766Y413580D01*
X504778Y413550D01*
X504783Y413518D01*
X504826Y413437D01*
X504862Y413353D01*
X504888Y413321D01*
X504899Y413301D01*
X504922Y413278D01*
X504967Y413223D01*
X581325Y336865D01*
X581325Y247478D01*
X581328Y247458D01*
X581326Y247439D01*
X581348Y247337D01*
X581364Y247235D01*
X581374Y247218D01*
X581378Y247198D01*
X581431Y247109D01*
X581479Y247018D01*
X581494Y247004D01*
X581504Y246987D01*
X581583Y246920D01*
X581658Y246849D01*
X581676Y246840D01*
X581691Y246827D01*
X581787Y246788D01*
X581881Y246745D01*
X581901Y246743D01*
X581919Y246735D01*
X582086Y246717D01*
X685512Y246717D01*
X685602Y246732D01*
X685693Y246739D01*
X685723Y246751D01*
X685755Y246757D01*
X685836Y246799D01*
X685920Y246835D01*
X685952Y246861D01*
X685972Y246872D01*
X685995Y246895D01*
X686051Y246940D01*
X707166Y268056D01*
X707219Y268129D01*
X707279Y268199D01*
X707291Y268229D01*
X707310Y268255D01*
X707337Y268342D01*
X707371Y268427D01*
X707375Y268468D01*
X707382Y268490D01*
X707381Y268523D01*
X707389Y268594D01*
X707389Y280978D01*
X709622Y283211D01*
X712778Y283211D01*
X715011Y280978D01*
X715011Y265122D01*
X688985Y239095D01*
X575935Y239095D01*
G37*
%LPD*%
%LPC*%
G36*
X49222Y46989D02*
X49222Y46989D01*
X46989Y49222D01*
X46989Y197790D01*
X261036Y411837D01*
X261078Y411895D01*
X261128Y411947D01*
X261150Y411994D01*
X261180Y412036D01*
X261201Y412105D01*
X261231Y412170D01*
X261237Y412222D01*
X261252Y412272D01*
X261250Y412343D01*
X261258Y412414D01*
X261247Y412465D01*
X261246Y412517D01*
X261221Y412585D01*
X261206Y412655D01*
X261179Y412699D01*
X261161Y412748D01*
X261117Y412804D01*
X261080Y412866D01*
X261040Y412900D01*
X261008Y412940D01*
X260947Y412979D01*
X260893Y413026D01*
X260845Y413045D01*
X260801Y413073D01*
X260731Y413091D01*
X260665Y413118D01*
X260593Y413126D01*
X260565Y413133D01*
X257336Y414470D01*
X254870Y416936D01*
X253536Y420157D01*
X253536Y423643D01*
X254870Y426864D01*
X257336Y429330D01*
X260557Y430664D01*
X264043Y430664D01*
X267293Y429318D01*
X267333Y429280D01*
X267380Y429258D01*
X267422Y429228D01*
X267491Y429206D01*
X267556Y429176D01*
X267608Y429170D01*
X267657Y429155D01*
X267729Y429157D01*
X267800Y429149D01*
X267851Y429160D01*
X267903Y429161D01*
X267971Y429186D01*
X268041Y429201D01*
X268086Y429228D01*
X268134Y429246D01*
X268190Y429291D01*
X268252Y429328D01*
X268286Y429367D01*
X268326Y429400D01*
X268365Y429460D01*
X268412Y429514D01*
X268431Y429563D01*
X268459Y429606D01*
X268477Y429676D01*
X268504Y429743D01*
X268512Y429814D01*
X268520Y429845D01*
X268518Y429868D01*
X268522Y429909D01*
X268522Y433511D01*
X270977Y435967D01*
X279054Y444044D01*
X279123Y444138D01*
X279192Y444232D01*
X279194Y444238D01*
X279198Y444243D01*
X279232Y444355D01*
X279269Y444466D01*
X279268Y444472D01*
X279270Y444478D01*
X279267Y444595D01*
X279266Y444712D01*
X279264Y444719D01*
X279264Y444724D01*
X279258Y444742D01*
X279219Y444873D01*
X278936Y445557D01*
X278936Y449043D01*
X280270Y452264D01*
X282736Y454730D01*
X285957Y456064D01*
X289443Y456064D01*
X292664Y454730D01*
X295130Y452264D01*
X296464Y449043D01*
X296464Y445557D01*
X295130Y442336D01*
X292664Y439870D01*
X289443Y438536D01*
X285957Y438536D01*
X285273Y438819D01*
X285160Y438846D01*
X285046Y438875D01*
X285040Y438874D01*
X285034Y438876D01*
X284917Y438865D01*
X284801Y438856D01*
X284795Y438853D01*
X284789Y438853D01*
X284681Y438805D01*
X284575Y438759D01*
X284569Y438755D01*
X284564Y438753D01*
X284550Y438740D01*
X284444Y438654D01*
X276367Y430577D01*
X276314Y430504D01*
X276254Y430434D01*
X276242Y430404D01*
X276223Y430378D01*
X276196Y430291D01*
X276162Y430206D01*
X276158Y430165D01*
X276151Y430143D01*
X276152Y430110D01*
X276144Y430039D01*
X276144Y416166D01*
X54834Y194856D01*
X54781Y194782D01*
X54721Y194712D01*
X54709Y194682D01*
X54690Y194656D01*
X54663Y194569D01*
X54629Y194484D01*
X54625Y194443D01*
X54618Y194421D01*
X54619Y194389D01*
X54611Y194317D01*
X54611Y49222D01*
X52378Y46989D01*
X49222Y46989D01*
G37*
%LPD*%
%LPC*%
G36*
X457276Y388111D02*
X457276Y388111D01*
X455222Y388962D01*
X453650Y390534D01*
X452770Y392659D01*
X452736Y392715D01*
X452710Y392775D01*
X452658Y392840D01*
X452640Y392868D01*
X452625Y392880D01*
X452605Y392906D01*
X437677Y407833D01*
X437604Y407886D01*
X437534Y407946D01*
X437504Y407958D01*
X437478Y407977D01*
X437391Y408004D01*
X437306Y408038D01*
X437265Y408042D01*
X437243Y408049D01*
X437210Y408048D01*
X437139Y408056D01*
X434366Y408056D01*
X426256Y416166D01*
X426256Y418828D01*
X426242Y418918D01*
X426234Y419009D01*
X426222Y419039D01*
X426217Y419071D01*
X426174Y419151D01*
X426138Y419235D01*
X426112Y419268D01*
X426101Y419288D01*
X426078Y419310D01*
X426033Y419366D01*
X424763Y420636D01*
X424705Y420678D01*
X424653Y420728D01*
X424606Y420750D01*
X424564Y420780D01*
X424495Y420801D01*
X424430Y420831D01*
X424378Y420837D01*
X424328Y420852D01*
X424257Y420850D01*
X424186Y420858D01*
X424135Y420847D01*
X424083Y420846D01*
X424015Y420821D01*
X423945Y420806D01*
X423900Y420779D01*
X423852Y420761D01*
X423796Y420717D01*
X423734Y420680D01*
X423700Y420640D01*
X423660Y420608D01*
X423621Y420547D01*
X423574Y420493D01*
X423555Y420445D01*
X423527Y420401D01*
X423509Y420331D01*
X423482Y420265D01*
X423474Y420194D01*
X423467Y420165D01*
X422130Y416936D01*
X419664Y414470D01*
X416443Y413136D01*
X412957Y413136D01*
X409736Y414470D01*
X407270Y416936D01*
X405936Y420157D01*
X405936Y423643D01*
X407270Y426864D01*
X409736Y429330D01*
X412986Y430676D01*
X413041Y430677D01*
X413089Y430695D01*
X413141Y430703D01*
X413204Y430737D01*
X413272Y430762D01*
X413312Y430794D01*
X413358Y430819D01*
X413408Y430871D01*
X413464Y430915D01*
X413492Y430959D01*
X413528Y430997D01*
X413558Y431062D01*
X413597Y431122D01*
X413609Y431173D01*
X413631Y431220D01*
X413639Y431291D01*
X413657Y431361D01*
X413653Y431413D01*
X413658Y431464D01*
X413643Y431535D01*
X413637Y431606D01*
X413617Y431654D01*
X413606Y431705D01*
X413569Y431766D01*
X413541Y431832D01*
X413496Y431888D01*
X413480Y431916D01*
X413462Y431931D01*
X413436Y431963D01*
X412166Y433233D01*
X412092Y433286D01*
X412023Y433346D01*
X411993Y433358D01*
X411967Y433377D01*
X411879Y433404D01*
X411795Y433438D01*
X411754Y433442D01*
X411731Y433449D01*
X411699Y433448D01*
X411628Y433456D01*
X408966Y433456D01*
X406511Y435911D01*
X406510Y435912D01*
X399156Y443266D01*
X399082Y443319D01*
X399012Y443379D01*
X398982Y443391D01*
X398956Y443410D01*
X398869Y443437D01*
X398784Y443471D01*
X398743Y443475D01*
X398721Y443482D01*
X398689Y443481D01*
X398617Y443489D01*
X397716Y443489D01*
X397601Y443470D01*
X397485Y443453D01*
X397479Y443451D01*
X397473Y443450D01*
X397371Y443395D01*
X397266Y443342D01*
X397261Y443337D01*
X397256Y443334D01*
X397176Y443250D01*
X397094Y443166D01*
X397090Y443160D01*
X397086Y443156D01*
X397079Y443139D01*
X397013Y443019D01*
X396730Y442336D01*
X394264Y439870D01*
X391043Y438536D01*
X387557Y438536D01*
X384336Y439870D01*
X381870Y442336D01*
X380536Y445557D01*
X380536Y449043D01*
X381870Y452264D01*
X384336Y454730D01*
X387557Y456064D01*
X391043Y456064D01*
X394264Y454730D01*
X396730Y452264D01*
X397013Y451581D01*
X397075Y451481D01*
X397134Y451381D01*
X397139Y451377D01*
X397142Y451372D01*
X397233Y451297D01*
X397321Y451221D01*
X397327Y451219D01*
X397332Y451215D01*
X397440Y451173D01*
X397549Y451129D01*
X397557Y451128D01*
X397561Y451127D01*
X397580Y451126D01*
X397716Y451111D01*
X402090Y451111D01*
X404545Y448656D01*
X404545Y448655D01*
X404780Y448420D01*
X404876Y448352D01*
X404974Y448280D01*
X404977Y448279D01*
X404980Y448277D01*
X405093Y448242D01*
X405209Y448205D01*
X405212Y448205D01*
X405215Y448204D01*
X405336Y448208D01*
X405455Y448210D01*
X405458Y448211D01*
X405461Y448211D01*
X405575Y448252D01*
X405686Y448292D01*
X405689Y448294D01*
X405692Y448295D01*
X405785Y448370D01*
X405880Y448444D01*
X405881Y448447D01*
X405884Y448449D01*
X405949Y448550D01*
X406014Y448650D01*
X406015Y448654D01*
X406017Y448656D01*
X406020Y448667D01*
X406065Y448810D01*
X406273Y449856D01*
X406934Y451451D01*
X407893Y452887D01*
X409113Y454107D01*
X410549Y455066D01*
X412144Y455727D01*
X413177Y455932D01*
X413177Y448062D01*
X413180Y448042D01*
X413178Y448023D01*
X413200Y447921D01*
X413217Y447819D01*
X413226Y447802D01*
X413230Y447782D01*
X413283Y447693D01*
X413332Y447602D01*
X413346Y447588D01*
X413356Y447571D01*
X413435Y447504D01*
X413510Y447433D01*
X413528Y447424D01*
X413543Y447411D01*
X413639Y447373D01*
X413733Y447329D01*
X413753Y447327D01*
X413771Y447319D01*
X413938Y447301D01*
X414701Y447301D01*
X414701Y446538D01*
X414704Y446518D01*
X414702Y446499D01*
X414724Y446397D01*
X414741Y446295D01*
X414750Y446278D01*
X414754Y446258D01*
X414807Y446169D01*
X414856Y446078D01*
X414870Y446064D01*
X414880Y446047D01*
X414959Y445980D01*
X415034Y445909D01*
X415052Y445900D01*
X415067Y445887D01*
X415163Y445848D01*
X415257Y445805D01*
X415277Y445803D01*
X415295Y445795D01*
X415462Y445777D01*
X423332Y445777D01*
X423127Y444744D01*
X422466Y443149D01*
X421507Y441713D01*
X420287Y440493D01*
X418851Y439534D01*
X418343Y439323D01*
X418304Y439299D01*
X418261Y439283D01*
X418200Y439235D01*
X418134Y439194D01*
X418105Y439158D01*
X418069Y439130D01*
X418027Y439064D01*
X417977Y439004D01*
X417961Y438961D01*
X417936Y438923D01*
X417917Y438847D01*
X417889Y438775D01*
X417887Y438729D01*
X417876Y438684D01*
X417882Y438607D01*
X417879Y438529D01*
X417892Y438485D01*
X417895Y438439D01*
X417926Y438367D01*
X417947Y438293D01*
X417974Y438255D01*
X417991Y438213D01*
X418077Y438106D01*
X418088Y438091D01*
X418092Y438088D01*
X418096Y438082D01*
X430882Y425296D01*
X430919Y425270D01*
X430950Y425236D01*
X431018Y425198D01*
X431081Y425153D01*
X431125Y425139D01*
X431166Y425117D01*
X431242Y425103D01*
X431317Y425080D01*
X431362Y425082D01*
X431408Y425073D01*
X431485Y425085D01*
X431562Y425087D01*
X431606Y425103D01*
X431651Y425109D01*
X431720Y425145D01*
X431793Y425171D01*
X431829Y425200D01*
X431870Y425221D01*
X431925Y425276D01*
X431985Y425325D01*
X432010Y425364D01*
X432042Y425396D01*
X432108Y425516D01*
X432118Y425532D01*
X432120Y425537D01*
X432123Y425543D01*
X432670Y426864D01*
X435136Y429330D01*
X438357Y430664D01*
X441843Y430664D01*
X445064Y429330D01*
X447530Y426864D01*
X448864Y423643D01*
X448864Y420157D01*
X447530Y416936D01*
X445064Y414470D01*
X443822Y413956D01*
X443783Y413932D01*
X443740Y413916D01*
X443679Y413867D01*
X443613Y413826D01*
X443584Y413791D01*
X443548Y413762D01*
X443506Y413697D01*
X443456Y413637D01*
X443440Y413594D01*
X443415Y413555D01*
X443396Y413480D01*
X443368Y413407D01*
X443366Y413361D01*
X443355Y413317D01*
X443361Y413239D01*
X443357Y413161D01*
X443370Y413117D01*
X443374Y413072D01*
X443404Y413000D01*
X443426Y412925D01*
X443452Y412887D01*
X443470Y412845D01*
X443555Y412739D01*
X443566Y412723D01*
X443570Y412720D01*
X443575Y412714D01*
X456778Y399512D01*
X456851Y399459D01*
X456921Y399399D01*
X456951Y399387D01*
X456977Y399368D01*
X457064Y399341D01*
X457149Y399307D01*
X457190Y399303D01*
X457212Y399296D01*
X457245Y399297D01*
X457316Y399289D01*
X459500Y399289D01*
X461554Y398438D01*
X463126Y396866D01*
X463977Y394812D01*
X463977Y392588D01*
X463126Y390534D01*
X461554Y388962D01*
X459500Y388111D01*
X457276Y388111D01*
G37*
%LPD*%
%LPC*%
G36*
X252102Y854059D02*
X252102Y854059D01*
X248596Y855512D01*
X245912Y858196D01*
X244459Y861702D01*
X244459Y865498D01*
X245912Y869004D01*
X248596Y871688D01*
X252102Y873141D01*
X255898Y873141D01*
X259404Y871688D01*
X262088Y869004D01*
X263541Y865498D01*
X263541Y861702D01*
X262088Y858196D01*
X259404Y855512D01*
X255898Y854059D01*
X252102Y854059D01*
G37*
%LPD*%
%LPC*%
G36*
X226702Y854059D02*
X226702Y854059D01*
X223196Y855512D01*
X220512Y858196D01*
X219059Y861702D01*
X219059Y865498D01*
X220512Y869004D01*
X223196Y871688D01*
X226702Y873141D01*
X230498Y873141D01*
X234004Y871688D01*
X236688Y869004D01*
X238141Y865498D01*
X238141Y861702D01*
X236688Y858196D01*
X234004Y855512D01*
X230498Y854059D01*
X226702Y854059D01*
G37*
%LPD*%
%LPC*%
G36*
X302902Y854059D02*
X302902Y854059D01*
X299396Y855512D01*
X296712Y858196D01*
X295259Y861702D01*
X295259Y865498D01*
X296712Y869004D01*
X299396Y871688D01*
X302902Y873141D01*
X306698Y873141D01*
X310204Y871688D01*
X312888Y869004D01*
X314341Y865498D01*
X314341Y861702D01*
X312888Y858196D01*
X310204Y855512D01*
X306698Y854059D01*
X302902Y854059D01*
G37*
%LPD*%
%LPC*%
G36*
X277502Y854059D02*
X277502Y854059D01*
X273996Y855512D01*
X271312Y858196D01*
X269859Y861702D01*
X269859Y865498D01*
X271312Y869004D01*
X273996Y871688D01*
X277502Y873141D01*
X281298Y873141D01*
X284804Y871688D01*
X287488Y869004D01*
X288941Y865498D01*
X288941Y861702D01*
X287488Y858196D01*
X284804Y855512D01*
X281298Y854059D01*
X277502Y854059D01*
G37*
%LPD*%
%LPC*%
G36*
X175902Y41259D02*
X175902Y41259D01*
X172396Y42712D01*
X169712Y45396D01*
X168259Y48902D01*
X168259Y52698D01*
X169712Y56204D01*
X172396Y58888D01*
X175902Y60341D01*
X179698Y60341D01*
X183204Y58888D01*
X185888Y56204D01*
X187341Y52698D01*
X187341Y48902D01*
X185888Y45396D01*
X183204Y42712D01*
X179698Y41259D01*
X175902Y41259D01*
G37*
%LPD*%
%LPC*%
G36*
X201302Y41259D02*
X201302Y41259D01*
X197796Y42712D01*
X195112Y45396D01*
X193659Y48902D01*
X193659Y52698D01*
X195112Y56204D01*
X197796Y58888D01*
X201302Y60341D01*
X205098Y60341D01*
X208604Y58888D01*
X211288Y56204D01*
X212741Y52698D01*
X212741Y48902D01*
X211288Y45396D01*
X208604Y42712D01*
X205098Y41259D01*
X201302Y41259D01*
G37*
%LPD*%
%LPC*%
G36*
X226702Y41259D02*
X226702Y41259D01*
X223196Y42712D01*
X220512Y45396D01*
X219059Y48902D01*
X219059Y52698D01*
X220512Y56204D01*
X223196Y58888D01*
X226702Y60341D01*
X230498Y60341D01*
X234004Y58888D01*
X236688Y56204D01*
X238141Y52698D01*
X238141Y48902D01*
X236688Y45396D01*
X234004Y42712D01*
X230498Y41259D01*
X226702Y41259D01*
G37*
%LPD*%
%LPC*%
G36*
X252102Y41259D02*
X252102Y41259D01*
X248596Y42712D01*
X245912Y45396D01*
X244459Y48902D01*
X244459Y52698D01*
X245912Y56204D01*
X248596Y58888D01*
X252102Y60341D01*
X255898Y60341D01*
X259404Y58888D01*
X262088Y56204D01*
X263541Y52698D01*
X263541Y48902D01*
X262088Y45396D01*
X259404Y42712D01*
X255898Y41259D01*
X252102Y41259D01*
G37*
%LPD*%
%LPC*%
G36*
X133557Y692536D02*
X133557Y692536D01*
X130336Y693870D01*
X127870Y696336D01*
X126536Y699557D01*
X126536Y703043D01*
X127870Y706264D01*
X130336Y708730D01*
X133557Y710064D01*
X137043Y710064D01*
X140264Y708730D01*
X142730Y706264D01*
X144064Y703043D01*
X144064Y699557D01*
X142730Y696336D01*
X140264Y693870D01*
X137043Y692536D01*
X133557Y692536D01*
G37*
%LPD*%
%LPC*%
G36*
X285957Y692536D02*
X285957Y692536D01*
X282736Y693870D01*
X280270Y696336D01*
X278936Y699557D01*
X278936Y703043D01*
X280270Y706264D01*
X282736Y708730D01*
X285957Y710064D01*
X289443Y710064D01*
X292664Y708730D01*
X295130Y706264D01*
X296464Y703043D01*
X296464Y699557D01*
X295130Y696336D01*
X292664Y693870D01*
X289443Y692536D01*
X285957Y692536D01*
G37*
%LPD*%
%LPC*%
G36*
X565357Y692536D02*
X565357Y692536D01*
X562136Y693870D01*
X559670Y696336D01*
X558336Y699557D01*
X558336Y703043D01*
X559670Y706264D01*
X562136Y708730D01*
X565357Y710064D01*
X568843Y710064D01*
X572064Y708730D01*
X574530Y706264D01*
X575864Y703043D01*
X575864Y699557D01*
X574530Y696336D01*
X572064Y693870D01*
X568843Y692536D01*
X565357Y692536D01*
G37*
%LPD*%
%LPC*%
G36*
X311357Y692536D02*
X311357Y692536D01*
X308136Y693870D01*
X305670Y696336D01*
X304336Y699557D01*
X304336Y703043D01*
X305670Y706264D01*
X308136Y708730D01*
X311357Y710064D01*
X314843Y710064D01*
X318064Y708730D01*
X320530Y706264D01*
X321864Y703043D01*
X321864Y699557D01*
X320530Y696336D01*
X318064Y693870D01*
X314843Y692536D01*
X311357Y692536D01*
G37*
%LPD*%
%LPC*%
G36*
X336757Y692536D02*
X336757Y692536D01*
X333536Y693870D01*
X331070Y696336D01*
X329736Y699557D01*
X329736Y703043D01*
X331070Y706264D01*
X333536Y708730D01*
X336757Y710064D01*
X340243Y710064D01*
X343464Y708730D01*
X345930Y706264D01*
X347264Y703043D01*
X347264Y699557D01*
X345930Y696336D01*
X343464Y693870D01*
X340243Y692536D01*
X336757Y692536D01*
G37*
%LPD*%
%LPC*%
G36*
X362157Y692536D02*
X362157Y692536D01*
X358936Y693870D01*
X356470Y696336D01*
X355136Y699557D01*
X355136Y703043D01*
X356470Y706264D01*
X358936Y708730D01*
X362157Y710064D01*
X365643Y710064D01*
X368864Y708730D01*
X371330Y706264D01*
X372664Y703043D01*
X372664Y699557D01*
X371330Y696336D01*
X368864Y693870D01*
X365643Y692536D01*
X362157Y692536D01*
G37*
%LPD*%
%LPC*%
G36*
X387557Y692536D02*
X387557Y692536D01*
X384336Y693870D01*
X381870Y696336D01*
X380536Y699557D01*
X380536Y703043D01*
X381870Y706264D01*
X384336Y708730D01*
X387557Y710064D01*
X391043Y710064D01*
X394264Y708730D01*
X396730Y706264D01*
X398064Y703043D01*
X398064Y699557D01*
X396730Y696336D01*
X394264Y693870D01*
X391043Y692536D01*
X387557Y692536D01*
G37*
%LPD*%
%LPC*%
G36*
X438357Y692536D02*
X438357Y692536D01*
X435136Y693870D01*
X432670Y696336D01*
X431336Y699557D01*
X431336Y703043D01*
X432670Y706264D01*
X435136Y708730D01*
X438357Y710064D01*
X441843Y710064D01*
X445064Y708730D01*
X447530Y706264D01*
X448864Y703043D01*
X448864Y699557D01*
X447530Y696336D01*
X445064Y693870D01*
X441843Y692536D01*
X438357Y692536D01*
G37*
%LPD*%
%LPC*%
G36*
X412957Y692536D02*
X412957Y692536D01*
X409736Y693870D01*
X407270Y696336D01*
X405936Y699557D01*
X405936Y703043D01*
X407270Y706264D01*
X409736Y708730D01*
X412957Y710064D01*
X416443Y710064D01*
X419664Y708730D01*
X422130Y706264D01*
X423464Y703043D01*
X423464Y699557D01*
X422130Y696336D01*
X419664Y693870D01*
X416443Y692536D01*
X412957Y692536D01*
G37*
%LPD*%
%LPC*%
G36*
X514557Y692536D02*
X514557Y692536D01*
X511336Y693870D01*
X508870Y696336D01*
X507536Y699557D01*
X507536Y703043D01*
X508870Y706264D01*
X511336Y708730D01*
X514557Y710064D01*
X518043Y710064D01*
X521264Y708730D01*
X523730Y706264D01*
X525064Y703043D01*
X525064Y699557D01*
X523730Y696336D01*
X521264Y693870D01*
X518043Y692536D01*
X514557Y692536D01*
G37*
%LPD*%
%LPC*%
G36*
X184357Y692536D02*
X184357Y692536D01*
X181136Y693870D01*
X178670Y696336D01*
X177336Y699557D01*
X177336Y703043D01*
X178670Y706264D01*
X181136Y708730D01*
X184357Y710064D01*
X187843Y710064D01*
X191064Y708730D01*
X193530Y706264D01*
X194864Y703043D01*
X194864Y699557D01*
X193530Y696336D01*
X191064Y693870D01*
X187843Y692536D01*
X184357Y692536D01*
G37*
%LPD*%
%LPC*%
G36*
X158957Y692536D02*
X158957Y692536D01*
X155736Y693870D01*
X153270Y696336D01*
X151936Y699557D01*
X151936Y703043D01*
X153270Y706264D01*
X155736Y708730D01*
X158957Y710064D01*
X162443Y710064D01*
X165664Y708730D01*
X168130Y706264D01*
X169464Y703043D01*
X169464Y699557D01*
X168130Y696336D01*
X165664Y693870D01*
X162443Y692536D01*
X158957Y692536D01*
G37*
%LPD*%
%LPC*%
G36*
X489157Y692536D02*
X489157Y692536D01*
X485936Y693870D01*
X483470Y696336D01*
X482136Y699557D01*
X482136Y703043D01*
X483470Y706264D01*
X485936Y708730D01*
X489157Y710064D01*
X492643Y710064D01*
X495864Y708730D01*
X498330Y706264D01*
X499664Y703043D01*
X499664Y699557D01*
X498330Y696336D01*
X495864Y693870D01*
X492643Y692536D01*
X489157Y692536D01*
G37*
%LPD*%
%LPC*%
G36*
X463757Y692536D02*
X463757Y692536D01*
X460536Y693870D01*
X458070Y696336D01*
X456736Y699557D01*
X456736Y703043D01*
X458070Y706264D01*
X460536Y708730D01*
X463757Y710064D01*
X467243Y710064D01*
X470464Y708730D01*
X472930Y706264D01*
X474264Y703043D01*
X474264Y699557D01*
X472930Y696336D01*
X470464Y693870D01*
X467243Y692536D01*
X463757Y692536D01*
G37*
%LPD*%
%LPC*%
G36*
X158957Y667136D02*
X158957Y667136D01*
X155736Y668470D01*
X153270Y670936D01*
X151936Y674157D01*
X151936Y677643D01*
X153270Y680864D01*
X155736Y683330D01*
X158957Y684664D01*
X162443Y684664D01*
X165664Y683330D01*
X168130Y680864D01*
X169464Y677643D01*
X169464Y674157D01*
X168130Y670936D01*
X165664Y668470D01*
X162443Y667136D01*
X158957Y667136D01*
G37*
%LPD*%
%LPC*%
G36*
X565357Y667136D02*
X565357Y667136D01*
X562136Y668470D01*
X559670Y670936D01*
X558336Y674157D01*
X558336Y677643D01*
X559670Y680864D01*
X562136Y683330D01*
X565357Y684664D01*
X568843Y684664D01*
X572064Y683330D01*
X574530Y680864D01*
X575864Y677643D01*
X575864Y674157D01*
X574530Y670936D01*
X572064Y668470D01*
X568843Y667136D01*
X565357Y667136D01*
G37*
%LPD*%
%LPC*%
G36*
X539957Y667136D02*
X539957Y667136D01*
X536736Y668470D01*
X534270Y670936D01*
X532936Y674157D01*
X532936Y677643D01*
X534270Y680864D01*
X536736Y683330D01*
X539957Y684664D01*
X543443Y684664D01*
X546664Y683330D01*
X549130Y680864D01*
X550464Y677643D01*
X550464Y674157D01*
X549130Y670936D01*
X546664Y668470D01*
X543443Y667136D01*
X539957Y667136D01*
G37*
%LPD*%
%LPC*%
G36*
X133557Y667136D02*
X133557Y667136D01*
X130336Y668470D01*
X127870Y670936D01*
X126536Y674157D01*
X126536Y677643D01*
X127870Y680864D01*
X130336Y683330D01*
X133557Y684664D01*
X137043Y684664D01*
X140264Y683330D01*
X142730Y680864D01*
X144064Y677643D01*
X144064Y674157D01*
X142730Y670936D01*
X140264Y668470D01*
X137043Y667136D01*
X133557Y667136D01*
G37*
%LPD*%
%LPC*%
G36*
X184357Y667136D02*
X184357Y667136D01*
X181136Y668470D01*
X178670Y670936D01*
X177336Y674157D01*
X177336Y677643D01*
X178670Y680864D01*
X181136Y683330D01*
X184357Y684664D01*
X187843Y684664D01*
X191064Y683330D01*
X193530Y680864D01*
X194864Y677643D01*
X194864Y674157D01*
X193530Y670936D01*
X191064Y668470D01*
X187843Y667136D01*
X184357Y667136D01*
G37*
%LPD*%
%LPC*%
G36*
X209757Y438536D02*
X209757Y438536D01*
X206536Y439870D01*
X204070Y442336D01*
X202736Y445557D01*
X202736Y449043D01*
X204070Y452264D01*
X206536Y454730D01*
X209757Y456064D01*
X213243Y456064D01*
X216464Y454730D01*
X218930Y452264D01*
X220264Y449043D01*
X220264Y445557D01*
X218930Y442336D01*
X216464Y439870D01*
X213243Y438536D01*
X209757Y438536D01*
G37*
%LPD*%
%LPC*%
G36*
X184357Y438536D02*
X184357Y438536D01*
X181136Y439870D01*
X178670Y442336D01*
X177336Y445557D01*
X177336Y449043D01*
X178670Y452264D01*
X181136Y454730D01*
X184357Y456064D01*
X187843Y456064D01*
X191064Y454730D01*
X193530Y452264D01*
X194864Y449043D01*
X194864Y445557D01*
X193530Y442336D01*
X191064Y439870D01*
X187843Y438536D01*
X184357Y438536D01*
G37*
%LPD*%
%LPC*%
G36*
X158957Y438536D02*
X158957Y438536D01*
X155736Y439870D01*
X153270Y442336D01*
X151936Y445557D01*
X151936Y449043D01*
X153270Y452264D01*
X155736Y454730D01*
X158957Y456064D01*
X162443Y456064D01*
X165664Y454730D01*
X168130Y452264D01*
X169464Y449043D01*
X169464Y445557D01*
X168130Y442336D01*
X165664Y439870D01*
X162443Y438536D01*
X158957Y438536D01*
G37*
%LPD*%
%LPC*%
G36*
X133557Y438536D02*
X133557Y438536D01*
X130336Y439870D01*
X127870Y442336D01*
X126536Y445557D01*
X126536Y449043D01*
X127870Y452264D01*
X130336Y454730D01*
X133557Y456064D01*
X137043Y456064D01*
X140264Y454730D01*
X142730Y452264D01*
X144064Y449043D01*
X144064Y445557D01*
X142730Y442336D01*
X140264Y439870D01*
X137043Y438536D01*
X133557Y438536D01*
G37*
%LPD*%
%LPC*%
G36*
X235157Y438536D02*
X235157Y438536D01*
X231936Y439870D01*
X229470Y442336D01*
X228136Y445557D01*
X228136Y449043D01*
X229470Y452264D01*
X231936Y454730D01*
X235157Y456064D01*
X238643Y456064D01*
X241864Y454730D01*
X244330Y452264D01*
X245664Y449043D01*
X245664Y445557D01*
X244330Y442336D01*
X241864Y439870D01*
X238643Y438536D01*
X235157Y438536D01*
G37*
%LPD*%
%LPC*%
G36*
X260557Y438536D02*
X260557Y438536D01*
X257336Y439870D01*
X254870Y442336D01*
X253536Y445557D01*
X253536Y449043D01*
X254870Y452264D01*
X257336Y454730D01*
X260557Y456064D01*
X264043Y456064D01*
X267264Y454730D01*
X269730Y452264D01*
X271064Y449043D01*
X271064Y445557D01*
X269730Y442336D01*
X267264Y439870D01*
X264043Y438536D01*
X260557Y438536D01*
G37*
%LPD*%
%LPC*%
G36*
X336757Y438536D02*
X336757Y438536D01*
X333536Y439870D01*
X331070Y442336D01*
X329736Y445557D01*
X329736Y449043D01*
X331070Y452264D01*
X333536Y454730D01*
X336757Y456064D01*
X340243Y456064D01*
X343464Y454730D01*
X345930Y452264D01*
X347264Y449043D01*
X347264Y445557D01*
X345930Y442336D01*
X343464Y439870D01*
X340243Y438536D01*
X336757Y438536D01*
G37*
%LPD*%
%LPC*%
G36*
X362157Y438536D02*
X362157Y438536D01*
X358936Y439870D01*
X356470Y442336D01*
X355136Y445557D01*
X355136Y449043D01*
X356470Y452264D01*
X358936Y454730D01*
X362157Y456064D01*
X365643Y456064D01*
X368864Y454730D01*
X371330Y452264D01*
X372664Y449043D01*
X372664Y445557D01*
X371330Y442336D01*
X368864Y439870D01*
X365643Y438536D01*
X362157Y438536D01*
G37*
%LPD*%
%LPC*%
G36*
X311357Y438536D02*
X311357Y438536D01*
X308136Y439870D01*
X305670Y442336D01*
X304336Y445557D01*
X304336Y449043D01*
X305670Y452264D01*
X308136Y454730D01*
X311357Y456064D01*
X314843Y456064D01*
X318064Y454730D01*
X320530Y452264D01*
X321864Y449043D01*
X321864Y445557D01*
X320530Y442336D01*
X318064Y439870D01*
X314843Y438536D01*
X311357Y438536D01*
G37*
%LPD*%
%LPC*%
G36*
X565357Y438536D02*
X565357Y438536D01*
X562136Y439870D01*
X559670Y442336D01*
X558336Y445557D01*
X558336Y449043D01*
X559670Y452264D01*
X562136Y454730D01*
X565357Y456064D01*
X568843Y456064D01*
X572064Y454730D01*
X574530Y452264D01*
X575864Y449043D01*
X575864Y445557D01*
X574530Y442336D01*
X572064Y439870D01*
X568843Y438536D01*
X565357Y438536D01*
G37*
%LPD*%
%LPC*%
G36*
X438357Y438536D02*
X438357Y438536D01*
X435136Y439870D01*
X432670Y442336D01*
X431336Y445557D01*
X431336Y449043D01*
X432670Y452264D01*
X435136Y454730D01*
X438357Y456064D01*
X441843Y456064D01*
X445064Y454730D01*
X447530Y452264D01*
X448864Y449043D01*
X448864Y445557D01*
X447530Y442336D01*
X445064Y439870D01*
X441843Y438536D01*
X438357Y438536D01*
G37*
%LPD*%
%LPC*%
G36*
X387557Y413136D02*
X387557Y413136D01*
X384336Y414470D01*
X381870Y416936D01*
X380536Y420157D01*
X380536Y423643D01*
X381870Y426864D01*
X384336Y429330D01*
X387557Y430664D01*
X391043Y430664D01*
X394264Y429330D01*
X396730Y426864D01*
X398064Y423643D01*
X398064Y420157D01*
X396730Y416936D01*
X394264Y414470D01*
X391043Y413136D01*
X387557Y413136D01*
G37*
%LPD*%
%LPC*%
G36*
X285957Y413136D02*
X285957Y413136D01*
X282736Y414470D01*
X280270Y416936D01*
X278936Y420157D01*
X278936Y423643D01*
X280270Y426864D01*
X282736Y429330D01*
X285957Y430664D01*
X289443Y430664D01*
X292664Y429330D01*
X295130Y426864D01*
X296464Y423643D01*
X296464Y420157D01*
X295130Y416936D01*
X292664Y414470D01*
X289443Y413136D01*
X285957Y413136D01*
G37*
%LPD*%
%LPC*%
G36*
X311357Y413136D02*
X311357Y413136D01*
X308136Y414470D01*
X305670Y416936D01*
X304336Y420157D01*
X304336Y423643D01*
X305670Y426864D01*
X308136Y429330D01*
X311357Y430664D01*
X314843Y430664D01*
X318064Y429330D01*
X320530Y426864D01*
X321864Y423643D01*
X321864Y420157D01*
X320530Y416936D01*
X318064Y414470D01*
X314843Y413136D01*
X311357Y413136D01*
G37*
%LPD*%
%LPC*%
G36*
X336757Y413136D02*
X336757Y413136D01*
X333536Y414470D01*
X331070Y416936D01*
X329736Y420157D01*
X329736Y423643D01*
X331070Y426864D01*
X333536Y429330D01*
X336757Y430664D01*
X340243Y430664D01*
X343464Y429330D01*
X345930Y426864D01*
X347264Y423643D01*
X347264Y420157D01*
X345930Y416936D01*
X343464Y414470D01*
X340243Y413136D01*
X336757Y413136D01*
G37*
%LPD*%
%LPC*%
G36*
X514557Y413136D02*
X514557Y413136D01*
X511336Y414470D01*
X508870Y416936D01*
X507536Y420157D01*
X507536Y423643D01*
X508870Y426864D01*
X511336Y429330D01*
X514557Y430664D01*
X518043Y430664D01*
X521264Y429330D01*
X523730Y426864D01*
X525064Y423643D01*
X525064Y420157D01*
X523730Y416936D01*
X521264Y414470D01*
X518043Y413136D01*
X514557Y413136D01*
G37*
%LPD*%
%LPC*%
G36*
X235157Y413136D02*
X235157Y413136D01*
X231936Y414470D01*
X229470Y416936D01*
X228136Y420157D01*
X228136Y423643D01*
X229470Y426864D01*
X231936Y429330D01*
X235157Y430664D01*
X238643Y430664D01*
X241864Y429330D01*
X244330Y426864D01*
X245664Y423643D01*
X245664Y420157D01*
X244330Y416936D01*
X241864Y414470D01*
X238643Y413136D01*
X235157Y413136D01*
G37*
%LPD*%
%LPC*%
G36*
X209757Y413136D02*
X209757Y413136D01*
X206536Y414470D01*
X204070Y416936D01*
X202736Y420157D01*
X202736Y423643D01*
X204070Y426864D01*
X206536Y429330D01*
X209757Y430664D01*
X213243Y430664D01*
X216464Y429330D01*
X218930Y426864D01*
X220264Y423643D01*
X220264Y420157D01*
X218930Y416936D01*
X216464Y414470D01*
X213243Y413136D01*
X209757Y413136D01*
G37*
%LPD*%
%LPC*%
G36*
X184357Y413136D02*
X184357Y413136D01*
X181136Y414470D01*
X178670Y416936D01*
X177336Y420157D01*
X177336Y423643D01*
X178670Y426864D01*
X181136Y429330D01*
X184357Y430664D01*
X187843Y430664D01*
X191064Y429330D01*
X193530Y426864D01*
X194864Y423643D01*
X194864Y420157D01*
X193530Y416936D01*
X191064Y414470D01*
X187843Y413136D01*
X184357Y413136D01*
G37*
%LPD*%
%LPC*%
G36*
X158957Y413136D02*
X158957Y413136D01*
X155736Y414470D01*
X153270Y416936D01*
X151936Y420157D01*
X151936Y423643D01*
X153270Y426864D01*
X155736Y429330D01*
X158957Y430664D01*
X162443Y430664D01*
X165664Y429330D01*
X168130Y426864D01*
X169464Y423643D01*
X169464Y420157D01*
X168130Y416936D01*
X165664Y414470D01*
X162443Y413136D01*
X158957Y413136D01*
G37*
%LPD*%
%LPC*%
G36*
X133557Y413136D02*
X133557Y413136D01*
X130336Y414470D01*
X127870Y416936D01*
X126536Y420157D01*
X126536Y423643D01*
X127870Y426864D01*
X130336Y429330D01*
X133557Y430664D01*
X137043Y430664D01*
X140264Y429330D01*
X142730Y426864D01*
X144064Y423643D01*
X144064Y420157D01*
X142730Y416936D01*
X140264Y414470D01*
X137043Y413136D01*
X133557Y413136D01*
G37*
%LPD*%
%LPC*%
G36*
X463757Y413136D02*
X463757Y413136D01*
X460536Y414470D01*
X458070Y416936D01*
X456736Y420157D01*
X456736Y423643D01*
X458070Y426864D01*
X460536Y429330D01*
X463757Y430664D01*
X467243Y430664D01*
X470464Y429330D01*
X472930Y426864D01*
X474264Y423643D01*
X474264Y420157D01*
X472930Y416936D01*
X470464Y414470D01*
X467243Y413136D01*
X463757Y413136D01*
G37*
%LPD*%
%LPC*%
G36*
X362157Y413136D02*
X362157Y413136D01*
X358936Y414470D01*
X356470Y416936D01*
X355136Y420157D01*
X355136Y423643D01*
X356470Y426864D01*
X358936Y429330D01*
X362157Y430664D01*
X365643Y430664D01*
X368864Y429330D01*
X371330Y426864D01*
X372664Y423643D01*
X372664Y420157D01*
X371330Y416936D01*
X368864Y414470D01*
X365643Y413136D01*
X362157Y413136D01*
G37*
%LPD*%
%LPC*%
G36*
X204723Y865123D02*
X204723Y865123D01*
X204723Y873025D01*
X205983Y872774D01*
X207719Y872055D01*
X209282Y871011D01*
X210611Y869682D01*
X211655Y868119D01*
X212374Y866383D01*
X212625Y865123D01*
X204723Y865123D01*
G37*
%LPD*%
%LPC*%
G36*
X153923Y52323D02*
X153923Y52323D01*
X153923Y60225D01*
X155183Y59974D01*
X156919Y59255D01*
X158482Y58211D01*
X159811Y56882D01*
X160855Y55319D01*
X161574Y53583D01*
X161825Y52323D01*
X153923Y52323D01*
G37*
%LPD*%
%LPC*%
G36*
X204723Y862077D02*
X204723Y862077D01*
X212625Y862077D01*
X212374Y860817D01*
X211655Y859081D01*
X210611Y857518D01*
X209282Y856189D01*
X207719Y855145D01*
X205983Y854426D01*
X204723Y854175D01*
X204723Y862077D01*
G37*
%LPD*%
%LPC*%
G36*
X193775Y865123D02*
X193775Y865123D01*
X194026Y866383D01*
X194745Y868119D01*
X195789Y869682D01*
X197118Y871011D01*
X198681Y872055D01*
X200417Y872774D01*
X201677Y873025D01*
X201677Y865123D01*
X193775Y865123D01*
G37*
%LPD*%
%LPC*%
G36*
X142975Y52323D02*
X142975Y52323D01*
X143226Y53583D01*
X143945Y55319D01*
X144989Y56882D01*
X146318Y58211D01*
X147881Y59255D01*
X149617Y59974D01*
X150877Y60225D01*
X150877Y52323D01*
X142975Y52323D01*
G37*
%LPD*%
%LPC*%
G36*
X153923Y49277D02*
X153923Y49277D01*
X161825Y49277D01*
X161574Y48017D01*
X160855Y46281D01*
X159811Y44718D01*
X158482Y43389D01*
X156919Y42345D01*
X155183Y41626D01*
X153923Y41375D01*
X153923Y49277D01*
G37*
%LPD*%
%LPC*%
G36*
X200417Y854426D02*
X200417Y854426D01*
X198681Y855145D01*
X197118Y856189D01*
X195789Y857518D01*
X194745Y859081D01*
X194026Y860817D01*
X193775Y862077D01*
X201677Y862077D01*
X201677Y854175D01*
X200417Y854426D01*
G37*
%LPD*%
%LPC*%
G36*
X149617Y41626D02*
X149617Y41626D01*
X147881Y42345D01*
X146318Y43389D01*
X144989Y44718D01*
X143945Y46281D01*
X143226Y48017D01*
X142975Y49277D01*
X150877Y49277D01*
X150877Y41375D01*
X149617Y41626D01*
G37*
%LPD*%
%LPC*%
G36*
X416223Y448823D02*
X416223Y448823D01*
X416223Y455932D01*
X417256Y455727D01*
X418851Y455066D01*
X420287Y454107D01*
X421507Y452887D01*
X422466Y451451D01*
X423127Y449856D01*
X423332Y448823D01*
X416223Y448823D01*
G37*
%LPD*%
%LPC*%
G36*
X289223Y677423D02*
X289223Y677423D01*
X289223Y684532D01*
X290256Y684327D01*
X291851Y683666D01*
X293287Y682707D01*
X294507Y681487D01*
X295466Y680051D01*
X296127Y678456D01*
X296332Y677423D01*
X289223Y677423D01*
G37*
%LPD*%
%LPC*%
G36*
X203199Y863599D02*
X203199Y863599D01*
X203199Y863601D01*
X203201Y863601D01*
X203201Y863599D01*
X203199Y863599D01*
G37*
%LPD*%
%LPC*%
G36*
X152399Y50799D02*
X152399Y50799D01*
X152399Y50801D01*
X152401Y50801D01*
X152401Y50799D01*
X152399Y50799D01*
G37*
%LPD*%
D10*
X135300Y701300D03*
X135300Y675900D03*
X160700Y701300D03*
X160700Y675900D03*
X186100Y701300D03*
X186100Y675900D03*
X211500Y701300D03*
X211500Y675900D03*
X236900Y701300D03*
X236900Y675900D03*
X262300Y701300D03*
X262300Y675900D03*
X287700Y701300D03*
X287700Y675900D03*
X313100Y701300D03*
X313100Y675900D03*
X338500Y701300D03*
X338500Y675900D03*
X363900Y701300D03*
X363900Y675900D03*
X389300Y701300D03*
X389300Y675900D03*
X414700Y701300D03*
X414700Y675900D03*
X440100Y701300D03*
X440100Y675900D03*
X465500Y701300D03*
X465500Y675900D03*
X490900Y701300D03*
X490900Y675900D03*
X516300Y701300D03*
X516300Y675900D03*
X541700Y701300D03*
X541700Y675900D03*
X567100Y701300D03*
X567100Y675900D03*
X135300Y447300D03*
X135300Y421900D03*
X160700Y447300D03*
X160700Y421900D03*
X186100Y447300D03*
X186100Y421900D03*
X211500Y447300D03*
X211500Y421900D03*
X236900Y447300D03*
X236900Y421900D03*
X262300Y447300D03*
X262300Y421900D03*
X287700Y447300D03*
X287700Y421900D03*
X313100Y447300D03*
X313100Y421900D03*
X338500Y447300D03*
X338500Y421900D03*
X363900Y447300D03*
X363900Y421900D03*
X389300Y447300D03*
X389300Y421900D03*
X414700Y447300D03*
X414700Y421900D03*
X440100Y447300D03*
X440100Y421900D03*
X465500Y447300D03*
X465500Y421900D03*
X490900Y447300D03*
X490900Y421900D03*
X516300Y447300D03*
X516300Y421900D03*
X541700Y447300D03*
X541700Y421900D03*
X567100Y447300D03*
X567100Y421900D03*
D11*
X203200Y863600D03*
X228600Y863600D03*
X254000Y863600D03*
X279400Y863600D03*
X304800Y863600D03*
X152400Y50800D03*
X177800Y50800D03*
X203200Y50800D03*
X228600Y50800D03*
X254000Y50800D03*
D12*
X435944Y411867D02*
X430067Y417744D01*
X435944Y411867D02*
X439033Y411867D01*
X457200Y393700D01*
X400511Y447300D02*
X389300Y447300D01*
X410544Y437267D02*
X413522Y437267D01*
X430067Y420722D01*
X430067Y417744D01*
X410544Y437267D02*
X400511Y447300D01*
X457200Y393700D02*
X458388Y393700D01*
D13*
X458388Y393700D03*
D12*
X316700Y570700D02*
X211500Y675900D01*
X226867Y671744D02*
X226867Y680056D01*
X232744Y685933D01*
X241056Y685933D01*
X246933Y680056D01*
X316700Y581911D02*
X316700Y570700D01*
X246933Y677078D02*
X246933Y680056D01*
X246933Y677078D02*
X302511Y621500D01*
X356289Y621500D01*
X531667Y446122D01*
X531667Y443144D01*
X316700Y581911D02*
X226867Y671744D01*
X658692Y321201D02*
X668415Y311478D01*
X658692Y321201D02*
X653611Y321201D01*
X531667Y443144D01*
D13*
X668415Y311478D03*
D12*
X577514Y330200D02*
X577514Y333797D01*
X577514Y330200D02*
X577514Y242906D01*
X687406Y242906D01*
X711200Y266700D01*
X711200Y279400D01*
X577514Y333797D02*
X577514Y335286D01*
X475533Y451456D02*
X469656Y457333D01*
X495056Y431933D02*
X500933Y426056D01*
X455467Y457333D02*
X236900Y675900D01*
X500933Y411867D02*
X577514Y335286D01*
X469656Y457333D02*
X455467Y457333D01*
X500933Y426056D02*
X500933Y411867D01*
X475533Y448478D02*
X475533Y451456D01*
X475533Y448478D02*
X492078Y431933D01*
X495056Y431933D01*
X417500Y444500D02*
X414700Y447300D01*
X689510Y237826D02*
X716280Y264596D01*
X716280Y294204D02*
X713304Y297180D01*
X689510Y237826D02*
X575410Y237826D01*
X716280Y264596D02*
X716280Y294204D01*
X713304Y297180D02*
X696396Y297180D01*
X428711Y444500D02*
X417500Y444500D01*
X428711Y444500D02*
X435944Y437267D01*
X464322Y437267D02*
X480867Y420722D01*
X464322Y437267D02*
X435944Y437267D01*
X480867Y420722D02*
X480867Y332369D01*
X575410Y237826D01*
X693420Y294204D02*
X696396Y297180D01*
X693420Y294204D02*
X675204Y294204D01*
X673100Y292100D01*
X520456Y665867D02*
X526333Y671744D01*
X201467Y671744D02*
X201467Y680056D01*
X201467Y671744D02*
X207344Y665867D01*
X526333Y685933D02*
X541700Y701300D01*
X526333Y685933D02*
X526333Y671744D01*
X210433Y665867D02*
X207344Y665867D01*
X210433Y665867D02*
X355600Y520700D01*
X283544Y665867D02*
X520456Y665867D01*
X283544Y665867D02*
X272333Y677078D01*
X272333Y680056D01*
X261376Y691013D01*
X212424Y691013D01*
X201467Y680056D01*
D13*
X355600Y520700D03*
D12*
X287700Y447300D02*
X272333Y431933D01*
X272333Y417744D01*
X50800Y196211D02*
X50800Y50800D01*
X50800Y196211D02*
X272333Y417744D01*
M02*
