G04 EAGLE Gerber RS-274X export*
G75*
%MOMM*%
%FSLAX34Y34*%
%LPD*%
%INSilkscreen Top*%
%IPPOS*%
%AMOC8*
5,1,8,0,0,1.08239X$1,22.5*%
G01*
%ADD10C,0.203200*%
%ADD11C,0.127000*%
%ADD12C,0.152400*%
%ADD13C,0.100000*%
%ADD14C,0.101600*%
%ADD15C,0.500000*%


D10*
X740212Y849884D02*
X740212Y826516D01*
X737616Y826516D02*
X742809Y826516D01*
X742809Y849884D02*
X737616Y849884D01*
X755594Y826516D02*
X760786Y826516D01*
X755594Y826516D02*
X755451Y826518D01*
X755308Y826524D01*
X755165Y826534D01*
X755023Y826548D01*
X754881Y826565D01*
X754739Y826587D01*
X754598Y826612D01*
X754458Y826642D01*
X754319Y826675D01*
X754181Y826712D01*
X754044Y826753D01*
X753908Y826797D01*
X753773Y826846D01*
X753640Y826898D01*
X753508Y826953D01*
X753378Y827013D01*
X753249Y827076D01*
X753122Y827142D01*
X752998Y827212D01*
X752875Y827285D01*
X752754Y827362D01*
X752635Y827442D01*
X752519Y827525D01*
X752404Y827611D01*
X752293Y827700D01*
X752183Y827793D01*
X752077Y827888D01*
X751973Y827987D01*
X751872Y828088D01*
X751773Y828192D01*
X751678Y828298D01*
X751585Y828408D01*
X751496Y828519D01*
X751410Y828634D01*
X751327Y828750D01*
X751247Y828869D01*
X751170Y828990D01*
X751097Y829113D01*
X751027Y829237D01*
X750961Y829364D01*
X750898Y829493D01*
X750838Y829623D01*
X750783Y829755D01*
X750731Y829888D01*
X750682Y830023D01*
X750638Y830159D01*
X750597Y830296D01*
X750560Y830434D01*
X750527Y830573D01*
X750497Y830713D01*
X750472Y830854D01*
X750450Y830996D01*
X750433Y831138D01*
X750419Y831280D01*
X750409Y831423D01*
X750403Y831566D01*
X750401Y831709D01*
X750401Y844691D01*
X750403Y844834D01*
X750409Y844977D01*
X750419Y845120D01*
X750433Y845262D01*
X750450Y845404D01*
X750472Y845546D01*
X750497Y845687D01*
X750527Y845827D01*
X750560Y845966D01*
X750597Y846104D01*
X750638Y846241D01*
X750682Y846377D01*
X750731Y846512D01*
X750783Y846645D01*
X750838Y846777D01*
X750898Y846907D01*
X750961Y847036D01*
X751027Y847163D01*
X751097Y847287D01*
X751170Y847410D01*
X751247Y847531D01*
X751327Y847650D01*
X751410Y847766D01*
X751496Y847881D01*
X751585Y847992D01*
X751678Y848102D01*
X751773Y848208D01*
X751872Y848312D01*
X751973Y848413D01*
X752077Y848512D01*
X752183Y848607D01*
X752293Y848700D01*
X752404Y848789D01*
X752519Y848875D01*
X752635Y848958D01*
X752754Y849038D01*
X752875Y849115D01*
X752997Y849188D01*
X753122Y849258D01*
X753249Y849324D01*
X753378Y849387D01*
X753508Y849447D01*
X753640Y849502D01*
X753773Y849554D01*
X753908Y849603D01*
X754044Y849647D01*
X754181Y849688D01*
X754319Y849725D01*
X754458Y849758D01*
X754598Y849788D01*
X754739Y849813D01*
X754881Y849835D01*
X755023Y849852D01*
X755165Y849866D01*
X755308Y849876D01*
X755451Y849882D01*
X755594Y849884D01*
X760786Y849884D01*
X766525Y849884D02*
X774314Y838849D01*
X782104Y849884D01*
X774314Y838849D02*
X774314Y826516D01*
X789398Y826516D02*
X789398Y849884D01*
X789398Y839498D02*
X802380Y839498D01*
X802380Y849884D02*
X802380Y826516D01*
X810973Y833007D02*
X810973Y843393D01*
X810975Y843552D01*
X810981Y843711D01*
X810991Y843871D01*
X811004Y844029D01*
X811022Y844188D01*
X811043Y844345D01*
X811069Y844503D01*
X811098Y844659D01*
X811131Y844815D01*
X811168Y844970D01*
X811208Y845124D01*
X811253Y845277D01*
X811301Y845429D01*
X811352Y845580D01*
X811408Y845729D01*
X811467Y845877D01*
X811530Y846023D01*
X811596Y846168D01*
X811666Y846311D01*
X811739Y846453D01*
X811816Y846592D01*
X811896Y846730D01*
X811980Y846866D01*
X812067Y846999D01*
X812157Y847131D01*
X812250Y847260D01*
X812347Y847386D01*
X812446Y847511D01*
X812549Y847633D01*
X812654Y847752D01*
X812763Y847869D01*
X812874Y847983D01*
X812988Y848094D01*
X813105Y848203D01*
X813224Y848308D01*
X813346Y848411D01*
X813471Y848510D01*
X813597Y848607D01*
X813726Y848700D01*
X813858Y848790D01*
X813991Y848877D01*
X814127Y848961D01*
X814265Y849041D01*
X814404Y849118D01*
X814546Y849191D01*
X814689Y849261D01*
X814834Y849327D01*
X814980Y849390D01*
X815128Y849449D01*
X815277Y849505D01*
X815428Y849556D01*
X815580Y849604D01*
X815733Y849649D01*
X815887Y849689D01*
X816042Y849726D01*
X816198Y849759D01*
X816354Y849788D01*
X816512Y849814D01*
X816669Y849835D01*
X816828Y849853D01*
X816986Y849866D01*
X817146Y849876D01*
X817305Y849882D01*
X817464Y849884D01*
X817623Y849882D01*
X817782Y849876D01*
X817942Y849866D01*
X818100Y849853D01*
X818259Y849835D01*
X818416Y849814D01*
X818574Y849788D01*
X818730Y849759D01*
X818886Y849726D01*
X819041Y849689D01*
X819195Y849649D01*
X819348Y849604D01*
X819500Y849556D01*
X819651Y849505D01*
X819800Y849449D01*
X819948Y849390D01*
X820094Y849327D01*
X820239Y849261D01*
X820382Y849191D01*
X820524Y849118D01*
X820663Y849041D01*
X820801Y848961D01*
X820937Y848877D01*
X821070Y848790D01*
X821202Y848700D01*
X821331Y848607D01*
X821457Y848510D01*
X821582Y848411D01*
X821704Y848308D01*
X821823Y848203D01*
X821940Y848094D01*
X822054Y847983D01*
X822165Y847869D01*
X822274Y847752D01*
X822379Y847633D01*
X822482Y847511D01*
X822581Y847386D01*
X822678Y847260D01*
X822771Y847131D01*
X822861Y846999D01*
X822948Y846866D01*
X823032Y846730D01*
X823112Y846592D01*
X823189Y846453D01*
X823262Y846311D01*
X823332Y846168D01*
X823398Y846023D01*
X823461Y845877D01*
X823520Y845729D01*
X823576Y845580D01*
X823627Y845429D01*
X823675Y845277D01*
X823720Y845124D01*
X823760Y844970D01*
X823797Y844815D01*
X823830Y844659D01*
X823859Y844503D01*
X823885Y844345D01*
X823906Y844188D01*
X823924Y844029D01*
X823937Y843871D01*
X823947Y843711D01*
X823953Y843552D01*
X823955Y843393D01*
X823955Y833007D01*
X823953Y832848D01*
X823947Y832689D01*
X823937Y832529D01*
X823924Y832371D01*
X823906Y832212D01*
X823885Y832055D01*
X823859Y831897D01*
X823830Y831741D01*
X823797Y831585D01*
X823760Y831430D01*
X823720Y831276D01*
X823675Y831123D01*
X823627Y830971D01*
X823576Y830820D01*
X823520Y830671D01*
X823461Y830523D01*
X823398Y830377D01*
X823332Y830232D01*
X823262Y830089D01*
X823189Y829947D01*
X823112Y829808D01*
X823032Y829670D01*
X822948Y829534D01*
X822861Y829401D01*
X822771Y829269D01*
X822678Y829140D01*
X822581Y829014D01*
X822482Y828889D01*
X822379Y828767D01*
X822274Y828648D01*
X822165Y828531D01*
X822054Y828417D01*
X821940Y828306D01*
X821823Y828197D01*
X821704Y828092D01*
X821582Y827989D01*
X821457Y827890D01*
X821331Y827793D01*
X821202Y827700D01*
X821070Y827610D01*
X820937Y827523D01*
X820801Y827439D01*
X820663Y827359D01*
X820524Y827282D01*
X820382Y827209D01*
X820239Y827139D01*
X820094Y827073D01*
X819948Y827010D01*
X819800Y826951D01*
X819651Y826895D01*
X819500Y826844D01*
X819348Y826796D01*
X819195Y826751D01*
X819041Y826711D01*
X818886Y826674D01*
X818730Y826641D01*
X818574Y826612D01*
X818416Y826586D01*
X818259Y826565D01*
X818100Y826547D01*
X817942Y826534D01*
X817782Y826524D01*
X817623Y826518D01*
X817464Y826516D01*
X817305Y826518D01*
X817146Y826524D01*
X816986Y826534D01*
X816828Y826547D01*
X816669Y826565D01*
X816512Y826586D01*
X816354Y826612D01*
X816198Y826641D01*
X816042Y826674D01*
X815887Y826711D01*
X815733Y826751D01*
X815580Y826796D01*
X815428Y826844D01*
X815277Y826895D01*
X815128Y826951D01*
X814980Y827010D01*
X814834Y827073D01*
X814689Y827139D01*
X814546Y827209D01*
X814404Y827282D01*
X814265Y827359D01*
X814127Y827439D01*
X813991Y827523D01*
X813858Y827610D01*
X813726Y827700D01*
X813597Y827793D01*
X813471Y827890D01*
X813346Y827989D01*
X813224Y828092D01*
X813105Y828197D01*
X812988Y828306D01*
X812874Y828417D01*
X812763Y828531D01*
X812654Y828648D01*
X812549Y828767D01*
X812446Y828889D01*
X812347Y829014D01*
X812250Y829140D01*
X812157Y829269D01*
X812067Y829401D01*
X811980Y829534D01*
X811896Y829670D01*
X811816Y829808D01*
X811739Y829947D01*
X811666Y830089D01*
X811596Y830232D01*
X811530Y830377D01*
X811467Y830523D01*
X811408Y830671D01*
X811352Y830820D01*
X811301Y830971D01*
X811253Y831123D01*
X811208Y831276D01*
X811168Y831430D01*
X811131Y831585D01*
X811098Y831741D01*
X811069Y831897D01*
X811043Y832055D01*
X811022Y832212D01*
X811004Y832371D01*
X810991Y832529D01*
X810981Y832689D01*
X810975Y832848D01*
X810973Y833007D01*
X836951Y826516D02*
X836951Y849884D01*
X830460Y849884D02*
X843442Y849884D01*
X737616Y811784D02*
X737616Y788416D01*
X737616Y811784D02*
X744107Y811784D01*
X744266Y811782D01*
X744425Y811776D01*
X744585Y811766D01*
X744743Y811753D01*
X744902Y811735D01*
X745059Y811714D01*
X745217Y811688D01*
X745373Y811659D01*
X745529Y811626D01*
X745684Y811589D01*
X745838Y811549D01*
X745991Y811504D01*
X746143Y811456D01*
X746294Y811405D01*
X746443Y811349D01*
X746591Y811290D01*
X746737Y811227D01*
X746882Y811161D01*
X747025Y811091D01*
X747167Y811018D01*
X747306Y810941D01*
X747444Y810861D01*
X747580Y810777D01*
X747713Y810690D01*
X747845Y810600D01*
X747974Y810507D01*
X748100Y810410D01*
X748225Y810311D01*
X748347Y810208D01*
X748466Y810103D01*
X748583Y809994D01*
X748697Y809883D01*
X748808Y809769D01*
X748917Y809652D01*
X749022Y809533D01*
X749125Y809411D01*
X749224Y809286D01*
X749321Y809160D01*
X749414Y809031D01*
X749504Y808899D01*
X749591Y808766D01*
X749675Y808630D01*
X749755Y808492D01*
X749832Y808353D01*
X749905Y808211D01*
X749975Y808068D01*
X750041Y807923D01*
X750104Y807777D01*
X750163Y807629D01*
X750219Y807480D01*
X750270Y807329D01*
X750318Y807177D01*
X750363Y807024D01*
X750403Y806870D01*
X750440Y806715D01*
X750473Y806559D01*
X750502Y806403D01*
X750528Y806245D01*
X750549Y806088D01*
X750567Y805929D01*
X750580Y805771D01*
X750590Y805611D01*
X750596Y805452D01*
X750598Y805293D01*
X750596Y805134D01*
X750590Y804975D01*
X750580Y804815D01*
X750567Y804657D01*
X750549Y804498D01*
X750528Y804341D01*
X750502Y804183D01*
X750473Y804027D01*
X750440Y803871D01*
X750403Y803716D01*
X750363Y803562D01*
X750318Y803409D01*
X750270Y803257D01*
X750219Y803106D01*
X750163Y802957D01*
X750104Y802809D01*
X750041Y802663D01*
X749975Y802518D01*
X749905Y802375D01*
X749832Y802233D01*
X749755Y802094D01*
X749675Y801956D01*
X749591Y801820D01*
X749504Y801687D01*
X749414Y801555D01*
X749321Y801426D01*
X749224Y801300D01*
X749125Y801175D01*
X749022Y801053D01*
X748917Y800934D01*
X748808Y800817D01*
X748697Y800703D01*
X748583Y800592D01*
X748466Y800483D01*
X748347Y800378D01*
X748225Y800275D01*
X748100Y800176D01*
X747974Y800079D01*
X747845Y799986D01*
X747713Y799896D01*
X747580Y799809D01*
X747444Y799725D01*
X747306Y799645D01*
X747167Y799568D01*
X747025Y799495D01*
X746882Y799425D01*
X746737Y799359D01*
X746591Y799296D01*
X746443Y799237D01*
X746294Y799181D01*
X746143Y799130D01*
X745991Y799082D01*
X745838Y799037D01*
X745684Y798997D01*
X745529Y798960D01*
X745373Y798927D01*
X745217Y798898D01*
X745059Y798872D01*
X744902Y798851D01*
X744743Y798833D01*
X744585Y798820D01*
X744425Y798810D01*
X744266Y798804D01*
X744107Y798802D01*
X737616Y798802D01*
X745405Y798802D02*
X750598Y788416D01*
X759151Y788416D02*
X769537Y788416D01*
X759151Y788416D02*
X759151Y811784D01*
X769537Y811784D01*
X766941Y801398D02*
X759151Y801398D01*
X775228Y811784D02*
X783017Y788416D01*
X790806Y811784D01*
X799720Y811784D02*
X799720Y788416D01*
X797124Y788416D02*
X802317Y788416D01*
X802317Y811784D02*
X797124Y811784D01*
X817025Y788416D02*
X817168Y788418D01*
X817311Y788424D01*
X817454Y788434D01*
X817596Y788448D01*
X817738Y788465D01*
X817880Y788487D01*
X818021Y788512D01*
X818161Y788542D01*
X818300Y788575D01*
X818438Y788612D01*
X818575Y788653D01*
X818711Y788697D01*
X818846Y788746D01*
X818979Y788798D01*
X819111Y788853D01*
X819241Y788913D01*
X819370Y788976D01*
X819497Y789042D01*
X819622Y789112D01*
X819744Y789185D01*
X819865Y789262D01*
X819984Y789342D01*
X820100Y789425D01*
X820215Y789511D01*
X820326Y789600D01*
X820436Y789693D01*
X820542Y789788D01*
X820646Y789887D01*
X820747Y789988D01*
X820846Y790092D01*
X820941Y790198D01*
X821034Y790308D01*
X821123Y790419D01*
X821209Y790534D01*
X821292Y790650D01*
X821372Y790769D01*
X821449Y790890D01*
X821522Y791013D01*
X821592Y791137D01*
X821658Y791264D01*
X821721Y791393D01*
X821781Y791523D01*
X821836Y791655D01*
X821888Y791788D01*
X821937Y791923D01*
X821981Y792059D01*
X822022Y792196D01*
X822059Y792334D01*
X822092Y792473D01*
X822122Y792613D01*
X822147Y792754D01*
X822169Y792896D01*
X822186Y793038D01*
X822200Y793180D01*
X822210Y793323D01*
X822216Y793466D01*
X822218Y793609D01*
X817025Y788416D02*
X816763Y788419D01*
X816500Y788429D01*
X816238Y788444D01*
X815977Y788466D01*
X815716Y788494D01*
X815456Y788529D01*
X815196Y788570D01*
X814938Y788616D01*
X814681Y788669D01*
X814425Y788729D01*
X814171Y788794D01*
X813918Y788865D01*
X813668Y788942D01*
X813419Y789026D01*
X813172Y789115D01*
X812927Y789210D01*
X812685Y789311D01*
X812445Y789418D01*
X812208Y789530D01*
X811974Y789648D01*
X811742Y789772D01*
X811514Y789901D01*
X811288Y790036D01*
X811066Y790176D01*
X810847Y790321D01*
X810632Y790471D01*
X810421Y790627D01*
X810213Y790787D01*
X810009Y790953D01*
X809810Y791123D01*
X809614Y791298D01*
X809423Y791477D01*
X809236Y791662D01*
X809885Y806591D02*
X809887Y806734D01*
X809893Y806877D01*
X809903Y807020D01*
X809917Y807162D01*
X809934Y807304D01*
X809956Y807446D01*
X809981Y807587D01*
X810011Y807727D01*
X810044Y807866D01*
X810081Y808004D01*
X810122Y808141D01*
X810166Y808277D01*
X810215Y808412D01*
X810267Y808545D01*
X810322Y808677D01*
X810382Y808807D01*
X810445Y808936D01*
X810511Y809063D01*
X810581Y809188D01*
X810654Y809310D01*
X810731Y809431D01*
X810811Y809550D01*
X810894Y809666D01*
X810980Y809781D01*
X811069Y809892D01*
X811162Y810002D01*
X811257Y810108D01*
X811356Y810212D01*
X811457Y810313D01*
X811561Y810412D01*
X811667Y810507D01*
X811777Y810600D01*
X811888Y810689D01*
X812003Y810775D01*
X812119Y810859D01*
X812238Y810938D01*
X812359Y811015D01*
X812482Y811088D01*
X812606Y811158D01*
X812733Y811224D01*
X812862Y811287D01*
X812992Y811347D01*
X813124Y811402D01*
X813257Y811454D01*
X813392Y811503D01*
X813528Y811547D01*
X813665Y811588D01*
X813803Y811625D01*
X813942Y811658D01*
X814082Y811688D01*
X814223Y811713D01*
X814365Y811735D01*
X814507Y811752D01*
X814649Y811766D01*
X814792Y811776D01*
X814935Y811782D01*
X815078Y811784D01*
X815310Y811781D01*
X815542Y811773D01*
X815774Y811759D01*
X816005Y811740D01*
X816236Y811715D01*
X816466Y811685D01*
X816695Y811649D01*
X816923Y811608D01*
X817151Y811561D01*
X817377Y811509D01*
X817602Y811451D01*
X817825Y811388D01*
X818047Y811320D01*
X818267Y811247D01*
X818485Y811168D01*
X818702Y811085D01*
X818916Y810996D01*
X819128Y810902D01*
X819338Y810803D01*
X819546Y810699D01*
X819750Y810590D01*
X819953Y810476D01*
X820152Y810357D01*
X820349Y810234D01*
X820542Y810106D01*
X820733Y809974D01*
X820920Y809837D01*
X812481Y802047D02*
X812358Y802122D01*
X812237Y802200D01*
X812118Y802282D01*
X812002Y802366D01*
X811888Y802454D01*
X811776Y802545D01*
X811666Y802639D01*
X811560Y802736D01*
X811456Y802836D01*
X811355Y802938D01*
X811256Y803044D01*
X811161Y803152D01*
X811068Y803262D01*
X810979Y803375D01*
X810893Y803491D01*
X810809Y803608D01*
X810730Y803728D01*
X810653Y803850D01*
X810580Y803974D01*
X810510Y804100D01*
X810444Y804228D01*
X810381Y804358D01*
X810322Y804489D01*
X810266Y804622D01*
X810214Y804757D01*
X810166Y804893D01*
X810121Y805030D01*
X810081Y805168D01*
X810044Y805307D01*
X810010Y805447D01*
X809981Y805588D01*
X809956Y805730D01*
X809934Y805873D01*
X809916Y806016D01*
X809903Y806159D01*
X809893Y806303D01*
X809887Y806447D01*
X809885Y806591D01*
X819622Y798153D02*
X819745Y798078D01*
X819866Y798000D01*
X819985Y797918D01*
X820101Y797834D01*
X820215Y797746D01*
X820327Y797655D01*
X820436Y797561D01*
X820543Y797464D01*
X820647Y797364D01*
X820748Y797262D01*
X820847Y797156D01*
X820942Y797048D01*
X821035Y796938D01*
X821124Y796825D01*
X821210Y796710D01*
X821293Y796592D01*
X821373Y796472D01*
X821450Y796350D01*
X821523Y796226D01*
X821593Y796100D01*
X821659Y795972D01*
X821722Y795842D01*
X821781Y795711D01*
X821837Y795578D01*
X821889Y795443D01*
X821937Y795307D01*
X821982Y795170D01*
X822022Y795032D01*
X822059Y794893D01*
X822093Y794753D01*
X822122Y794612D01*
X822147Y794470D01*
X822169Y794327D01*
X822187Y794184D01*
X822200Y794041D01*
X822210Y793897D01*
X822216Y793753D01*
X822218Y793609D01*
X819622Y798153D02*
X812482Y802047D01*
X831734Y811784D02*
X831734Y788416D01*
X829138Y788416D02*
X834331Y788416D01*
X834331Y811784D02*
X829138Y811784D01*
X841946Y805293D02*
X841946Y794907D01*
X841946Y805293D02*
X841948Y805452D01*
X841954Y805611D01*
X841964Y805771D01*
X841977Y805929D01*
X841995Y806088D01*
X842016Y806245D01*
X842042Y806403D01*
X842071Y806559D01*
X842104Y806715D01*
X842141Y806870D01*
X842181Y807024D01*
X842226Y807177D01*
X842274Y807329D01*
X842325Y807480D01*
X842381Y807629D01*
X842440Y807777D01*
X842503Y807923D01*
X842569Y808068D01*
X842639Y808211D01*
X842712Y808353D01*
X842789Y808492D01*
X842869Y808630D01*
X842953Y808766D01*
X843040Y808899D01*
X843130Y809031D01*
X843223Y809160D01*
X843320Y809286D01*
X843419Y809411D01*
X843522Y809533D01*
X843627Y809652D01*
X843736Y809769D01*
X843847Y809883D01*
X843961Y809994D01*
X844078Y810103D01*
X844197Y810208D01*
X844319Y810311D01*
X844444Y810410D01*
X844570Y810507D01*
X844699Y810600D01*
X844831Y810690D01*
X844964Y810777D01*
X845100Y810861D01*
X845238Y810941D01*
X845377Y811018D01*
X845519Y811091D01*
X845662Y811161D01*
X845807Y811227D01*
X845953Y811290D01*
X846101Y811349D01*
X846250Y811405D01*
X846401Y811456D01*
X846553Y811504D01*
X846706Y811549D01*
X846860Y811589D01*
X847015Y811626D01*
X847171Y811659D01*
X847327Y811688D01*
X847485Y811714D01*
X847642Y811735D01*
X847801Y811753D01*
X847959Y811766D01*
X848119Y811776D01*
X848278Y811782D01*
X848437Y811784D01*
X848596Y811782D01*
X848755Y811776D01*
X848915Y811766D01*
X849073Y811753D01*
X849232Y811735D01*
X849389Y811714D01*
X849547Y811688D01*
X849703Y811659D01*
X849859Y811626D01*
X850014Y811589D01*
X850168Y811549D01*
X850321Y811504D01*
X850473Y811456D01*
X850624Y811405D01*
X850773Y811349D01*
X850921Y811290D01*
X851067Y811227D01*
X851212Y811161D01*
X851355Y811091D01*
X851497Y811018D01*
X851636Y810941D01*
X851774Y810861D01*
X851910Y810777D01*
X852043Y810690D01*
X852175Y810600D01*
X852304Y810507D01*
X852430Y810410D01*
X852555Y810311D01*
X852677Y810208D01*
X852796Y810103D01*
X852913Y809994D01*
X853027Y809883D01*
X853138Y809769D01*
X853247Y809652D01*
X853352Y809533D01*
X853455Y809411D01*
X853554Y809286D01*
X853651Y809160D01*
X853744Y809031D01*
X853834Y808899D01*
X853921Y808766D01*
X854005Y808630D01*
X854085Y808492D01*
X854162Y808353D01*
X854235Y808211D01*
X854305Y808068D01*
X854371Y807923D01*
X854434Y807777D01*
X854493Y807629D01*
X854549Y807480D01*
X854600Y807329D01*
X854648Y807177D01*
X854693Y807024D01*
X854733Y806870D01*
X854770Y806715D01*
X854803Y806559D01*
X854832Y806403D01*
X854858Y806245D01*
X854879Y806088D01*
X854897Y805929D01*
X854910Y805771D01*
X854920Y805611D01*
X854926Y805452D01*
X854928Y805293D01*
X854928Y794907D01*
X854926Y794748D01*
X854920Y794589D01*
X854910Y794429D01*
X854897Y794271D01*
X854879Y794112D01*
X854858Y793955D01*
X854832Y793797D01*
X854803Y793641D01*
X854770Y793485D01*
X854733Y793330D01*
X854693Y793176D01*
X854648Y793023D01*
X854600Y792871D01*
X854549Y792720D01*
X854493Y792571D01*
X854434Y792423D01*
X854371Y792277D01*
X854305Y792132D01*
X854235Y791989D01*
X854162Y791847D01*
X854085Y791708D01*
X854005Y791570D01*
X853921Y791434D01*
X853834Y791301D01*
X853744Y791169D01*
X853651Y791040D01*
X853554Y790914D01*
X853455Y790789D01*
X853352Y790667D01*
X853247Y790548D01*
X853138Y790431D01*
X853027Y790317D01*
X852913Y790206D01*
X852796Y790097D01*
X852677Y789992D01*
X852555Y789889D01*
X852430Y789790D01*
X852304Y789693D01*
X852175Y789600D01*
X852043Y789510D01*
X851910Y789423D01*
X851774Y789339D01*
X851636Y789259D01*
X851497Y789182D01*
X851355Y789109D01*
X851212Y789039D01*
X851067Y788973D01*
X850921Y788910D01*
X850773Y788851D01*
X850624Y788795D01*
X850473Y788744D01*
X850321Y788696D01*
X850168Y788651D01*
X850014Y788611D01*
X849859Y788574D01*
X849703Y788541D01*
X849547Y788512D01*
X849389Y788486D01*
X849232Y788465D01*
X849073Y788447D01*
X848915Y788434D01*
X848755Y788424D01*
X848596Y788418D01*
X848437Y788416D01*
X848278Y788418D01*
X848119Y788424D01*
X847959Y788434D01*
X847801Y788447D01*
X847642Y788465D01*
X847485Y788486D01*
X847327Y788512D01*
X847171Y788541D01*
X847015Y788574D01*
X846860Y788611D01*
X846706Y788651D01*
X846553Y788696D01*
X846401Y788744D01*
X846250Y788795D01*
X846101Y788851D01*
X845953Y788910D01*
X845807Y788973D01*
X845662Y789039D01*
X845519Y789109D01*
X845377Y789182D01*
X845238Y789259D01*
X845100Y789339D01*
X844964Y789423D01*
X844831Y789510D01*
X844699Y789600D01*
X844570Y789693D01*
X844444Y789790D01*
X844319Y789889D01*
X844197Y789992D01*
X844078Y790097D01*
X843961Y790206D01*
X843847Y790317D01*
X843736Y790431D01*
X843627Y790548D01*
X843522Y790667D01*
X843419Y790789D01*
X843320Y790914D01*
X843223Y791040D01*
X843130Y791169D01*
X843040Y791301D01*
X842953Y791434D01*
X842869Y791570D01*
X842789Y791708D01*
X842712Y791847D01*
X842639Y791989D01*
X842569Y792132D01*
X842503Y792277D01*
X842440Y792423D01*
X842381Y792571D01*
X842325Y792720D01*
X842274Y792871D01*
X842226Y793023D01*
X842181Y793176D01*
X842141Y793330D01*
X842104Y793485D01*
X842071Y793641D01*
X842042Y793797D01*
X842016Y793955D01*
X841995Y794112D01*
X841977Y794271D01*
X841964Y794429D01*
X841954Y794589D01*
X841948Y794748D01*
X841946Y794907D01*
X863521Y788416D02*
X863521Y811784D01*
X876503Y788416D01*
X876503Y811784D01*
X898546Y811784D02*
X898546Y788416D01*
X895950Y788416D02*
X901143Y788416D01*
X901143Y811784D02*
X895950Y811784D01*
X744107Y763298D02*
X737616Y763298D01*
X744107Y763298D02*
X744266Y763296D01*
X744425Y763290D01*
X744585Y763280D01*
X744743Y763267D01*
X744902Y763249D01*
X745059Y763228D01*
X745217Y763202D01*
X745373Y763173D01*
X745529Y763140D01*
X745684Y763103D01*
X745838Y763063D01*
X745991Y763018D01*
X746143Y762970D01*
X746294Y762919D01*
X746443Y762863D01*
X746591Y762804D01*
X746737Y762741D01*
X746882Y762675D01*
X747025Y762605D01*
X747167Y762532D01*
X747306Y762455D01*
X747444Y762375D01*
X747580Y762291D01*
X747713Y762204D01*
X747845Y762114D01*
X747974Y762021D01*
X748100Y761924D01*
X748225Y761825D01*
X748347Y761722D01*
X748466Y761617D01*
X748583Y761508D01*
X748697Y761397D01*
X748808Y761283D01*
X748917Y761166D01*
X749022Y761047D01*
X749125Y760925D01*
X749224Y760800D01*
X749321Y760674D01*
X749414Y760545D01*
X749504Y760413D01*
X749591Y760280D01*
X749675Y760144D01*
X749755Y760006D01*
X749832Y759867D01*
X749905Y759725D01*
X749975Y759582D01*
X750041Y759437D01*
X750104Y759291D01*
X750163Y759143D01*
X750219Y758994D01*
X750270Y758843D01*
X750318Y758691D01*
X750363Y758538D01*
X750403Y758384D01*
X750440Y758229D01*
X750473Y758073D01*
X750502Y757917D01*
X750528Y757759D01*
X750549Y757602D01*
X750567Y757443D01*
X750580Y757285D01*
X750590Y757125D01*
X750596Y756966D01*
X750598Y756807D01*
X750596Y756648D01*
X750590Y756489D01*
X750580Y756329D01*
X750567Y756171D01*
X750549Y756012D01*
X750528Y755855D01*
X750502Y755697D01*
X750473Y755541D01*
X750440Y755385D01*
X750403Y755230D01*
X750363Y755076D01*
X750318Y754923D01*
X750270Y754771D01*
X750219Y754620D01*
X750163Y754471D01*
X750104Y754323D01*
X750041Y754177D01*
X749975Y754032D01*
X749905Y753889D01*
X749832Y753747D01*
X749755Y753608D01*
X749675Y753470D01*
X749591Y753334D01*
X749504Y753201D01*
X749414Y753069D01*
X749321Y752940D01*
X749224Y752814D01*
X749125Y752689D01*
X749022Y752567D01*
X748917Y752448D01*
X748808Y752331D01*
X748697Y752217D01*
X748583Y752106D01*
X748466Y751997D01*
X748347Y751892D01*
X748225Y751789D01*
X748100Y751690D01*
X747974Y751593D01*
X747845Y751500D01*
X747713Y751410D01*
X747580Y751323D01*
X747444Y751239D01*
X747306Y751159D01*
X747167Y751082D01*
X747025Y751009D01*
X746882Y750939D01*
X746737Y750873D01*
X746591Y750810D01*
X746443Y750751D01*
X746294Y750695D01*
X746143Y750644D01*
X745991Y750596D01*
X745838Y750551D01*
X745684Y750511D01*
X745529Y750474D01*
X745373Y750441D01*
X745217Y750412D01*
X745059Y750386D01*
X744902Y750365D01*
X744743Y750347D01*
X744585Y750334D01*
X744425Y750324D01*
X744266Y750318D01*
X744107Y750316D01*
X737616Y750316D01*
X737616Y773684D01*
X744107Y773684D01*
X744250Y773682D01*
X744393Y773676D01*
X744536Y773666D01*
X744678Y773652D01*
X744820Y773635D01*
X744962Y773613D01*
X745103Y773588D01*
X745243Y773558D01*
X745382Y773525D01*
X745520Y773488D01*
X745657Y773447D01*
X745793Y773403D01*
X745928Y773354D01*
X746061Y773302D01*
X746193Y773247D01*
X746323Y773187D01*
X746452Y773124D01*
X746579Y773058D01*
X746704Y772988D01*
X746826Y772915D01*
X746947Y772838D01*
X747066Y772758D01*
X747182Y772675D01*
X747297Y772589D01*
X747408Y772500D01*
X747518Y772407D01*
X747624Y772312D01*
X747728Y772213D01*
X747829Y772112D01*
X747928Y772008D01*
X748023Y771902D01*
X748116Y771792D01*
X748205Y771681D01*
X748291Y771566D01*
X748374Y771450D01*
X748454Y771331D01*
X748531Y771210D01*
X748604Y771087D01*
X748674Y770963D01*
X748740Y770836D01*
X748803Y770707D01*
X748863Y770577D01*
X748918Y770445D01*
X748970Y770312D01*
X749019Y770177D01*
X749063Y770041D01*
X749104Y769904D01*
X749141Y769766D01*
X749174Y769627D01*
X749204Y769487D01*
X749229Y769346D01*
X749251Y769204D01*
X749268Y769062D01*
X749282Y768920D01*
X749292Y768777D01*
X749298Y768634D01*
X749300Y768491D01*
X749298Y768348D01*
X749292Y768205D01*
X749282Y768062D01*
X749268Y767920D01*
X749251Y767778D01*
X749229Y767636D01*
X749204Y767495D01*
X749174Y767355D01*
X749141Y767216D01*
X749104Y767078D01*
X749063Y766941D01*
X749019Y766805D01*
X748970Y766670D01*
X748918Y766537D01*
X748863Y766405D01*
X748803Y766275D01*
X748740Y766146D01*
X748674Y766019D01*
X748604Y765895D01*
X748531Y765772D01*
X748454Y765651D01*
X748374Y765532D01*
X748291Y765416D01*
X748205Y765301D01*
X748116Y765190D01*
X748023Y765080D01*
X747928Y764974D01*
X747829Y764870D01*
X747728Y764769D01*
X747624Y764670D01*
X747518Y764575D01*
X747408Y764482D01*
X747297Y764393D01*
X747182Y764307D01*
X747066Y764224D01*
X746947Y764144D01*
X746826Y764067D01*
X746704Y763994D01*
X746579Y763924D01*
X746452Y763858D01*
X746323Y763795D01*
X746193Y763735D01*
X746061Y763680D01*
X745928Y763628D01*
X745793Y763579D01*
X745657Y763535D01*
X745520Y763494D01*
X745382Y763457D01*
X745243Y763424D01*
X745103Y763394D01*
X744962Y763369D01*
X744820Y763347D01*
X744678Y763330D01*
X744536Y763316D01*
X744393Y763306D01*
X744250Y763300D01*
X744107Y763298D01*
X758347Y773684D02*
X758347Y750316D01*
X758347Y773684D02*
X764838Y773684D01*
X764997Y773682D01*
X765156Y773676D01*
X765316Y773666D01*
X765474Y773653D01*
X765633Y773635D01*
X765790Y773614D01*
X765948Y773588D01*
X766104Y773559D01*
X766260Y773526D01*
X766415Y773489D01*
X766569Y773449D01*
X766722Y773404D01*
X766874Y773356D01*
X767025Y773305D01*
X767174Y773249D01*
X767322Y773190D01*
X767468Y773127D01*
X767613Y773061D01*
X767756Y772991D01*
X767898Y772918D01*
X768037Y772841D01*
X768175Y772761D01*
X768311Y772677D01*
X768444Y772590D01*
X768576Y772500D01*
X768705Y772407D01*
X768831Y772310D01*
X768956Y772211D01*
X769078Y772108D01*
X769197Y772003D01*
X769314Y771894D01*
X769428Y771783D01*
X769539Y771669D01*
X769648Y771552D01*
X769753Y771433D01*
X769856Y771311D01*
X769955Y771186D01*
X770052Y771060D01*
X770145Y770931D01*
X770235Y770799D01*
X770322Y770666D01*
X770406Y770530D01*
X770486Y770392D01*
X770563Y770253D01*
X770636Y770111D01*
X770706Y769968D01*
X770772Y769823D01*
X770835Y769677D01*
X770894Y769529D01*
X770950Y769380D01*
X771001Y769229D01*
X771049Y769077D01*
X771094Y768924D01*
X771134Y768770D01*
X771171Y768615D01*
X771204Y768459D01*
X771233Y768303D01*
X771259Y768145D01*
X771280Y767988D01*
X771298Y767829D01*
X771311Y767671D01*
X771321Y767511D01*
X771327Y767352D01*
X771329Y767193D01*
X771329Y756807D01*
X771327Y756648D01*
X771321Y756489D01*
X771311Y756329D01*
X771298Y756171D01*
X771280Y756012D01*
X771259Y755855D01*
X771233Y755697D01*
X771204Y755541D01*
X771171Y755385D01*
X771134Y755230D01*
X771094Y755076D01*
X771049Y754923D01*
X771001Y754771D01*
X770950Y754620D01*
X770894Y754471D01*
X770835Y754323D01*
X770772Y754177D01*
X770706Y754032D01*
X770636Y753889D01*
X770563Y753747D01*
X770486Y753608D01*
X770406Y753470D01*
X770322Y753334D01*
X770235Y753201D01*
X770145Y753069D01*
X770052Y752940D01*
X769955Y752814D01*
X769856Y752689D01*
X769753Y752567D01*
X769648Y752448D01*
X769539Y752331D01*
X769428Y752217D01*
X769314Y752106D01*
X769197Y751997D01*
X769078Y751892D01*
X768956Y751789D01*
X768831Y751690D01*
X768705Y751593D01*
X768576Y751500D01*
X768444Y751410D01*
X768311Y751323D01*
X768175Y751239D01*
X768037Y751159D01*
X767898Y751082D01*
X767756Y751009D01*
X767613Y750939D01*
X767468Y750873D01*
X767322Y750810D01*
X767174Y750751D01*
X767025Y750695D01*
X766874Y750644D01*
X766722Y750595D01*
X766569Y750551D01*
X766415Y750511D01*
X766260Y750474D01*
X766104Y750441D01*
X765948Y750412D01*
X765790Y750386D01*
X765633Y750365D01*
X765474Y750347D01*
X765315Y750334D01*
X765156Y750324D01*
X764997Y750318D01*
X764838Y750316D01*
X758347Y750316D01*
D11*
X1000300Y713700D02*
X498300Y713700D01*
X1000300Y713700D02*
X1000300Y19700D01*
X498300Y19700D01*
X498300Y713700D01*
D12*
X192701Y896818D02*
X192701Y901954D01*
X192702Y896818D02*
X192700Y896744D01*
X192694Y896669D01*
X192685Y896596D01*
X192672Y896522D01*
X192655Y896450D01*
X192635Y896379D01*
X192611Y896308D01*
X192583Y896239D01*
X192552Y896171D01*
X192518Y896106D01*
X192480Y896041D01*
X192439Y895979D01*
X192395Y895919D01*
X192348Y895862D01*
X192298Y895807D01*
X192245Y895754D01*
X192190Y895704D01*
X192133Y895657D01*
X192073Y895613D01*
X192011Y895572D01*
X191946Y895534D01*
X191880Y895500D01*
X191813Y895469D01*
X191744Y895441D01*
X191673Y895417D01*
X191602Y895397D01*
X191529Y895380D01*
X191456Y895367D01*
X191382Y895358D01*
X191308Y895352D01*
X191234Y895350D01*
X190500Y895350D01*
X196967Y895350D02*
X196967Y901954D01*
X198801Y901954D01*
X198886Y901952D01*
X198970Y901946D01*
X199054Y901936D01*
X199138Y901923D01*
X199221Y901905D01*
X199303Y901884D01*
X199384Y901859D01*
X199464Y901830D01*
X199542Y901798D01*
X199618Y901762D01*
X199693Y901722D01*
X199766Y901679D01*
X199837Y901633D01*
X199906Y901584D01*
X199973Y901531D01*
X200037Y901475D01*
X200098Y901417D01*
X200156Y901356D01*
X200212Y901292D01*
X200265Y901225D01*
X200314Y901156D01*
X200360Y901085D01*
X200403Y901012D01*
X200443Y900937D01*
X200479Y900861D01*
X200511Y900783D01*
X200540Y900703D01*
X200565Y900622D01*
X200586Y900540D01*
X200604Y900457D01*
X200617Y900373D01*
X200627Y900289D01*
X200633Y900205D01*
X200635Y900120D01*
X200633Y900035D01*
X200627Y899951D01*
X200617Y899867D01*
X200604Y899783D01*
X200586Y899700D01*
X200565Y899618D01*
X200540Y899537D01*
X200511Y899457D01*
X200479Y899379D01*
X200443Y899303D01*
X200403Y899228D01*
X200360Y899155D01*
X200314Y899084D01*
X200265Y899015D01*
X200212Y898948D01*
X200156Y898884D01*
X200098Y898823D01*
X200037Y898765D01*
X199973Y898709D01*
X199906Y898656D01*
X199837Y898607D01*
X199766Y898561D01*
X199693Y898518D01*
X199618Y898478D01*
X199542Y898442D01*
X199464Y898410D01*
X199384Y898381D01*
X199303Y898356D01*
X199221Y898335D01*
X199138Y898317D01*
X199054Y898304D01*
X198970Y898294D01*
X198886Y898288D01*
X198801Y898286D01*
X198801Y898285D02*
X196967Y898285D01*
X203857Y900486D02*
X205691Y901954D01*
X205691Y895350D01*
X203857Y895350D02*
X207526Y895350D01*
X141901Y76454D02*
X141901Y71318D01*
X141902Y71318D02*
X141900Y71244D01*
X141894Y71169D01*
X141885Y71096D01*
X141872Y71022D01*
X141855Y70950D01*
X141835Y70879D01*
X141811Y70808D01*
X141783Y70739D01*
X141752Y70671D01*
X141718Y70606D01*
X141680Y70541D01*
X141639Y70479D01*
X141595Y70419D01*
X141548Y70362D01*
X141498Y70307D01*
X141445Y70254D01*
X141390Y70204D01*
X141333Y70157D01*
X141273Y70113D01*
X141211Y70072D01*
X141146Y70034D01*
X141080Y70000D01*
X141013Y69969D01*
X140944Y69941D01*
X140873Y69917D01*
X140802Y69897D01*
X140729Y69880D01*
X140656Y69867D01*
X140582Y69858D01*
X140508Y69852D01*
X140434Y69850D01*
X139700Y69850D01*
X146167Y69850D02*
X146167Y76454D01*
X148001Y76454D01*
X148086Y76452D01*
X148170Y76446D01*
X148254Y76436D01*
X148338Y76423D01*
X148421Y76405D01*
X148503Y76384D01*
X148584Y76359D01*
X148664Y76330D01*
X148742Y76298D01*
X148818Y76262D01*
X148893Y76222D01*
X148966Y76179D01*
X149037Y76133D01*
X149106Y76084D01*
X149173Y76031D01*
X149237Y75975D01*
X149298Y75917D01*
X149356Y75856D01*
X149412Y75792D01*
X149465Y75725D01*
X149514Y75656D01*
X149560Y75585D01*
X149603Y75512D01*
X149643Y75437D01*
X149679Y75361D01*
X149711Y75283D01*
X149740Y75203D01*
X149765Y75122D01*
X149786Y75040D01*
X149804Y74957D01*
X149817Y74873D01*
X149827Y74789D01*
X149833Y74705D01*
X149835Y74620D01*
X149833Y74535D01*
X149827Y74451D01*
X149817Y74367D01*
X149804Y74283D01*
X149786Y74200D01*
X149765Y74118D01*
X149740Y74037D01*
X149711Y73957D01*
X149679Y73879D01*
X149643Y73803D01*
X149603Y73728D01*
X149560Y73655D01*
X149514Y73584D01*
X149465Y73515D01*
X149412Y73448D01*
X149356Y73384D01*
X149298Y73323D01*
X149237Y73265D01*
X149173Y73209D01*
X149106Y73156D01*
X149037Y73107D01*
X148966Y73061D01*
X148893Y73018D01*
X148818Y72978D01*
X148742Y72942D01*
X148664Y72910D01*
X148584Y72881D01*
X148503Y72856D01*
X148421Y72835D01*
X148338Y72817D01*
X148254Y72804D01*
X148170Y72794D01*
X148086Y72788D01*
X148001Y72786D01*
X148001Y72785D02*
X146167Y72785D01*
X153057Y69850D02*
X154891Y69850D01*
X154976Y69852D01*
X155060Y69858D01*
X155144Y69868D01*
X155228Y69881D01*
X155311Y69899D01*
X155393Y69920D01*
X155474Y69945D01*
X155554Y69974D01*
X155632Y70006D01*
X155708Y70042D01*
X155783Y70082D01*
X155856Y70125D01*
X155927Y70171D01*
X155996Y70220D01*
X156063Y70273D01*
X156127Y70329D01*
X156188Y70387D01*
X156246Y70448D01*
X156302Y70512D01*
X156355Y70579D01*
X156404Y70648D01*
X156450Y70719D01*
X156493Y70792D01*
X156533Y70867D01*
X156569Y70943D01*
X156601Y71021D01*
X156630Y71101D01*
X156655Y71182D01*
X156676Y71264D01*
X156694Y71347D01*
X156707Y71431D01*
X156717Y71515D01*
X156723Y71599D01*
X156725Y71684D01*
X156723Y71769D01*
X156717Y71853D01*
X156707Y71937D01*
X156694Y72021D01*
X156676Y72104D01*
X156655Y72186D01*
X156630Y72267D01*
X156601Y72347D01*
X156569Y72425D01*
X156533Y72501D01*
X156493Y72576D01*
X156450Y72649D01*
X156404Y72720D01*
X156355Y72789D01*
X156302Y72856D01*
X156246Y72920D01*
X156188Y72981D01*
X156127Y73039D01*
X156063Y73095D01*
X155996Y73148D01*
X155927Y73197D01*
X155856Y73243D01*
X155783Y73286D01*
X155708Y73326D01*
X155632Y73362D01*
X155554Y73394D01*
X155474Y73423D01*
X155393Y73448D01*
X155311Y73469D01*
X155228Y73487D01*
X155144Y73500D01*
X155060Y73510D01*
X154976Y73516D01*
X154891Y73518D01*
X155258Y76454D02*
X153057Y76454D01*
X155258Y76454D02*
X155334Y76452D01*
X155409Y76446D01*
X155484Y76437D01*
X155558Y76423D01*
X155632Y76406D01*
X155704Y76384D01*
X155776Y76360D01*
X155846Y76331D01*
X155914Y76299D01*
X155981Y76264D01*
X156046Y76225D01*
X156109Y76182D01*
X156169Y76137D01*
X156227Y76089D01*
X156283Y76037D01*
X156335Y75983D01*
X156385Y75926D01*
X156432Y75867D01*
X156476Y75806D01*
X156517Y75742D01*
X156554Y75676D01*
X156588Y75608D01*
X156618Y75539D01*
X156645Y75468D01*
X156668Y75396D01*
X156687Y75323D01*
X156702Y75249D01*
X156714Y75174D01*
X156722Y75099D01*
X156726Y75024D01*
X156726Y74948D01*
X156722Y74873D01*
X156714Y74798D01*
X156702Y74723D01*
X156687Y74649D01*
X156668Y74576D01*
X156645Y74504D01*
X156618Y74433D01*
X156588Y74364D01*
X156554Y74296D01*
X156517Y74230D01*
X156476Y74166D01*
X156432Y74105D01*
X156385Y74046D01*
X156335Y73989D01*
X156283Y73935D01*
X156227Y73883D01*
X156169Y73835D01*
X156109Y73790D01*
X156046Y73747D01*
X155981Y73708D01*
X155914Y73673D01*
X155846Y73641D01*
X155776Y73612D01*
X155704Y73588D01*
X155632Y73566D01*
X155558Y73549D01*
X155484Y73535D01*
X155409Y73526D01*
X155334Y73520D01*
X155258Y73518D01*
X155258Y73519D02*
X153791Y73519D01*
D13*
X496000Y730800D03*
D11*
X502000Y757800D02*
X514000Y757800D01*
X523500Y757800D02*
X523500Y740300D01*
X493000Y740800D02*
X493000Y757800D01*
D14*
X475508Y770808D02*
X475508Y782492D01*
X480701Y782492D01*
X480701Y777299D02*
X475508Y777299D01*
X485414Y782492D02*
X485414Y770808D01*
X490607Y770808D01*
X494916Y774054D02*
X494916Y779246D01*
X494918Y779359D01*
X494924Y779472D01*
X494934Y779585D01*
X494948Y779698D01*
X494965Y779810D01*
X494987Y779921D01*
X495012Y780031D01*
X495042Y780141D01*
X495075Y780249D01*
X495112Y780356D01*
X495152Y780462D01*
X495197Y780566D01*
X495245Y780669D01*
X495296Y780770D01*
X495351Y780869D01*
X495409Y780966D01*
X495471Y781061D01*
X495536Y781154D01*
X495604Y781244D01*
X495675Y781332D01*
X495750Y781418D01*
X495827Y781501D01*
X495907Y781581D01*
X495990Y781658D01*
X496076Y781733D01*
X496164Y781804D01*
X496254Y781872D01*
X496347Y781937D01*
X496442Y781999D01*
X496539Y782057D01*
X496638Y782112D01*
X496739Y782163D01*
X496842Y782211D01*
X496946Y782256D01*
X497052Y782296D01*
X497159Y782333D01*
X497267Y782366D01*
X497377Y782396D01*
X497487Y782421D01*
X497598Y782443D01*
X497710Y782460D01*
X497823Y782474D01*
X497936Y782484D01*
X498049Y782490D01*
X498162Y782492D01*
X498275Y782490D01*
X498388Y782484D01*
X498501Y782474D01*
X498614Y782460D01*
X498726Y782443D01*
X498837Y782421D01*
X498947Y782396D01*
X499057Y782366D01*
X499165Y782333D01*
X499272Y782296D01*
X499378Y782256D01*
X499482Y782211D01*
X499585Y782163D01*
X499686Y782112D01*
X499785Y782057D01*
X499882Y781999D01*
X499977Y781937D01*
X500070Y781872D01*
X500160Y781804D01*
X500248Y781733D01*
X500334Y781658D01*
X500417Y781581D01*
X500497Y781501D01*
X500574Y781418D01*
X500649Y781332D01*
X500720Y781244D01*
X500788Y781154D01*
X500853Y781061D01*
X500915Y780966D01*
X500973Y780869D01*
X501028Y780770D01*
X501079Y780669D01*
X501127Y780566D01*
X501172Y780462D01*
X501212Y780356D01*
X501249Y780249D01*
X501282Y780141D01*
X501312Y780031D01*
X501337Y779921D01*
X501359Y779810D01*
X501376Y779698D01*
X501390Y779585D01*
X501400Y779472D01*
X501406Y779359D01*
X501408Y779246D01*
X501408Y774054D01*
X501406Y773941D01*
X501400Y773828D01*
X501390Y773715D01*
X501376Y773602D01*
X501359Y773490D01*
X501337Y773379D01*
X501312Y773269D01*
X501282Y773159D01*
X501249Y773051D01*
X501212Y772944D01*
X501172Y772838D01*
X501127Y772734D01*
X501079Y772631D01*
X501028Y772530D01*
X500973Y772431D01*
X500915Y772334D01*
X500853Y772239D01*
X500788Y772146D01*
X500720Y772056D01*
X500649Y771968D01*
X500574Y771882D01*
X500497Y771799D01*
X500417Y771719D01*
X500334Y771642D01*
X500248Y771567D01*
X500160Y771496D01*
X500070Y771428D01*
X499977Y771363D01*
X499882Y771301D01*
X499785Y771243D01*
X499686Y771188D01*
X499585Y771137D01*
X499482Y771089D01*
X499378Y771044D01*
X499272Y771004D01*
X499165Y770967D01*
X499057Y770934D01*
X498947Y770904D01*
X498837Y770879D01*
X498726Y770857D01*
X498614Y770840D01*
X498501Y770826D01*
X498388Y770816D01*
X498275Y770810D01*
X498162Y770808D01*
X498049Y770810D01*
X497936Y770816D01*
X497823Y770826D01*
X497710Y770840D01*
X497598Y770857D01*
X497487Y770879D01*
X497377Y770904D01*
X497267Y770934D01*
X497159Y770967D01*
X497052Y771004D01*
X496946Y771044D01*
X496842Y771089D01*
X496739Y771137D01*
X496638Y771188D01*
X496539Y771243D01*
X496442Y771301D01*
X496347Y771363D01*
X496254Y771428D01*
X496164Y771496D01*
X496076Y771567D01*
X495990Y771642D01*
X495907Y771719D01*
X495827Y771799D01*
X495750Y771882D01*
X495675Y771968D01*
X495604Y772056D01*
X495536Y772146D01*
X495471Y772239D01*
X495409Y772334D01*
X495351Y772431D01*
X495296Y772530D01*
X495245Y772631D01*
X495197Y772734D01*
X495152Y772838D01*
X495112Y772944D01*
X495075Y773051D01*
X495042Y773159D01*
X495012Y773269D01*
X494987Y773379D01*
X494965Y773490D01*
X494948Y773602D01*
X494934Y773715D01*
X494924Y773828D01*
X494918Y773941D01*
X494916Y774054D01*
X505697Y770808D02*
X509592Y782492D01*
X513487Y770808D01*
X512513Y773729D02*
X506671Y773729D01*
X520260Y770808D02*
X520260Y782492D01*
X523505Y782492D02*
X517014Y782492D01*
X528642Y782492D02*
X528642Y770808D01*
X527344Y770808D02*
X529940Y770808D01*
X529940Y782492D02*
X527344Y782492D01*
X534921Y782492D02*
X534921Y770808D01*
X541412Y770808D02*
X534921Y782492D01*
X541412Y782492D02*
X541412Y770808D01*
X551657Y777299D02*
X553604Y777299D01*
X553604Y770808D01*
X549710Y770808D01*
X549611Y770810D01*
X549511Y770816D01*
X549412Y770825D01*
X549314Y770838D01*
X549216Y770855D01*
X549118Y770876D01*
X549022Y770901D01*
X548927Y770929D01*
X548833Y770961D01*
X548740Y770996D01*
X548648Y771035D01*
X548558Y771078D01*
X548470Y771123D01*
X548383Y771173D01*
X548299Y771225D01*
X548216Y771281D01*
X548136Y771339D01*
X548058Y771401D01*
X547983Y771466D01*
X547910Y771534D01*
X547840Y771604D01*
X547772Y771677D01*
X547707Y771752D01*
X547645Y771830D01*
X547587Y771910D01*
X547531Y771993D01*
X547479Y772077D01*
X547429Y772164D01*
X547384Y772252D01*
X547341Y772342D01*
X547302Y772434D01*
X547267Y772527D01*
X547235Y772621D01*
X547207Y772716D01*
X547182Y772812D01*
X547161Y772910D01*
X547144Y773008D01*
X547131Y773106D01*
X547122Y773205D01*
X547116Y773305D01*
X547114Y773404D01*
X547113Y773404D02*
X547113Y779896D01*
X547114Y779896D02*
X547116Y779995D01*
X547122Y780095D01*
X547131Y780194D01*
X547144Y780292D01*
X547161Y780390D01*
X547182Y780488D01*
X547207Y780584D01*
X547235Y780679D01*
X547267Y780773D01*
X547302Y780866D01*
X547341Y780958D01*
X547384Y781048D01*
X547429Y781136D01*
X547479Y781223D01*
X547531Y781307D01*
X547587Y781390D01*
X547645Y781470D01*
X547707Y781548D01*
X547772Y781623D01*
X547840Y781696D01*
X547910Y781766D01*
X547983Y781834D01*
X548058Y781899D01*
X548136Y781961D01*
X548216Y782019D01*
X548299Y782075D01*
X548383Y782127D01*
X548470Y782177D01*
X548558Y782222D01*
X548648Y782265D01*
X548740Y782304D01*
X548832Y782339D01*
X548927Y782371D01*
X549022Y782399D01*
X549118Y782424D01*
X549216Y782445D01*
X549314Y782462D01*
X549412Y782475D01*
X549511Y782484D01*
X549611Y782490D01*
X549710Y782492D01*
X553604Y782492D01*
X565034Y773404D02*
X565032Y773305D01*
X565026Y773205D01*
X565017Y773106D01*
X565004Y773008D01*
X564987Y772910D01*
X564966Y772812D01*
X564941Y772716D01*
X564913Y772621D01*
X564881Y772527D01*
X564846Y772434D01*
X564807Y772342D01*
X564764Y772252D01*
X564719Y772164D01*
X564669Y772077D01*
X564617Y771993D01*
X564561Y771910D01*
X564503Y771830D01*
X564441Y771752D01*
X564376Y771677D01*
X564308Y771604D01*
X564238Y771534D01*
X564165Y771466D01*
X564090Y771401D01*
X564012Y771339D01*
X563932Y771281D01*
X563849Y771225D01*
X563765Y771173D01*
X563678Y771123D01*
X563590Y771078D01*
X563500Y771035D01*
X563408Y770996D01*
X563315Y770961D01*
X563221Y770929D01*
X563126Y770901D01*
X563030Y770876D01*
X562932Y770855D01*
X562834Y770838D01*
X562736Y770825D01*
X562637Y770816D01*
X562537Y770810D01*
X562438Y770808D01*
X562294Y770810D01*
X562149Y770816D01*
X562005Y770825D01*
X561862Y770838D01*
X561718Y770855D01*
X561575Y770876D01*
X561433Y770901D01*
X561292Y770929D01*
X561151Y770961D01*
X561011Y770997D01*
X560872Y771036D01*
X560734Y771079D01*
X560598Y771126D01*
X560462Y771176D01*
X560328Y771230D01*
X560196Y771287D01*
X560065Y771348D01*
X559936Y771412D01*
X559808Y771480D01*
X559682Y771550D01*
X559558Y771625D01*
X559437Y771702D01*
X559317Y771783D01*
X559199Y771866D01*
X559084Y771953D01*
X558971Y772043D01*
X558860Y772136D01*
X558752Y772231D01*
X558646Y772330D01*
X558543Y772431D01*
X558868Y779896D02*
X558870Y779995D01*
X558876Y780095D01*
X558885Y780194D01*
X558898Y780292D01*
X558915Y780390D01*
X558936Y780488D01*
X558961Y780584D01*
X558989Y780679D01*
X559021Y780773D01*
X559056Y780866D01*
X559095Y780958D01*
X559138Y781048D01*
X559183Y781136D01*
X559233Y781223D01*
X559285Y781307D01*
X559341Y781390D01*
X559399Y781470D01*
X559461Y781548D01*
X559526Y781623D01*
X559594Y781696D01*
X559664Y781766D01*
X559737Y781834D01*
X559812Y781899D01*
X559890Y781961D01*
X559970Y782019D01*
X560053Y782075D01*
X560137Y782127D01*
X560224Y782177D01*
X560312Y782222D01*
X560402Y782265D01*
X560494Y782304D01*
X560587Y782339D01*
X560681Y782371D01*
X560776Y782399D01*
X560873Y782424D01*
X560970Y782445D01*
X561068Y782462D01*
X561166Y782475D01*
X561265Y782484D01*
X561365Y782490D01*
X561464Y782492D01*
X561600Y782490D01*
X561736Y782484D01*
X561872Y782475D01*
X562008Y782462D01*
X562143Y782444D01*
X562277Y782424D01*
X562411Y782399D01*
X562545Y782371D01*
X562677Y782338D01*
X562808Y782303D01*
X562939Y782263D01*
X563068Y782220D01*
X563196Y782174D01*
X563322Y782123D01*
X563448Y782070D01*
X563571Y782012D01*
X563693Y781952D01*
X563813Y781888D01*
X563932Y781820D01*
X564048Y781750D01*
X564162Y781676D01*
X564275Y781599D01*
X564385Y781518D01*
X560166Y777624D02*
X560080Y777677D01*
X559996Y777734D01*
X559914Y777793D01*
X559834Y777856D01*
X559757Y777922D01*
X559682Y777990D01*
X559610Y778062D01*
X559541Y778136D01*
X559475Y778213D01*
X559412Y778292D01*
X559352Y778374D01*
X559295Y778458D01*
X559241Y778544D01*
X559191Y778632D01*
X559144Y778722D01*
X559100Y778813D01*
X559061Y778907D01*
X559024Y779001D01*
X558992Y779097D01*
X558963Y779195D01*
X558938Y779293D01*
X558917Y779392D01*
X558899Y779492D01*
X558886Y779592D01*
X558876Y779693D01*
X558870Y779795D01*
X558868Y779896D01*
X563736Y775676D02*
X563822Y775623D01*
X563906Y775566D01*
X563988Y775507D01*
X564068Y775444D01*
X564145Y775378D01*
X564220Y775310D01*
X564292Y775238D01*
X564361Y775164D01*
X564427Y775087D01*
X564490Y775008D01*
X564550Y774926D01*
X564607Y774842D01*
X564661Y774756D01*
X564711Y774668D01*
X564758Y774578D01*
X564802Y774487D01*
X564841Y774393D01*
X564878Y774299D01*
X564910Y774203D01*
X564939Y774105D01*
X564964Y774007D01*
X564985Y773908D01*
X565003Y773808D01*
X565016Y773708D01*
X565026Y773607D01*
X565032Y773505D01*
X565034Y773404D01*
X563736Y775676D02*
X560166Y777624D01*
X569169Y782492D02*
X571765Y770808D01*
X574362Y778597D01*
X576958Y770808D01*
X579555Y782492D01*
X585030Y782492D02*
X585030Y770808D01*
X583732Y770808D02*
X586328Y770808D01*
X586328Y782492D02*
X583732Y782492D01*
X593412Y782492D02*
X593412Y770808D01*
X590166Y782492D02*
X596657Y782492D01*
X603397Y770808D02*
X605994Y770808D01*
X603397Y770808D02*
X603298Y770810D01*
X603198Y770816D01*
X603099Y770825D01*
X603001Y770838D01*
X602903Y770855D01*
X602805Y770876D01*
X602709Y770901D01*
X602614Y770929D01*
X602520Y770961D01*
X602427Y770996D01*
X602335Y771035D01*
X602245Y771078D01*
X602157Y771123D01*
X602070Y771173D01*
X601986Y771225D01*
X601903Y771281D01*
X601823Y771339D01*
X601745Y771401D01*
X601670Y771466D01*
X601597Y771534D01*
X601527Y771604D01*
X601459Y771677D01*
X601394Y771752D01*
X601332Y771830D01*
X601274Y771910D01*
X601218Y771993D01*
X601166Y772077D01*
X601116Y772164D01*
X601071Y772252D01*
X601028Y772342D01*
X600989Y772434D01*
X600954Y772527D01*
X600922Y772621D01*
X600894Y772716D01*
X600869Y772812D01*
X600848Y772910D01*
X600831Y773008D01*
X600818Y773106D01*
X600809Y773205D01*
X600803Y773305D01*
X600801Y773404D01*
X600801Y779896D01*
X600802Y779896D02*
X600804Y779995D01*
X600810Y780095D01*
X600819Y780194D01*
X600832Y780292D01*
X600849Y780390D01*
X600870Y780488D01*
X600895Y780584D01*
X600923Y780679D01*
X600955Y780773D01*
X600990Y780866D01*
X601029Y780958D01*
X601072Y781048D01*
X601117Y781136D01*
X601167Y781223D01*
X601219Y781307D01*
X601275Y781390D01*
X601333Y781470D01*
X601395Y781548D01*
X601460Y781623D01*
X601528Y781696D01*
X601598Y781766D01*
X601671Y781834D01*
X601746Y781899D01*
X601824Y781961D01*
X601904Y782019D01*
X601987Y782075D01*
X602071Y782127D01*
X602158Y782177D01*
X602246Y782222D01*
X602336Y782265D01*
X602428Y782304D01*
X602520Y782339D01*
X602615Y782371D01*
X602710Y782399D01*
X602806Y782424D01*
X602904Y782445D01*
X603002Y782462D01*
X603100Y782475D01*
X603199Y782484D01*
X603299Y782490D01*
X603398Y782492D01*
X603397Y782492D02*
X605994Y782492D01*
X610740Y782492D02*
X610740Y770808D01*
X610740Y777299D02*
X617231Y777299D01*
X617231Y782492D02*
X617231Y770808D01*
D11*
X38600Y505800D02*
X38603Y506045D01*
X38612Y506291D01*
X38627Y506536D01*
X38648Y506780D01*
X38675Y507024D01*
X38708Y507267D01*
X38747Y507510D01*
X38792Y507751D01*
X38843Y507991D01*
X38900Y508230D01*
X38962Y508467D01*
X39031Y508703D01*
X39105Y508937D01*
X39185Y509169D01*
X39270Y509399D01*
X39361Y509627D01*
X39458Y509852D01*
X39560Y510076D01*
X39668Y510296D01*
X39781Y510514D01*
X39899Y510729D01*
X40023Y510941D01*
X40151Y511150D01*
X40285Y511356D01*
X40424Y511558D01*
X40568Y511757D01*
X40717Y511952D01*
X40870Y512144D01*
X41028Y512332D01*
X41190Y512516D01*
X41358Y512695D01*
X41529Y512871D01*
X41705Y513042D01*
X41884Y513210D01*
X42068Y513372D01*
X42256Y513530D01*
X42448Y513683D01*
X42643Y513832D01*
X42842Y513976D01*
X43044Y514115D01*
X43250Y514249D01*
X43459Y514377D01*
X43671Y514501D01*
X43886Y514619D01*
X44104Y514732D01*
X44324Y514840D01*
X44548Y514942D01*
X44773Y515039D01*
X45001Y515130D01*
X45231Y515215D01*
X45463Y515295D01*
X45697Y515369D01*
X45933Y515438D01*
X46170Y515500D01*
X46409Y515557D01*
X46649Y515608D01*
X46890Y515653D01*
X47133Y515692D01*
X47376Y515725D01*
X47620Y515752D01*
X47864Y515773D01*
X48109Y515788D01*
X48355Y515797D01*
X48600Y515800D01*
X48845Y515797D01*
X49091Y515788D01*
X49336Y515773D01*
X49580Y515752D01*
X49824Y515725D01*
X50067Y515692D01*
X50310Y515653D01*
X50551Y515608D01*
X50791Y515557D01*
X51030Y515500D01*
X51267Y515438D01*
X51503Y515369D01*
X51737Y515295D01*
X51969Y515215D01*
X52199Y515130D01*
X52427Y515039D01*
X52652Y514942D01*
X52876Y514840D01*
X53096Y514732D01*
X53314Y514619D01*
X53529Y514501D01*
X53741Y514377D01*
X53950Y514249D01*
X54156Y514115D01*
X54358Y513976D01*
X54557Y513832D01*
X54752Y513683D01*
X54944Y513530D01*
X55132Y513372D01*
X55316Y513210D01*
X55495Y513042D01*
X55671Y512871D01*
X55842Y512695D01*
X56010Y512516D01*
X56172Y512332D01*
X56330Y512144D01*
X56483Y511952D01*
X56632Y511757D01*
X56776Y511558D01*
X56915Y511356D01*
X57049Y511150D01*
X57177Y510941D01*
X57301Y510729D01*
X57419Y510514D01*
X57532Y510296D01*
X57640Y510076D01*
X57742Y509852D01*
X57839Y509627D01*
X57930Y509399D01*
X58015Y509169D01*
X58095Y508937D01*
X58169Y508703D01*
X58238Y508467D01*
X58300Y508230D01*
X58357Y507991D01*
X58408Y507751D01*
X58453Y507510D01*
X58492Y507267D01*
X58525Y507024D01*
X58552Y506780D01*
X58573Y506536D01*
X58588Y506291D01*
X58597Y506045D01*
X58600Y505800D01*
X58597Y505555D01*
X58588Y505309D01*
X58573Y505064D01*
X58552Y504820D01*
X58525Y504576D01*
X58492Y504333D01*
X58453Y504090D01*
X58408Y503849D01*
X58357Y503609D01*
X58300Y503370D01*
X58238Y503133D01*
X58169Y502897D01*
X58095Y502663D01*
X58015Y502431D01*
X57930Y502201D01*
X57839Y501973D01*
X57742Y501748D01*
X57640Y501524D01*
X57532Y501304D01*
X57419Y501086D01*
X57301Y500871D01*
X57177Y500659D01*
X57049Y500450D01*
X56915Y500244D01*
X56776Y500042D01*
X56632Y499843D01*
X56483Y499648D01*
X56330Y499456D01*
X56172Y499268D01*
X56010Y499084D01*
X55842Y498905D01*
X55671Y498729D01*
X55495Y498558D01*
X55316Y498390D01*
X55132Y498228D01*
X54944Y498070D01*
X54752Y497917D01*
X54557Y497768D01*
X54358Y497624D01*
X54156Y497485D01*
X53950Y497351D01*
X53741Y497223D01*
X53529Y497099D01*
X53314Y496981D01*
X53096Y496868D01*
X52876Y496760D01*
X52652Y496658D01*
X52427Y496561D01*
X52199Y496470D01*
X51969Y496385D01*
X51737Y496305D01*
X51503Y496231D01*
X51267Y496162D01*
X51030Y496100D01*
X50791Y496043D01*
X50551Y495992D01*
X50310Y495947D01*
X50067Y495908D01*
X49824Y495875D01*
X49580Y495848D01*
X49336Y495827D01*
X49091Y495812D01*
X48845Y495803D01*
X48600Y495800D01*
X48355Y495803D01*
X48109Y495812D01*
X47864Y495827D01*
X47620Y495848D01*
X47376Y495875D01*
X47133Y495908D01*
X46890Y495947D01*
X46649Y495992D01*
X46409Y496043D01*
X46170Y496100D01*
X45933Y496162D01*
X45697Y496231D01*
X45463Y496305D01*
X45231Y496385D01*
X45001Y496470D01*
X44773Y496561D01*
X44548Y496658D01*
X44324Y496760D01*
X44104Y496868D01*
X43886Y496981D01*
X43671Y497099D01*
X43459Y497223D01*
X43250Y497351D01*
X43044Y497485D01*
X42842Y497624D01*
X42643Y497768D01*
X42448Y497917D01*
X42256Y498070D01*
X42068Y498228D01*
X41884Y498390D01*
X41705Y498558D01*
X41529Y498729D01*
X41358Y498905D01*
X41190Y499084D01*
X41028Y499268D01*
X40870Y499456D01*
X40717Y499648D01*
X40568Y499843D01*
X40424Y500042D01*
X40285Y500244D01*
X40151Y500450D01*
X40023Y500659D01*
X39899Y500871D01*
X39781Y501086D01*
X39668Y501304D01*
X39560Y501524D01*
X39458Y501748D01*
X39361Y501973D01*
X39270Y502201D01*
X39185Y502431D01*
X39105Y502663D01*
X39031Y502897D01*
X38962Y503133D01*
X38900Y503370D01*
X38843Y503609D01*
X38792Y503849D01*
X38747Y504090D01*
X38708Y504333D01*
X38675Y504576D01*
X38648Y504820D01*
X38627Y505064D01*
X38612Y505309D01*
X38603Y505555D01*
X38600Y505800D01*
D15*
X98600Y535800D02*
X358600Y535800D01*
X358600Y835800D02*
X98600Y835800D01*
X428600Y815800D02*
X428600Y555800D01*
X418600Y555800D01*
X28600Y555800D02*
X28600Y815800D01*
D14*
X119108Y879554D02*
X119108Y887992D01*
X119108Y879554D02*
X119110Y879441D01*
X119116Y879328D01*
X119126Y879215D01*
X119140Y879102D01*
X119157Y878990D01*
X119179Y878879D01*
X119204Y878769D01*
X119234Y878659D01*
X119267Y878551D01*
X119304Y878444D01*
X119344Y878338D01*
X119389Y878234D01*
X119437Y878131D01*
X119488Y878030D01*
X119543Y877931D01*
X119601Y877834D01*
X119663Y877739D01*
X119728Y877646D01*
X119796Y877556D01*
X119867Y877468D01*
X119942Y877382D01*
X120019Y877299D01*
X120099Y877219D01*
X120182Y877142D01*
X120268Y877067D01*
X120356Y876996D01*
X120446Y876928D01*
X120539Y876863D01*
X120634Y876801D01*
X120731Y876743D01*
X120830Y876688D01*
X120931Y876637D01*
X121034Y876589D01*
X121138Y876544D01*
X121244Y876504D01*
X121351Y876467D01*
X121459Y876434D01*
X121569Y876404D01*
X121679Y876379D01*
X121790Y876357D01*
X121902Y876340D01*
X122015Y876326D01*
X122128Y876316D01*
X122241Y876310D01*
X122354Y876308D01*
X122467Y876310D01*
X122580Y876316D01*
X122693Y876326D01*
X122806Y876340D01*
X122918Y876357D01*
X123029Y876379D01*
X123139Y876404D01*
X123249Y876434D01*
X123357Y876467D01*
X123464Y876504D01*
X123570Y876544D01*
X123674Y876589D01*
X123777Y876637D01*
X123878Y876688D01*
X123977Y876743D01*
X124074Y876801D01*
X124169Y876863D01*
X124262Y876928D01*
X124352Y876996D01*
X124440Y877067D01*
X124526Y877142D01*
X124609Y877219D01*
X124689Y877299D01*
X124766Y877382D01*
X124841Y877468D01*
X124912Y877556D01*
X124980Y877646D01*
X125045Y877739D01*
X125107Y877834D01*
X125165Y877931D01*
X125220Y878030D01*
X125271Y878131D01*
X125319Y878234D01*
X125364Y878338D01*
X125404Y878444D01*
X125441Y878551D01*
X125474Y878659D01*
X125504Y878769D01*
X125529Y878879D01*
X125551Y878990D01*
X125568Y879102D01*
X125582Y879215D01*
X125592Y879328D01*
X125598Y879441D01*
X125600Y879554D01*
X125599Y879554D02*
X125599Y887992D01*
X133403Y887992D02*
X133403Y876308D01*
X133403Y882150D02*
X131780Y883124D01*
X131779Y883123D02*
X131706Y883170D01*
X131635Y883219D01*
X131565Y883272D01*
X131499Y883328D01*
X131435Y883387D01*
X131373Y883448D01*
X131315Y883512D01*
X131259Y883579D01*
X131207Y883648D01*
X131157Y883720D01*
X131111Y883794D01*
X131068Y883869D01*
X131029Y883947D01*
X130993Y884026D01*
X130961Y884107D01*
X130932Y884189D01*
X130907Y884272D01*
X130886Y884356D01*
X130869Y884441D01*
X130855Y884527D01*
X130846Y884613D01*
X130840Y884700D01*
X130838Y884787D01*
X130840Y884874D01*
X130846Y884961D01*
X130856Y885047D01*
X130869Y885133D01*
X130887Y885218D01*
X130908Y885302D01*
X130933Y885385D01*
X130962Y885468D01*
X130994Y885548D01*
X131030Y885627D01*
X131069Y885705D01*
X131112Y885780D01*
X131159Y885854D01*
X131208Y885925D01*
X131261Y885995D01*
X131316Y886061D01*
X131375Y886125D01*
X131436Y886187D01*
X131501Y886246D01*
X131567Y886301D01*
X131636Y886354D01*
X131708Y886404D01*
X131781Y886450D01*
X131857Y886493D01*
X131934Y886532D01*
X132013Y886568D01*
X132094Y886601D01*
X132176Y886629D01*
X132259Y886655D01*
X132343Y886676D01*
X132429Y886693D01*
X132429Y886694D02*
X132569Y886718D01*
X132711Y886738D01*
X132852Y886754D01*
X132994Y886765D01*
X133137Y886773D01*
X133279Y886777D01*
X133422Y886778D01*
X133565Y886774D01*
X133707Y886766D01*
X133849Y886754D01*
X133991Y886738D01*
X134132Y886719D01*
X134273Y886695D01*
X134413Y886668D01*
X134552Y886636D01*
X134690Y886601D01*
X134828Y886562D01*
X134964Y886519D01*
X135098Y886473D01*
X135232Y886422D01*
X135364Y886369D01*
X135494Y886311D01*
X135623Y886250D01*
X135750Y886185D01*
X135876Y886117D01*
X135999Y886045D01*
X133403Y882150D02*
X135025Y881176D01*
X135026Y881177D02*
X135099Y881130D01*
X135170Y881081D01*
X135240Y881028D01*
X135306Y880972D01*
X135370Y880913D01*
X135432Y880852D01*
X135490Y880788D01*
X135546Y880721D01*
X135598Y880652D01*
X135648Y880580D01*
X135694Y880506D01*
X135737Y880431D01*
X135776Y880353D01*
X135812Y880274D01*
X135844Y880193D01*
X135873Y880111D01*
X135898Y880028D01*
X135919Y879944D01*
X135936Y879859D01*
X135950Y879773D01*
X135959Y879687D01*
X135965Y879600D01*
X135967Y879513D01*
X135965Y879426D01*
X135959Y879339D01*
X135949Y879253D01*
X135936Y879167D01*
X135918Y879082D01*
X135897Y878998D01*
X135872Y878915D01*
X135843Y878832D01*
X135811Y878752D01*
X135775Y878673D01*
X135736Y878595D01*
X135693Y878520D01*
X135646Y878446D01*
X135597Y878375D01*
X135544Y878305D01*
X135489Y878239D01*
X135430Y878175D01*
X135369Y878113D01*
X135304Y878054D01*
X135238Y877999D01*
X135169Y877946D01*
X135097Y877896D01*
X135024Y877850D01*
X134948Y877807D01*
X134871Y877768D01*
X134792Y877732D01*
X134711Y877699D01*
X134629Y877671D01*
X134546Y877645D01*
X134462Y877624D01*
X134377Y877607D01*
X134376Y877606D02*
X134236Y877582D01*
X134094Y877562D01*
X133953Y877546D01*
X133811Y877535D01*
X133668Y877527D01*
X133526Y877523D01*
X133383Y877522D01*
X133240Y877526D01*
X133098Y877534D01*
X132956Y877546D01*
X132814Y877562D01*
X132673Y877581D01*
X132532Y877605D01*
X132392Y877632D01*
X132253Y877664D01*
X132115Y877699D01*
X131977Y877738D01*
X131841Y877781D01*
X131707Y877827D01*
X131573Y877878D01*
X131441Y877931D01*
X131311Y877989D01*
X131182Y878050D01*
X131055Y878115D01*
X130929Y878183D01*
X130806Y878255D01*
X140825Y885396D02*
X144071Y887992D01*
X144071Y876308D01*
X147316Y876308D02*
X140825Y876308D01*
D11*
X25900Y23200D02*
X25903Y23445D01*
X25912Y23691D01*
X25927Y23936D01*
X25948Y24180D01*
X25975Y24424D01*
X26008Y24667D01*
X26047Y24910D01*
X26092Y25151D01*
X26143Y25391D01*
X26200Y25630D01*
X26262Y25867D01*
X26331Y26103D01*
X26405Y26337D01*
X26485Y26569D01*
X26570Y26799D01*
X26661Y27027D01*
X26758Y27252D01*
X26860Y27476D01*
X26968Y27696D01*
X27081Y27914D01*
X27199Y28129D01*
X27323Y28341D01*
X27451Y28550D01*
X27585Y28756D01*
X27724Y28958D01*
X27868Y29157D01*
X28017Y29352D01*
X28170Y29544D01*
X28328Y29732D01*
X28490Y29916D01*
X28658Y30095D01*
X28829Y30271D01*
X29005Y30442D01*
X29184Y30610D01*
X29368Y30772D01*
X29556Y30930D01*
X29748Y31083D01*
X29943Y31232D01*
X30142Y31376D01*
X30344Y31515D01*
X30550Y31649D01*
X30759Y31777D01*
X30971Y31901D01*
X31186Y32019D01*
X31404Y32132D01*
X31624Y32240D01*
X31848Y32342D01*
X32073Y32439D01*
X32301Y32530D01*
X32531Y32615D01*
X32763Y32695D01*
X32997Y32769D01*
X33233Y32838D01*
X33470Y32900D01*
X33709Y32957D01*
X33949Y33008D01*
X34190Y33053D01*
X34433Y33092D01*
X34676Y33125D01*
X34920Y33152D01*
X35164Y33173D01*
X35409Y33188D01*
X35655Y33197D01*
X35900Y33200D01*
X36145Y33197D01*
X36391Y33188D01*
X36636Y33173D01*
X36880Y33152D01*
X37124Y33125D01*
X37367Y33092D01*
X37610Y33053D01*
X37851Y33008D01*
X38091Y32957D01*
X38330Y32900D01*
X38567Y32838D01*
X38803Y32769D01*
X39037Y32695D01*
X39269Y32615D01*
X39499Y32530D01*
X39727Y32439D01*
X39952Y32342D01*
X40176Y32240D01*
X40396Y32132D01*
X40614Y32019D01*
X40829Y31901D01*
X41041Y31777D01*
X41250Y31649D01*
X41456Y31515D01*
X41658Y31376D01*
X41857Y31232D01*
X42052Y31083D01*
X42244Y30930D01*
X42432Y30772D01*
X42616Y30610D01*
X42795Y30442D01*
X42971Y30271D01*
X43142Y30095D01*
X43310Y29916D01*
X43472Y29732D01*
X43630Y29544D01*
X43783Y29352D01*
X43932Y29157D01*
X44076Y28958D01*
X44215Y28756D01*
X44349Y28550D01*
X44477Y28341D01*
X44601Y28129D01*
X44719Y27914D01*
X44832Y27696D01*
X44940Y27476D01*
X45042Y27252D01*
X45139Y27027D01*
X45230Y26799D01*
X45315Y26569D01*
X45395Y26337D01*
X45469Y26103D01*
X45538Y25867D01*
X45600Y25630D01*
X45657Y25391D01*
X45708Y25151D01*
X45753Y24910D01*
X45792Y24667D01*
X45825Y24424D01*
X45852Y24180D01*
X45873Y23936D01*
X45888Y23691D01*
X45897Y23445D01*
X45900Y23200D01*
X45897Y22955D01*
X45888Y22709D01*
X45873Y22464D01*
X45852Y22220D01*
X45825Y21976D01*
X45792Y21733D01*
X45753Y21490D01*
X45708Y21249D01*
X45657Y21009D01*
X45600Y20770D01*
X45538Y20533D01*
X45469Y20297D01*
X45395Y20063D01*
X45315Y19831D01*
X45230Y19601D01*
X45139Y19373D01*
X45042Y19148D01*
X44940Y18924D01*
X44832Y18704D01*
X44719Y18486D01*
X44601Y18271D01*
X44477Y18059D01*
X44349Y17850D01*
X44215Y17644D01*
X44076Y17442D01*
X43932Y17243D01*
X43783Y17048D01*
X43630Y16856D01*
X43472Y16668D01*
X43310Y16484D01*
X43142Y16305D01*
X42971Y16129D01*
X42795Y15958D01*
X42616Y15790D01*
X42432Y15628D01*
X42244Y15470D01*
X42052Y15317D01*
X41857Y15168D01*
X41658Y15024D01*
X41456Y14885D01*
X41250Y14751D01*
X41041Y14623D01*
X40829Y14499D01*
X40614Y14381D01*
X40396Y14268D01*
X40176Y14160D01*
X39952Y14058D01*
X39727Y13961D01*
X39499Y13870D01*
X39269Y13785D01*
X39037Y13705D01*
X38803Y13631D01*
X38567Y13562D01*
X38330Y13500D01*
X38091Y13443D01*
X37851Y13392D01*
X37610Y13347D01*
X37367Y13308D01*
X37124Y13275D01*
X36880Y13248D01*
X36636Y13227D01*
X36391Y13212D01*
X36145Y13203D01*
X35900Y13200D01*
X35655Y13203D01*
X35409Y13212D01*
X35164Y13227D01*
X34920Y13248D01*
X34676Y13275D01*
X34433Y13308D01*
X34190Y13347D01*
X33949Y13392D01*
X33709Y13443D01*
X33470Y13500D01*
X33233Y13562D01*
X32997Y13631D01*
X32763Y13705D01*
X32531Y13785D01*
X32301Y13870D01*
X32073Y13961D01*
X31848Y14058D01*
X31624Y14160D01*
X31404Y14268D01*
X31186Y14381D01*
X30971Y14499D01*
X30759Y14623D01*
X30550Y14751D01*
X30344Y14885D01*
X30142Y15024D01*
X29943Y15168D01*
X29748Y15317D01*
X29556Y15470D01*
X29368Y15628D01*
X29184Y15790D01*
X29005Y15958D01*
X28829Y16129D01*
X28658Y16305D01*
X28490Y16484D01*
X28328Y16668D01*
X28170Y16856D01*
X28017Y17048D01*
X27868Y17243D01*
X27724Y17442D01*
X27585Y17644D01*
X27451Y17850D01*
X27323Y18059D01*
X27199Y18271D01*
X27081Y18486D01*
X26968Y18704D01*
X26860Y18924D01*
X26758Y19148D01*
X26661Y19373D01*
X26570Y19601D01*
X26485Y19831D01*
X26405Y20063D01*
X26331Y20297D01*
X26262Y20533D01*
X26200Y20770D01*
X26143Y21009D01*
X26092Y21249D01*
X26047Y21490D01*
X26008Y21733D01*
X25975Y21976D01*
X25948Y22220D01*
X25927Y22464D01*
X25912Y22709D01*
X25903Y22955D01*
X25900Y23200D01*
D15*
X85900Y53200D02*
X345900Y53200D01*
X345900Y353200D02*
X85900Y353200D01*
X415900Y333200D02*
X415900Y73200D01*
X405900Y73200D01*
X15900Y73200D02*
X15900Y333200D01*
D14*
X106408Y396954D02*
X106408Y405392D01*
X106408Y396954D02*
X106410Y396841D01*
X106416Y396728D01*
X106426Y396615D01*
X106440Y396502D01*
X106457Y396390D01*
X106479Y396279D01*
X106504Y396169D01*
X106534Y396059D01*
X106567Y395951D01*
X106604Y395844D01*
X106644Y395738D01*
X106689Y395634D01*
X106737Y395531D01*
X106788Y395430D01*
X106843Y395331D01*
X106901Y395234D01*
X106963Y395139D01*
X107028Y395046D01*
X107096Y394956D01*
X107167Y394868D01*
X107242Y394782D01*
X107319Y394699D01*
X107399Y394619D01*
X107482Y394542D01*
X107568Y394467D01*
X107656Y394396D01*
X107746Y394328D01*
X107839Y394263D01*
X107934Y394201D01*
X108031Y394143D01*
X108130Y394088D01*
X108231Y394037D01*
X108334Y393989D01*
X108438Y393944D01*
X108544Y393904D01*
X108651Y393867D01*
X108759Y393834D01*
X108869Y393804D01*
X108979Y393779D01*
X109090Y393757D01*
X109202Y393740D01*
X109315Y393726D01*
X109428Y393716D01*
X109541Y393710D01*
X109654Y393708D01*
X109767Y393710D01*
X109880Y393716D01*
X109993Y393726D01*
X110106Y393740D01*
X110218Y393757D01*
X110329Y393779D01*
X110439Y393804D01*
X110549Y393834D01*
X110657Y393867D01*
X110764Y393904D01*
X110870Y393944D01*
X110974Y393989D01*
X111077Y394037D01*
X111178Y394088D01*
X111277Y394143D01*
X111374Y394201D01*
X111469Y394263D01*
X111562Y394328D01*
X111652Y394396D01*
X111740Y394467D01*
X111826Y394542D01*
X111909Y394619D01*
X111989Y394699D01*
X112066Y394782D01*
X112141Y394868D01*
X112212Y394956D01*
X112280Y395046D01*
X112345Y395139D01*
X112407Y395234D01*
X112465Y395331D01*
X112520Y395430D01*
X112571Y395531D01*
X112619Y395634D01*
X112664Y395738D01*
X112704Y395844D01*
X112741Y395951D01*
X112774Y396059D01*
X112804Y396169D01*
X112829Y396279D01*
X112851Y396390D01*
X112868Y396502D01*
X112882Y396615D01*
X112892Y396728D01*
X112898Y396841D01*
X112900Y396954D01*
X112899Y396954D02*
X112899Y405392D01*
X120703Y405392D02*
X120703Y393708D01*
X120703Y399550D02*
X119080Y400524D01*
X119079Y400523D02*
X119006Y400570D01*
X118935Y400619D01*
X118865Y400672D01*
X118799Y400728D01*
X118735Y400787D01*
X118673Y400848D01*
X118615Y400912D01*
X118559Y400979D01*
X118507Y401048D01*
X118457Y401120D01*
X118411Y401194D01*
X118368Y401269D01*
X118329Y401347D01*
X118293Y401426D01*
X118261Y401507D01*
X118232Y401589D01*
X118207Y401672D01*
X118186Y401756D01*
X118169Y401841D01*
X118155Y401927D01*
X118146Y402013D01*
X118140Y402100D01*
X118138Y402187D01*
X118140Y402274D01*
X118146Y402361D01*
X118156Y402447D01*
X118169Y402533D01*
X118187Y402618D01*
X118208Y402702D01*
X118233Y402785D01*
X118262Y402868D01*
X118294Y402948D01*
X118330Y403027D01*
X118369Y403105D01*
X118412Y403180D01*
X118459Y403254D01*
X118508Y403325D01*
X118561Y403395D01*
X118616Y403461D01*
X118675Y403525D01*
X118736Y403587D01*
X118801Y403646D01*
X118867Y403701D01*
X118936Y403754D01*
X119008Y403804D01*
X119081Y403850D01*
X119157Y403893D01*
X119234Y403932D01*
X119313Y403968D01*
X119394Y404001D01*
X119476Y404029D01*
X119559Y404055D01*
X119643Y404076D01*
X119729Y404093D01*
X119729Y404094D02*
X119869Y404118D01*
X120011Y404138D01*
X120152Y404154D01*
X120294Y404165D01*
X120437Y404173D01*
X120579Y404177D01*
X120722Y404178D01*
X120865Y404174D01*
X121007Y404166D01*
X121149Y404154D01*
X121291Y404138D01*
X121432Y404119D01*
X121573Y404095D01*
X121713Y404068D01*
X121852Y404036D01*
X121990Y404001D01*
X122128Y403962D01*
X122264Y403919D01*
X122398Y403873D01*
X122532Y403822D01*
X122664Y403769D01*
X122794Y403711D01*
X122923Y403650D01*
X123050Y403585D01*
X123176Y403517D01*
X123299Y403445D01*
X120703Y399550D02*
X122325Y398576D01*
X122326Y398577D02*
X122399Y398530D01*
X122470Y398481D01*
X122540Y398428D01*
X122606Y398372D01*
X122670Y398313D01*
X122732Y398252D01*
X122790Y398188D01*
X122846Y398121D01*
X122898Y398052D01*
X122948Y397980D01*
X122994Y397906D01*
X123037Y397831D01*
X123076Y397753D01*
X123112Y397674D01*
X123144Y397593D01*
X123173Y397511D01*
X123198Y397428D01*
X123219Y397344D01*
X123236Y397259D01*
X123250Y397173D01*
X123259Y397087D01*
X123265Y397000D01*
X123267Y396913D01*
X123265Y396826D01*
X123259Y396739D01*
X123249Y396653D01*
X123236Y396567D01*
X123218Y396482D01*
X123197Y396398D01*
X123172Y396315D01*
X123143Y396232D01*
X123111Y396152D01*
X123075Y396073D01*
X123036Y395995D01*
X122993Y395920D01*
X122946Y395846D01*
X122897Y395775D01*
X122844Y395705D01*
X122789Y395639D01*
X122730Y395575D01*
X122669Y395513D01*
X122604Y395454D01*
X122538Y395399D01*
X122469Y395346D01*
X122397Y395296D01*
X122324Y395250D01*
X122248Y395207D01*
X122171Y395168D01*
X122092Y395132D01*
X122011Y395099D01*
X121929Y395071D01*
X121846Y395045D01*
X121762Y395024D01*
X121677Y395007D01*
X121676Y395006D02*
X121536Y394982D01*
X121394Y394962D01*
X121253Y394946D01*
X121111Y394935D01*
X120968Y394927D01*
X120826Y394923D01*
X120683Y394922D01*
X120540Y394926D01*
X120398Y394934D01*
X120256Y394946D01*
X120114Y394962D01*
X119973Y394981D01*
X119832Y395005D01*
X119692Y395032D01*
X119553Y395064D01*
X119415Y395099D01*
X119277Y395138D01*
X119141Y395181D01*
X119007Y395227D01*
X118873Y395278D01*
X118741Y395331D01*
X118611Y395389D01*
X118482Y395450D01*
X118355Y395515D01*
X118229Y395583D01*
X118106Y395655D01*
X131695Y405392D02*
X131802Y405390D01*
X131908Y405384D01*
X132014Y405374D01*
X132120Y405361D01*
X132226Y405343D01*
X132330Y405322D01*
X132434Y405297D01*
X132537Y405268D01*
X132638Y405236D01*
X132738Y405199D01*
X132837Y405159D01*
X132935Y405116D01*
X133031Y405069D01*
X133125Y405018D01*
X133217Y404964D01*
X133307Y404907D01*
X133395Y404847D01*
X133480Y404783D01*
X133563Y404716D01*
X133644Y404646D01*
X133722Y404574D01*
X133798Y404498D01*
X133870Y404420D01*
X133940Y404339D01*
X134007Y404256D01*
X134071Y404171D01*
X134131Y404083D01*
X134188Y403993D01*
X134242Y403901D01*
X134293Y403807D01*
X134340Y403711D01*
X134383Y403613D01*
X134423Y403514D01*
X134460Y403414D01*
X134492Y403313D01*
X134521Y403210D01*
X134546Y403106D01*
X134567Y403002D01*
X134585Y402896D01*
X134598Y402790D01*
X134608Y402684D01*
X134614Y402578D01*
X134616Y402471D01*
X131695Y405392D02*
X131574Y405390D01*
X131453Y405384D01*
X131333Y405374D01*
X131212Y405361D01*
X131093Y405343D01*
X130973Y405322D01*
X130855Y405297D01*
X130738Y405268D01*
X130621Y405235D01*
X130506Y405199D01*
X130392Y405158D01*
X130279Y405115D01*
X130167Y405067D01*
X130058Y405016D01*
X129950Y404961D01*
X129843Y404903D01*
X129739Y404842D01*
X129637Y404777D01*
X129537Y404709D01*
X129439Y404638D01*
X129343Y404564D01*
X129250Y404487D01*
X129160Y404406D01*
X129072Y404323D01*
X128987Y404237D01*
X128904Y404148D01*
X128825Y404057D01*
X128748Y403963D01*
X128675Y403867D01*
X128605Y403769D01*
X128538Y403668D01*
X128474Y403565D01*
X128414Y403460D01*
X128357Y403353D01*
X128303Y403245D01*
X128253Y403135D01*
X128207Y403023D01*
X128164Y402910D01*
X128125Y402795D01*
X133643Y400199D02*
X133722Y400276D01*
X133798Y400357D01*
X133871Y400440D01*
X133941Y400525D01*
X134008Y400613D01*
X134072Y400703D01*
X134132Y400795D01*
X134189Y400890D01*
X134243Y400986D01*
X134294Y401084D01*
X134341Y401184D01*
X134385Y401286D01*
X134425Y401389D01*
X134461Y401493D01*
X134493Y401599D01*
X134522Y401705D01*
X134547Y401813D01*
X134569Y401921D01*
X134586Y402031D01*
X134600Y402140D01*
X134609Y402250D01*
X134615Y402361D01*
X134617Y402471D01*
X133642Y400199D02*
X128125Y393708D01*
X134616Y393708D01*
M02*
