G04 EAGLE Gerber RS-274X export*
G75*
%MOMM*%
%FSLAX34Y34*%
%LPD*%
%INSoldermask Bottom*%
%IPPOS*%
%AMOC8*
5,1,8,0,0,1.08239X$1,22.5*%
G01*
%ADD10R,1.676400X1.676400*%
%ADD11P,1.814519X8X22.500000*%
%ADD12C,0.740194*%
%ADD13R,0.300000X1.300000*%
%ADD14C,1.930400*%


D10*
X135300Y701300D03*
D11*
X135300Y675900D03*
X160700Y701300D03*
X160700Y675900D03*
X186100Y701300D03*
X186100Y675900D03*
X211500Y701300D03*
X211500Y675900D03*
X236900Y701300D03*
X236900Y675900D03*
X262300Y701300D03*
X262300Y675900D03*
X287700Y701300D03*
X287700Y675900D03*
X313100Y701300D03*
X313100Y675900D03*
X338500Y701300D03*
X338500Y675900D03*
X363900Y701300D03*
X363900Y675900D03*
X389300Y701300D03*
X389300Y675900D03*
X414700Y701300D03*
X414700Y675900D03*
X440100Y701300D03*
X440100Y675900D03*
X465500Y701300D03*
X465500Y675900D03*
X490900Y701300D03*
X490900Y675900D03*
X516300Y701300D03*
X516300Y675900D03*
X541700Y701300D03*
X541700Y675900D03*
X567100Y701300D03*
X567100Y675900D03*
D10*
X135300Y447300D03*
D11*
X135300Y421900D03*
X160700Y447300D03*
X160700Y421900D03*
X186100Y447300D03*
X186100Y421900D03*
X211500Y447300D03*
X211500Y421900D03*
X236900Y447300D03*
X236900Y421900D03*
X262300Y447300D03*
X262300Y421900D03*
X287700Y447300D03*
X287700Y421900D03*
X313100Y447300D03*
X313100Y421900D03*
X338500Y447300D03*
X338500Y421900D03*
X363900Y447300D03*
X363900Y421900D03*
X389300Y447300D03*
X389300Y421900D03*
X414700Y447300D03*
X414700Y421900D03*
X440100Y447300D03*
X440100Y421900D03*
X465500Y447300D03*
X465500Y421900D03*
X490900Y447300D03*
X490900Y421900D03*
X516300Y447300D03*
X516300Y421900D03*
X541700Y447300D03*
X541700Y421900D03*
X567100Y447300D03*
X567100Y421900D03*
D12*
X883739Y271861D02*
X901861Y271861D01*
X901861Y253739D01*
X883739Y253739D01*
X883739Y271861D01*
X883739Y260771D02*
X901861Y260771D01*
X901861Y267803D02*
X883739Y267803D01*
X614861Y271861D02*
X596739Y271861D01*
X614861Y271861D02*
X614861Y253739D01*
X596739Y253739D01*
X596739Y271861D01*
X596739Y260771D02*
X614861Y260771D01*
X614861Y267803D02*
X596739Y267803D01*
D13*
X626800Y289700D03*
X631800Y289700D03*
X636800Y289700D03*
X646800Y289700D03*
X641800Y289700D03*
X651800Y289700D03*
X656800Y289700D03*
X661800Y289700D03*
X666800Y289700D03*
X676800Y289700D03*
X671800Y289700D03*
X681800Y289700D03*
X686800Y289700D03*
X691800Y289700D03*
X696800Y289700D03*
X706800Y289700D03*
X701800Y289700D03*
X711800Y289700D03*
X716800Y289700D03*
X721800Y289700D03*
X726800Y289700D03*
X736800Y289700D03*
X731800Y289700D03*
X741800Y289700D03*
X746800Y289700D03*
X751800Y289700D03*
X756800Y289700D03*
X766800Y289700D03*
X761800Y289700D03*
X771800Y289700D03*
X776800Y289700D03*
X781800Y289700D03*
X786800Y289700D03*
X796800Y289700D03*
X791800Y289700D03*
X801800Y289700D03*
X806800Y289700D03*
X811800Y289700D03*
X816800Y289700D03*
X826800Y289700D03*
X821800Y289700D03*
X831800Y289700D03*
X836800Y289700D03*
X841800Y289700D03*
X846800Y289700D03*
X856800Y289700D03*
X851800Y289700D03*
X861800Y289700D03*
X866800Y289700D03*
X871800Y289700D03*
D14*
X203200Y863600D03*
X228600Y863600D03*
X254000Y863600D03*
X279400Y863600D03*
X304800Y863600D03*
X152400Y50800D03*
X177800Y50800D03*
X203200Y50800D03*
X228600Y50800D03*
X254000Y50800D03*
M02*
