G04 EAGLE Gerber RS-274X export*
G75*
%MOMM*%
%FSLAX34Y34*%
%LPD*%
%INSoldermask Top*%
%IPPOS*%
%AMOC8*
5,1,8,0,0,1.08239X$1,22.5*%
G01*
%ADD10R,1.676400X1.676400*%
%ADD11P,1.814519X8X22.500000*%
%ADD12C,1.930400*%
%ADD13R,0.752400X1.202400*%
%ADD14R,5.152400X5.152400*%


D10*
X135300Y701300D03*
D11*
X135300Y675900D03*
X160700Y701300D03*
X160700Y675900D03*
X186100Y701300D03*
X186100Y675900D03*
X211500Y701300D03*
X211500Y675900D03*
X236900Y701300D03*
X236900Y675900D03*
X262300Y701300D03*
X262300Y675900D03*
X287700Y701300D03*
X287700Y675900D03*
X313100Y701300D03*
X313100Y675900D03*
X338500Y701300D03*
X338500Y675900D03*
X363900Y701300D03*
X363900Y675900D03*
X389300Y701300D03*
X389300Y675900D03*
X414700Y701300D03*
X414700Y675900D03*
X440100Y701300D03*
X440100Y675900D03*
X465500Y701300D03*
X465500Y675900D03*
X490900Y701300D03*
X490900Y675900D03*
X516300Y701300D03*
X516300Y675900D03*
X541700Y701300D03*
X541700Y675900D03*
X567100Y701300D03*
X567100Y675900D03*
D10*
X135300Y447300D03*
D11*
X135300Y421900D03*
X160700Y447300D03*
X160700Y421900D03*
X186100Y447300D03*
X186100Y421900D03*
X211500Y447300D03*
X211500Y421900D03*
X236900Y447300D03*
X236900Y421900D03*
X262300Y447300D03*
X262300Y421900D03*
X287700Y447300D03*
X287700Y421900D03*
X313100Y447300D03*
X313100Y421900D03*
X338500Y447300D03*
X338500Y421900D03*
X363900Y447300D03*
X363900Y421900D03*
X389300Y447300D03*
X389300Y421900D03*
X414700Y447300D03*
X414700Y421900D03*
X440100Y447300D03*
X440100Y421900D03*
X465500Y447300D03*
X465500Y421900D03*
X490900Y447300D03*
X490900Y421900D03*
X516300Y447300D03*
X516300Y421900D03*
X541700Y447300D03*
X541700Y421900D03*
X567100Y447300D03*
X567100Y421900D03*
D12*
X203200Y863600D03*
X228600Y863600D03*
X254000Y863600D03*
X279400Y863600D03*
X304800Y863600D03*
X152400Y50800D03*
X177800Y50800D03*
X203200Y50800D03*
X228600Y50800D03*
X254000Y50800D03*
D13*
X498500Y735800D03*
X508000Y735800D03*
X517500Y735800D03*
X517500Y762800D03*
X498500Y762800D03*
D14*
X68600Y845800D03*
X68600Y525800D03*
X388600Y525800D03*
X388600Y845800D03*
X55900Y363200D03*
X55900Y43200D03*
X375900Y43200D03*
X375900Y363200D03*
M02*
